# Blender v2.90.1 OBJ File: 'concrete_wall_1.blend'
# www.blender.org
o Cube
v 0.600000 2.000000 0.000000
v 0.600000 0.000000 0.000000
v 0.600000 2.000000 2.000000
v 0.600000 0.000000 2.000000
v 0.000000 2.000000 0.000000
v 0.000000 0.000000 0.000000
v 0.000000 2.000000 2.000000
v 0.000000 0.000000 2.000000
v 0.000000 0.000000 0.287104
v 0.000000 0.000000 1.712896
v 0.600000 2.000000 0.287104
v 0.600000 2.000000 1.712896
v 0.000000 2.000000 1.712896
v 0.000000 2.000000 0.287104
v 0.600000 0.000000 1.712896
v 0.600000 0.000000 0.287104
v 0.000000 1.713414 0.000000
v 0.247950 0.000000 1.712896
v 0.600000 1.713414 2.000000
v 0.247776 0.000000 0.287104
v 0.000000 1.713414 2.000000
v 0.600000 1.713414 0.000000
v 0.600000 1.713414 0.287104
v 0.600000 1.713414 1.712896
v 0.000000 1.713414 1.712896
v 0.000000 1.713414 0.287104
v 0.193622 1.573124 1.712896
v 0.193448 1.573124 0.287104
v 0.600000 0.359697 0.000000
v 0.600000 0.359697 2.000000
v 0.000000 0.359697 0.000000
v 0.600000 0.359697 0.287104
v 0.600000 0.359697 1.712896
v 0.000000 0.359697 1.712896
v 0.000000 0.359697 0.287104
v 0.193622 0.499987 1.712896
v 0.000000 0.359697 2.000000
v 0.193448 0.499987 0.287104
v 0.047813 2.000000 0.287148
v 0.047988 2.000000 1.712940
v 0.047988 1.713414 1.712940
v 0.047988 0.359697 1.712940
v 0.047988 0.000000 1.712940
v 0.047813 0.000000 0.287148
v 0.047813 0.359697 0.287148
v 0.047840 1.713414 0.287104
v 0.046288 0.000000 0.000000
v 0.046288 2.000000 0.000000
v 0.046288 1.713414 0.000000
v 0.046288 0.359697 0.000000
v 0.048776 2.000000 2.000000
v 0.048776 0.000000 2.000000
v 0.048776 1.713414 2.000000
v 0.048776 0.359697 2.000000
v 0.600000 2.000000 0.572262
v 0.600000 2.000000 0.857421
v 0.600000 2.000000 1.142579
v 0.600000 2.000000 1.427738
v 0.600000 0.000000 1.427738
v 0.600000 0.000000 1.142579
v 0.600000 0.000000 0.857421
v 0.600000 0.000000 0.572262
v 0.193587 1.573124 1.427738
v 0.193553 1.573124 1.142579
v 0.193518 1.573124 0.857421
v 0.193483 1.573124 0.572262
v 0.600000 1.713414 0.572262
v 0.600000 1.713414 0.857421
v 0.600000 1.713414 1.142579
v 0.600000 1.713414 1.427738
v 0.600000 0.359697 0.572262
v 0.600000 0.359697 0.857421
v 0.600000 0.359697 1.142579
v 0.600000 0.359697 1.427738
v 0.193587 0.499987 1.427738
v 0.193553 0.499987 1.142579
v 0.193518 0.499987 0.857421
v 0.193483 0.499987 0.572262
v 0.047848 0.000000 0.572306
v 0.047883 0.000000 0.857465
v 0.047918 0.000000 1.142623
v 0.047953 0.000000 1.427781
v 0.047953 2.000000 1.427781
v 0.047918 2.000000 1.142623
v 0.047883 2.000000 0.857465
v 0.047848 2.000000 0.572306
v 0.047953 0.359697 1.427781
v 0.047918 0.359697 1.142623
v 0.047883 0.359697 0.857465
v 0.047848 0.359697 0.572306
v 0.047958 1.713414 1.427773
v 0.047929 1.713414 1.142605
v 0.047899 1.713414 0.857438
v 0.047870 1.713414 0.572271
v 0.007279 1.573124 1.427798
v 0.007244 1.573124 1.142640
v 0.007209 1.573124 0.857482
v 0.007174 1.573124 0.572323
v 0.007279 0.499987 1.427798
v 0.007244 0.499987 1.142640
v 0.007209 0.499987 0.857482
v 0.007174 0.499987 0.572323
v 0.000000 1.036556 2.000000
v 0.600000 1.036556 0.000000
v 0.600000 1.036556 2.000000
v 0.000000 1.036556 0.000000
v 0.600000 1.036556 0.287104
v 0.600000 1.036556 1.712896
v 0.000000 1.036556 1.712896
v 0.000000 1.036556 0.287104
v 0.193622 1.036556 1.712896
v 0.193448 1.036556 0.287104
v 0.046288 1.036556 0.000000
v 0.048776 1.036556 2.000000
v 0.047827 1.036556 0.287126
v 0.047988 1.036556 1.712940
v 0.600000 1.036556 0.572262
v 0.600000 1.036556 0.857421
v 0.600000 1.036556 1.142579
v 0.600000 1.036556 1.427738
v 0.193587 1.036556 1.427738
v 0.193553 1.036556 1.142579
v 0.193518 1.036556 0.857421
v 0.193483 1.036556 0.572262
v 0.102448 1.036556 1.427798
v 0.102413 1.036556 1.142640
v 0.102378 1.036556 0.857482
v 0.102343 1.036556 0.572323
vn 0.0000 1.0000 0.0000
vn 0.0000 0.0000 1.0000
vn -1.0000 0.0000 0.0000
vn 1.0000 0.0000 0.0000
vn 0.0000 0.0000 -1.0000
vn 0.0000 -1.0000 0.0000
vn -0.0009 0.0000 1.0000
vn -0.0003 0.0000 -1.0000
vn 0.0003 0.0000 1.0000
vn -1.0000 0.0000 0.0001
vn -0.6938 0.7202 0.0001
vn -0.0005 0.0000 1.0000
vn -1.0000 -0.0001 0.0001
vn 0.0002 0.0000 1.0000
vn -0.6938 -0.7202 0.0001
vn 0.0009 0.0000 -1.0000
vn -0.6938 -0.7201 0.0001
vn -0.9604 -0.2785 0.0001
vn -0.9604 0.2785 0.0001
vn 0.0003 0.0001 1.0000
vn 0.0007 0.0000 1.0000
vn -0.9846 -0.1746 0.0001
vn -0.0007 0.0000 -1.0000
vn 0.0003 0.0002 1.0000
vn -0.9604 0.2786 0.0001
vn -0.0003 -0.0003 -1.0000
vn -0.0003 -0.0002 -1.0000
vn 0.0003 -0.0001 1.0000
vn -0.0003 -0.0001 -1.0000
vn -0.9846 0.1746 0.0001
vn 0.0000 -0.0002 1.0000
vn -0.0002 -0.0000 -1.0000
vn -0.0003 0.0001 -1.0000
s off
f 40//1 7//1 51//1
f 51//2 21//2 53//2
f 14//3 17//3 26//3
f 12//1 51//1 3//1
f 12//4 19//4 24//4
f 1//1 39//1 11//1
f 1//4 23//4 22//4
f 58//4 24//4 70//4
f 50//5 2//5 47//5
f 2//6 16//6 20//6
f 7//3 25//3 21//3
f 57//1 83//1 58//1
f 48//1 14//1 39//1
f 26//7 39//7 14//7
f 38//8 44//8 45//8
f 45//9 44//9 38//9
f 48//5 22//5 49//5
f 113//5 29//5 50//5
f 53//2 105//2 19//2
f 116//8 27//8 111//8
f 66//10 112//10 124//10
f 21//3 109//3 103//3
f 70//4 108//4 120//4
f 22//4 107//4 104//4
f 24//4 105//4 108//4
f 26//3 106//3 110//3
f 53//2 103//2 114//2
f 54//2 8//2 52//2
f 35//3 6//3 9//3
f 33//4 4//4 15//4
f 54//2 4//2 30//2
f 29//4 16//4 2//4
f 74//4 15//4 59//4
f 37//3 10//3 8//3
f 38//11 90//11 78//11
f 59//6 15//6 18//6
f 110//12 45//12 115//12
f 94//13 39//13 46//13
f 90//10 44//10 79//10
f 36//14 43//14 18//14
f 18//6 4//6 52//6
f 11//1 86//1 55//1
f 63//15 41//15 91//15
f 31//5 47//5 6//5
f 115//14 38//14 112//14
f 17//5 113//5 106//5
f 5//5 49//5 17//5
f 47//6 9//6 6//6
f 34//16 43//16 10//16
f 25//16 116//16 109//16
f 43//6 8//6 10//6
f 13//16 41//16 25//16
f 28//17 94//17 46//17
f 75//9 99//9 87//9
f 65//15 92//15 93//15
f 89//9 77//9 101//9
f 56//1 84//1 57//1
f 55//1 85//1 56//1
f 22//5 113//5 49//5
f 62//6 80//6 79//6
f 61//6 81//6 80//6
f 60//6 82//6 81//6
f 58//1 40//1 12//1
f 42//10 82//10 43//10
f 87//10 81//10 82//10
f 88//10 80//10 81//10
f 89//10 79//10 80//10
f 41//10 83//10 91//10
f 91//10 84//10 92//10
f 92//13 85//13 93//13
f 93//13 86//13 94//13
f 75//11 42//11 36//11
f 90//18 101//18 102//18
f 77//11 88//11 76//11
f 95//19 92//19 96//19
f 32//4 62//4 16//4
f 71//4 61//4 62//4
f 72//4 60//4 61//4
f 73//4 59//4 60//4
f 23//4 117//4 107//4
f 67//4 118//4 117//4
f 68//4 119//4 118//4
f 69//4 120//4 119//4
f 27//10 121//10 111//10
f 91//20 95//20 63//20
f 64//10 123//10 122//10
f 63//21 125//21 121//21
f 11//4 67//4 23//4
f 55//4 68//4 67//4
f 56//4 69//4 68//4
f 57//4 70//4 69//4
f 95//22 126//22 125//22
f 97//22 128//22 127//22
f 78//23 128//23 124//23
f 93//24 97//24 65//24
f 76//23 126//23 122//23
f 97//25 94//25 98//25
f 88//18 99//18 100//18
f 65//21 127//21 123//21
f 94//26 66//26 98//26
f 90//8 102//8 78//8
f 92//27 64//27 96//27
f 77//28 127//28 101//28
f 64//29 126//29 96//29
f 66//29 128//29 98//29
f 101//30 128//30 102//30
f 99//30 126//30 100//30
f 75//28 125//28 99//28
f 122//10 77//10 76//10
f 111//10 75//10 36//10
f 119//4 74//4 73//4
f 118//4 73//4 72//4
f 117//4 72//4 71//4
f 107//4 71//4 32//4
f 109//16 42//16 34//16
f 79//6 20//6 62//6
f 106//5 50//5 31//5
f 115//2 28//2 46//2
f 26//2 115//2 46//2
f 114//2 37//2 54//2
f 35//3 106//3 31//3
f 108//4 30//4 33//4
f 105//2 54//2 30//2
f 104//4 32//4 29//4
f 120//4 33//4 74//4
f 103//3 34//3 37//3
f 124//10 38//10 78//10
f 116//8 36//8 42//8
f 88//8 100//8 76//8
f 51//2 19//2 3//2
f 40//1 13//1 7//1
f 51//2 7//2 21//2
f 14//3 5//3 17//3
f 12//1 40//1 51//1
f 12//4 3//4 19//4
f 1//1 48//1 39//1
f 1//4 11//4 23//4
f 58//4 12//4 24//4
f 50//5 29//5 2//5
f 44//6 47//6 20//6
f 47//6 2//6 20//6
f 7//3 13//3 25//3
f 57//1 84//1 83//1
f 48//1 5//1 14//1
f 26//31 46//31 39//31
f 38//32 20//32 44//32
f 45//7 35//7 9//7
f 9//7 44//7 45//7
f 44//14 20//14 38//14
f 48//5 1//5 22//5
f 113//5 104//5 29//5
f 53//2 114//2 105//2
f 116//8 41//8 27//8
f 66//10 28//10 112//10
f 21//3 25//3 109//3
f 70//4 24//4 108//4
f 22//4 23//4 107//4
f 24//4 19//4 105//4
f 26//3 17//3 106//3
f 53//2 21//2 103//2
f 54//2 37//2 8//2
f 35//3 31//3 6//3
f 33//4 30//4 4//4
f 54//2 52//2 4//2
f 29//4 32//4 16//4
f 74//4 33//4 15//4
f 37//3 34//3 10//3
f 38//11 45//11 90//11
f 18//6 43//6 82//6
f 82//6 59//6 18//6
f 110//7 35//7 45//7
f 94//13 86//13 39//13
f 90//10 45//10 44//10
f 36//9 42//9 43//9
f 52//6 43//6 18//6
f 18//6 15//6 4//6
f 11//1 39//1 86//1
f 63//15 27//15 41//15
f 31//5 50//5 47//5
f 115//9 45//9 38//9
f 17//5 49//5 113//5
f 5//5 48//5 49//5
f 47//6 44//6 9//6
f 34//16 42//16 43//16
f 25//16 41//16 116//16
f 43//6 52//6 8//6
f 13//16 40//16 41//16
f 28//17 66//17 94//17
f 65//15 64//15 92//15
f 56//1 85//1 84//1
f 55//1 86//1 85//1
f 22//5 104//5 113//5
f 62//6 61//6 80//6
f 61//6 60//6 81//6
f 60//6 59//6 82//6
f 58//1 83//1 40//1
f 42//10 87//10 82//10
f 87//10 88//10 81//10
f 88//10 89//10 80//10
f 89//10 90//10 79//10
f 41//10 40//10 83//10
f 91//10 83//10 84//10
f 92//10 84//10 85//10
f 93//13 85//13 86//13
f 75//11 87//11 42//11
f 90//18 89//18 101//18
f 77//11 89//11 88//11
f 95//19 91//19 92//19
f 32//4 71//4 62//4
f 71//4 72//4 61//4
f 72//4 73//4 60//4
f 73//4 74//4 59//4
f 23//4 67//4 117//4
f 67//4 68//4 118//4
f 68//4 69//4 119//4
f 69//4 70//4 120//4
f 27//10 63//10 121//10
f 64//10 65//10 123//10
f 63//20 95//20 125//20
f 11//4 55//4 67//4
f 55//4 56//4 68//4
f 56//4 57//4 69//4
f 57//4 58//4 70//4
f 95//22 96//22 126//22
f 97//22 98//22 128//22
f 78//33 102//33 128//33
f 76//33 100//33 126//33
f 97//25 93//25 94//25
f 88//18 87//18 99//18
f 65//20 97//20 127//20
f 77//21 123//21 127//21
f 64//23 122//23 126//23
f 66//23 124//23 128//23
f 101//30 127//30 128//30
f 99//30 125//30 126//30
f 75//21 121//21 125//21
f 122//10 123//10 77//10
f 111//10 121//10 75//10
f 119//4 120//4 74//4
f 118//4 119//4 73//4
f 117//4 118//4 72//4
f 107//4 117//4 71//4
f 109//16 116//16 42//16
f 44//6 20//6 79//6
f 20//6 16//6 62//6
f 106//5 113//5 50//5
f 115//14 112//14 28//14
f 26//12 110//12 115//12
f 114//2 103//2 37//2
f 35//3 110//3 106//3
f 108//4 105//4 30//4
f 105//2 114//2 54//2
f 104//4 107//4 32//4
f 120//4 108//4 33//4
f 103//3 109//3 34//3
f 124//10 112//10 38//10
f 116//8 111//8 36//8
f 51//2 53//2 19//2
