# Blender v2.80 (sub 75) OBJ File: ''
# www.blender.org
mtllib CornerPipe.mtl
o Cylinder_Cylinder.001
v 0.000000 0.000000 -2.500000
v 0.000000 -0.024537 -2.500000
v 0.382683 -0.024537 -2.423879
v 0.382683 0.000000 -2.423879
v 0.707107 -0.024537 -2.207107
v 0.707107 0.000000 -2.207107
v 0.783671 0.140809 -1.864285
v 0.783671 0.162209 -1.864285
v 0.847035 0.140809 -1.530519
v 0.847035 0.162209 -1.530519
v 0.783671 0.140809 -1.196753
v 0.783671 0.162209 -1.196753
v 0.707107 -0.024537 -0.792893
v 0.707107 0.000000 -0.792893
v 0.382683 -0.024537 -0.576121
v 0.382683 0.000000 -0.576121
v 0.000000 -0.024537 -0.500000
v 0.000000 0.000000 -0.500000
v -0.382683 -0.024537 -0.576120
v -0.382683 0.000000 -0.576120
v -0.707107 -0.024537 -0.792893
v -0.707107 0.000000 -0.792893
v -0.923880 -0.024537 -1.117316
v -0.923880 0.000000 -1.117316
v -1.000000 -0.024537 -1.500000
v -1.000000 0.000000 -1.500000
v -0.923879 -0.024537 -1.882684
v -0.923879 0.000000 -1.882684
v -0.707107 -0.024537 -2.207107
v -0.707107 0.000000 -2.207107
v -0.707107 0.187128 -2.207107
v -0.382683 0.187128 -2.423880
v -0.460503 0.166163 -2.611754
v -0.850899 0.166163 -2.350900
v -0.382683 -0.024537 -2.423880
v -0.382683 0.000000 -2.423880
v 1.000000 0.187128 -1.500000
v 0.923880 0.187128 -1.882683
v -1.111754 -0.000014 -1.039497
v -1.203353 -0.000014 -1.500000
v 0.850899 -0.000014 -2.350899
v 1.111753 -0.000014 -1.960503
v 0.000000 0.187128 -2.500000
v 0.382683 0.187128 -2.423879
v 0.460503 0.166163 -2.611754
v 0.000000 0.166163 -2.703353
v -0.923879 0.187128 -1.882684
v -1.111753 0.166163 -1.960504
v -0.460503 -0.000014 -2.611754
v 0.000000 -0.000014 -2.703353
v 0.850899 -0.000014 -0.649101
v 0.460503 -0.000014 -0.388247
v -1.000000 0.187128 -1.500000
v -1.203353 0.166163 -1.500000
v -0.923880 0.187128 -1.117316
v -1.111754 0.166163 -1.039497
v -0.850899 -0.000014 -0.649101
v 0.460503 -0.000014 -2.611754
v -0.707107 0.187128 -0.792893
v -0.850899 0.166163 -0.649101
v -0.850899 -0.000014 -2.350900
v 1.111753 -0.000014 -1.039497
v -0.382683 0.187128 -0.576120
v -0.460503 0.166163 -0.388246
v 0.000000 0.187128 -0.500000
v 0.000000 0.166163 -0.296647
v 0.436747 0.561065 -2.514759
v 0.773519 0.727780 -2.291074
v 0.923880 0.187128 -1.117317
v 0.707107 0.187128 -0.792893
v 0.382683 0.187128 -0.576121
v 0.707107 0.187128 -2.207107
v 1.203353 -0.000014 -1.500000
v 1.203353 0.166163 -1.500000
v 1.111753 0.166163 -1.039497
v -0.460503 -0.000014 -0.388246
v 0.850899 0.166163 -2.350899
v 1.111753 0.166163 -1.960503
v 0.000000 -0.000014 -0.296647
v 0.460503 0.166163 -0.388247
v -1.111753 -0.000014 -1.960504
v 0.850899 0.166163 -0.649101
v -0.694525 0.727780 -2.291074
v -0.357753 0.561065 -2.514759
v 0.039497 0.502523 -2.593306
v -0.919550 0.977287 -1.956307
v -0.998567 1.271601 -1.561422
v -0.919550 1.565914 -1.166537
v -0.694525 1.815420 -0.831769
v -0.357753 1.982136 -0.608084
v 0.039497 2.040679 -0.529537
v 0.707107 2.206016 -2.785768
v 0.382684 2.422788 -2.785768
v -0.923879 1.116225 -2.997250
v -0.707107 0.791802 -2.997250
v -0.844036 0.654872 -2.990898
v -1.102787 1.042119 -2.990897
v -0.707106 0.791802 -2.785768
v -0.382683 0.575029 -2.785769
v 0.000000 2.498909 -2.785768
v 0.000000 0.498909 -2.785769
v 0.382684 0.575030 -2.785769
v -0.382683 2.422789 -2.785768
v 0.707107 0.791802 -2.785768
v -0.707107 2.206016 -2.785768
v 0.923880 1.116226 -2.785768
v -0.923879 1.881593 -2.785768
v 1.000000 1.498909 -2.785768
v -1.000000 1.498909 -2.785768
v 0.923880 1.881593 -2.785768
v -0.923879 1.116225 -2.785768
v 0.998543 0.977287 -1.956307
v 1.077561 1.271601 -1.561422
v 0.998543 1.565914 -1.166537
v 0.773519 1.815420 -0.831769
v 0.436747 1.982136 -0.608084
v -0.456789 0.396123 -2.792121
v -0.000000 0.305261 -2.792121
v 0.456789 0.396123 -2.792121
v 0.844036 0.654873 -2.792121
v -1.000000 1.498909 -2.997250
v -1.193647 1.498909 -2.990897
v -0.844036 0.654872 -2.792121
v -0.923880 1.881593 -2.997250
v -1.102787 1.955698 -2.990897
v -1.102787 1.042119 -2.792121
v -0.707107 2.206016 -2.997250
v -0.844036 2.342945 -2.990897
v -1.193647 1.498909 -2.792121
v -0.382683 2.422789 -2.997250
v -0.456789 2.601696 -2.990897
v -1.102787 1.955698 -2.792121
v 0.000000 2.498909 -2.997250
v -0.000000 2.692557 -2.990897
v -0.844036 2.342945 -2.792121
v 0.382684 2.422788 -2.997250
v 0.456789 2.601696 -2.990897
v -0.456789 2.601696 -2.792121
v -0.382683 0.575029 -2.997251
v 0.707107 2.206016 -2.997250
v 0.923880 1.881593 -2.997250
v 1.000000 1.498909 -2.997250
v 0.923880 1.116226 -2.997250
v 0.707107 0.791802 -2.997250
v 0.382683 0.575030 -2.997251
v 0.000000 0.498909 -2.997251
v 0.456789 2.601696 -2.792121
v 0.844036 2.342945 -2.792121
v 0.844036 2.342945 -2.990897
v -0.456789 0.396123 -2.990898
v -0.000000 2.692557 -2.792121
v -0.000000 0.305261 -2.990897
v 0.456789 0.396123 -2.990898
v 0.844036 0.654873 -2.990898
v 1.102787 1.042120 -2.792121
v 1.102787 1.042120 -2.990897
v 1.193647 1.498909 -2.792121
v 1.193647 1.498909 -2.990897
v 1.102787 1.955698 -2.792121
v 1.102787 1.955698 -2.990897
vt 1.000000 0.500000
vt 1.000000 1.000000
vt 0.937500 1.000000
vt 0.937500 0.500000
vt 0.875000 1.000000
vt 0.875000 0.500000
vt 0.812500 1.000000
vt 0.812500 0.500000
vt 0.750000 1.000000
vt 0.750000 0.500000
vt 0.687500 1.000000
vt 0.687500 0.500000
vt 0.625000 1.000000
vt 0.625000 0.500000
vt 0.562500 1.000000
vt 0.562500 0.500000
vt 0.500000 1.000000
vt 0.500000 0.500000
vt 0.437500 1.000000
vt 0.437500 0.500000
vt 0.375000 1.000000
vt 0.375000 0.500000
vt 0.312500 1.000000
vt 0.312500 0.500000
vt 0.250000 1.000000
vt 0.250000 0.500000
vt 0.187500 1.000000
vt 0.187500 0.500000
vt 0.125000 1.000000
vt 0.125000 0.500000
vt 0.125000 1.000000
vt 0.062500 1.000000
vt 0.062500 1.000000
vt 0.125000 1.000000
vt 0.062500 1.000000
vt 0.062500 0.500000
vt 0.000000 1.000000
vt 0.000000 0.500000
vt 0.750000 0.490000
vt 0.841844 0.471731
vt 0.919706 0.419706
vt 0.971731 0.341844
vt 0.990000 0.250000
vt 0.971731 0.158156
vt 0.919706 0.080294
vt 0.841844 0.028269
vt 0.750000 0.010000
vt 0.658156 0.028269
vt 0.580294 0.080294
vt 0.528269 0.158156
vt 0.510000 0.250000
vt 0.528269 0.341844
vt 0.580294 0.419706
vt 0.658156 0.471731
vt 0.875000 1.000000
vt 0.937500 1.000000
vt 0.937500 1.000000
vt 0.875000 1.000000
vt 0.312500 1.000000
vt 0.250000 1.000000
vt 0.875000 1.000000
vt 0.812500 1.000000
vt 1.000000 1.000000
vt 0.937500 1.000000
vt 1.000000 1.000000
vt 0.187500 1.000000
vt 0.187500 1.000000
vt 0.062500 1.000000
vt 0.000000 1.000000
vt 0.625000 1.000000
vt 0.562500 1.000000
vt 0.250000 1.000000
vt 0.250000 1.000000
vt 0.312500 1.000000
vt 0.312500 1.000000
vt 0.375000 1.000000
vt 0.937500 1.000000
vt 0.375000 1.000000
vt 0.375000 1.000000
vt 0.125000 1.000000
vt 0.687500 1.000000
vt 0.437500 1.000000
vt 0.437500 1.000000
vt 0.500000 1.000000
vt 0.500000 1.000000
vt 0.312500 1.000000
vt 0.250000 1.000000
vt 0.750000 1.000000
vt 0.750000 1.000000
vt 0.687500 1.000000
vt 0.687500 1.000000
vt 0.187500 1.000000
vt 0.625000 1.000000
vt 0.625000 1.000000
vt 0.125000 1.000000
vt 0.562500 1.000000
vt 0.562500 1.000000
vt 0.062500 1.000000
vt 0.500000 1.000000
vt 1.000000 1.000000
vt 0.000000 1.000000
vt 0.000000 1.000000
vt 0.437500 1.000000
vt 0.375000 1.000000
vt 0.812500 1.000000
vt 0.812500 1.000000
vt 0.875000 1.000000
vt 0.812500 1.000000
vt 0.750000 1.000000
vt 0.750000 1.000000
vt 0.687500 1.000000
vt 0.437500 1.000000
vt 0.875000 1.000000
vt 0.812500 1.000000
vt 0.500000 1.000000
vt 0.562500 1.000000
vt 1.000000 1.000000
vt 0.187500 1.000000
vt 0.625000 1.000000
vt 0.000000 1.000000
vt 0.750000 1.000000
vt 0.375000 1.000000
vt 0.312500 1.000000
vt 0.437500 1.000000
vt 0.500000 1.000000
vt 0.562500 1.000000
vt 0.625000 1.000000
vt 0.937500 1.000000
vt 0.687500 1.000000
vt 0.187500 1.000000
vt 0.125000 1.000000
vt 0.062500 1.000000
vt 1.000000 1.000000
vt 0.000000 1.000000
vt 0.187500 1.000000
vt 0.125000 1.000000
vt 0.125000 1.000000
vt 0.187500 1.000000
vt 0.250000 1.000000
vt 0.062500 1.000000
vt 0.000000 1.000000
vt 0.937500 1.000000
vt 0.875000 1.000000
vt 0.250000 1.000000
vt 0.250000 1.000000
vt 0.125000 1.000000
vt 1.000000 1.000000
vt 0.312500 1.000000
vt 0.312500 1.000000
vt 0.187500 1.000000
vt 0.375000 1.000000
vt 0.375000 1.000000
vt 0.250000 1.000000
vt 0.437500 1.000000
vt 0.437500 1.000000
vt 0.312500 1.000000
vt 0.500000 1.000000
vt 0.500000 1.000000
vt 0.375000 1.000000
vt 0.562500 1.000000
vt 0.562500 1.000000
vt 0.437500 1.000000
vt 0.062500 1.000000
vt 0.625000 1.000000
vt 0.687500 1.000000
vt 0.750000 1.000000
vt 0.812500 1.000000
vt 0.875000 1.000000
vt 0.937500 1.000000
vt 0.000000 1.000000
vt 0.562500 1.000000
vt 0.625000 1.000000
vt 0.625000 1.000000
vt 0.062500 1.000000
vt 0.500000 1.000000
vt 1.000000 1.000000
vt 0.937500 1.000000
vt 0.000000 1.000000
vt 0.875000 1.000000
vt 0.812500 1.000000
vt 0.812500 1.000000
vt 0.750000 1.000000
vt 0.750000 1.000000
vt 0.687500 1.000000
vt 0.687500 1.000000
vt 1.000000 1.000000
vn -0.1951 0.0000 0.9808
vn -0.5556 0.0000 0.8315
vn -0.9760 0.0000 0.2180
vn -0.9825 0.0000 0.1865
vn -0.9825 0.0000 -0.1865
vn -0.9825 0.0000 -0.1863
vn -0.5556 0.0000 -0.8315
vn -0.1951 0.0000 -0.9808
vn 0.1951 0.0000 -0.9808
vn 0.5556 0.0000 -0.8315
vn 0.8315 0.0000 -0.5556
vn 0.9808 0.0000 -0.1951
vn 0.9808 0.0000 0.1951
vn 0.8315 0.0000 0.5556
vn -0.0581 0.9945 -0.0869
vn 0.5556 0.0000 0.8315
vn 0.1951 0.0000 0.9808
vn 0.0582 -0.9983 -0.0000
vn 0.5789 -0.2260 -0.7835
vn -0.1197 -0.9925 0.0238
vn -0.1024 -0.9592 0.2634
vn 0.0204 0.9945 -0.1025
vn -0.0869 0.9945 -0.0581
vn -0.0238 -0.9925 -0.1197
vn 0.0678 -0.9925 0.1015
vn -0.1025 0.9945 -0.0204
vn -0.1025 0.9945 0.0204
vn -0.1015 -0.9925 0.0678
vn 0.0678 -0.9925 -0.1015
vn -0.0869 0.9945 0.0581
vn -0.0678 -0.9925 -0.1015
vn -0.0865 -0.9674 -0.2381
vn -0.0581 0.9945 0.0869
vn -0.0204 0.9945 0.1025
vn -0.9814 0.0109 0.1917
vn 0.9756 -0.0507 0.2138
vn -0.9814 -0.0108 -0.1917
vn 0.8266 -0.0223 0.5624
vn -0.8387 -0.0535 -0.5419
vn 0.5540 -0.0023 0.8325
vn -0.5723 -0.1313 -0.8095
vn 0.1953 0.0115 0.9807
vn 0.2069 -0.2787 -0.9378
vn -0.2060 -0.2346 -0.9500
vn -0.1959 0.0200 0.9804
vn -0.5583 0.0233 0.8293
vn 0.8466 -0.1502 -0.5106
vn -0.8341 0.0208 0.5512
vn 0.8264 -0.5368 -0.1703
vn -0.9808 0.0000 -0.1951
vn -0.8315 0.0000 0.5556
vn -0.8315 0.0000 -0.5556
vn -0.9808 0.0000 0.1951
vn 0.0581 0.9945 -0.0869
vn -0.0204 0.9945 -0.1025
vn 0.0238 -0.9925 0.1197
vn 0.0869 0.9945 -0.0581
vn 0.1025 0.9945 -0.0204
vn -0.3736 -0.9247 0.0729
vn -0.1197 -0.9925 -0.0238
vn 0.1025 0.9945 0.0204
vn -0.0238 -0.9925 0.1197
vn 0.0869 0.9945 0.0581
vn 0.0581 0.9945 0.0869
vn -0.3629 -0.9291 -0.0708
vn -0.1015 -0.9925 -0.0678
vn 0.0238 -0.9925 -0.1197
vn 0.0204 0.9945 0.1025
vn -0.0678 -0.9925 0.1015
vn 0.9810 -0.1652 -0.1022
vn -0.8185 0.5629 0.1151
vn -0.5370 0.8261 0.1711
vn -0.1861 0.9624 0.1978
vn 0.1857 0.9638 0.1915
vn 0.5338 0.8319 0.1518
vn 0.5366 -0.8268 -0.1686
vn 0.9736 0.2281 -0.0086
vn 0.8123 0.5774 0.0821
vn -0.8116 -0.5790 -0.0784
vn -0.5163 -0.8542 -0.0617
vn 0.1755 -0.9828 -0.0574
vn -0.1700 -0.9854 0.0016
vn -0.0278 -0.0186 -0.9994
vn -0.9788 0.2008 0.0403
vn -0.0065 -0.0328 0.9994
vn 0.0186 -0.0278 0.9994
vn -0.0328 -0.0065 -0.9994
vn -0.0186 -0.0278 0.9994
vn 0.0065 -0.0328 0.9994
vn -0.0328 0.0065 -0.9994
vn -0.0278 -0.0186 0.9994
vn -0.0278 0.0186 -0.9994
vn -0.0328 -0.0065 0.9994
vn -0.0186 0.0278 -0.9994
vn -0.0328 0.0065 0.9994
vn -0.0065 0.0328 -0.9994
vn -0.0278 0.0186 0.9994
vn 0.0065 0.0328 -0.9994
vn -0.0186 0.0278 0.9994
vn 0.0000 0.0000 -1.0000
vn -0.8315 -0.5556 0.0000
vn 0.5556 0.8315 0.0000
vn -0.5556 -0.8315 0.0000
vn 0.1951 0.9808 0.0000
vn 0.1951 -0.9808 -0.0000
vn -0.1951 -0.9808 -0.0000
vn -0.1951 0.9808 0.0000
vn 0.5556 -0.8315 0.0000
vn -0.5556 0.8315 0.0000
vn 0.8315 -0.5556 0.0000
vn -0.8315 0.5556 0.0000
vn 0.9808 -0.1951 0.0000
vn -0.9808 0.1951 0.0000
vn 0.9808 0.1951 0.0000
vn -0.9808 -0.1951 0.0000
vn 0.8315 0.5556 0.0000
vn 0.0278 -0.0186 0.9994
vn 0.0065 -0.0328 -0.9994
vn -0.0186 -0.0278 -0.9994
vn 0.0328 -0.0065 0.9994
vn 0.0186 -0.0278 -0.9994
vn -0.0065 -0.0328 -0.9994
vn 0.0328 0.0065 0.9994
vn 0.0278 -0.0186 -0.9994
vn 0.0278 0.0186 0.9994
vn 0.0328 -0.0065 -0.9994
vn 0.0186 0.0278 0.9994
vn 0.0328 0.0065 -0.9994
vn 0.0065 0.0328 0.9994
vn 0.0278 0.0186 -0.9994
vn -0.0065 0.0328 0.9994
vn 0.0186 0.0278 -0.9994
vn 0.9826 -0.0914 -0.1614
vn -0.9783 -0.2045 -0.0337
usemtl None.002
s 1
f 1/1/1 2/2/1 3/3/1 4/4/1
f 4/4/2 3/3/2 5/5/2 6/6/2
f 6/6/3 5/5/3 7/7/3 8/8/3
f 8/8/4 7/7/4 9/9/4 10/10/4
f 10/10/5 9/9/5 11/11/5 12/12/5
f 12/12/6 11/11/6 13/13/6 14/14/6
f 14/14/7 13/13/7 15/15/7 16/16/7
f 16/16/8 15/15/8 17/17/8 18/18/8
f 18/18/9 17/17/9 19/19/9 20/20/9
f 20/20/10 19/19/10 21/21/10 22/22/10
f 22/22/11 21/21/11 23/23/11 24/24/11
f 24/24/12 23/23/12 25/25/12 26/26/12
f 26/26/13 25/25/13 27/27/13 28/28/13
f 28/28/14 27/27/14 29/29/14 30/30/14
f 31/31/15 32/32/15 33/33/15 34/34/15
f 30/30/16 29/29/16 35/35/16 36/36/16
f 36/36/17 35/35/17 2/37/17 1/38/17
f 1/39/18 4/40/18 6/41/18 8/42/18 10/43/18 12/44/18 14/45/18 16/46/18 18/47/18 20/48/18 22/49/18 24/50/18 26/51/18 28/52/18 30/53/18 36/54/18
f 72/55/19 44/56/19 67/57/19 68/58/19
f 25/25/20 23/23/20 39/59/20 40/60/20
f 7/7/21 5/5/21 41/61/21 42/62/21
f 43/63/22 44/56/22 45/64/22 46/65/22
f 47/66/23 31/31/23 34/34/23 48/67/23
f 2/37/24 35/35/24 49/68/24 50/69/24
f 15/15/25 13/13/25 51/70/25 52/71/25
f 53/72/26 47/66/26 48/67/26 54/73/26
f 55/74/27 53/72/27 54/73/27 56/75/27
f 23/23/28 21/21/28 57/76/28 39/59/28
f 5/5/29 3/3/29 58/77/29 41/61/29
f 59/78/30 55/74/30 56/75/30 60/79/30
f 35/35/31 29/29/31 61/80/31 49/68/31
f 13/13/32 11/11/32 62/81/32 51/70/32
f 63/82/33 59/78/33 60/79/33 64/83/33
f 65/84/34 63/82/34 64/83/34 66/85/34
f 55/74/35 88/86/35 87/87/35 53/72/35
f 37/88/36 113/89/36 114/90/36 69/91/36
f 53/72/37 87/87/37 86/92/37 47/66/37
f 69/91/38 114/90/38 115/93/38 70/94/38
f 47/66/39 86/92/39 83/95/39 31/31/39
f 70/94/40 115/93/40 116/96/40 71/97/40
f 31/31/41 83/95/41 84/98/41 32/32/41
f 71/97/42 116/96/42 91/99/42 65/84/42
f 43/63/43 85/100/43 67/57/43 44/56/43
f 32/32/44 84/98/44 85/101/44 43/102/44
f 65/84/45 91/99/45 90/103/45 63/82/45
f 63/82/46 90/103/46 89/104/46 59/78/46
f 68/58/47 112/105/47 38/106/47 72/55/47
f 59/78/48 89/104/48 88/86/48 55/74/48
f 112/105/49 68/58/49 104/107/49 106/108/49
f 62/81/13 73/109/13 74/110/13 75/111/13
f 57/76/2 76/112/2 64/83/2 60/79/2
f 49/68/7 61/80/7 34/34/7 33/33/7
f 42/62/11 41/61/11 77/113/11 78/114/11
f 79/115/17 52/71/17 80/116/17 66/85/17
f 58/77/9 50/117/9 46/65/9 45/64/9
f 81/118/50 40/60/50 54/73/50 48/67/50
f 51/70/14 62/81/14 75/111/14 82/119/14
f 39/59/51 57/76/51 60/79/51 56/75/51
f 50/69/8 49/68/8 33/33/8 46/120/8
f 73/109/12 42/62/12 78/114/12 74/110/12
f 76/112/1 79/115/1 66/85/1 64/83/1
f 61/80/52 81/118/52 48/67/52 34/34/52
f 41/61/10 58/77/10 45/64/10 77/113/10
f 52/71/16 51/70/16 82/119/16 80/116/16
f 40/60/53 39/59/53 56/75/53 54/73/53
f 44/56/54 72/55/54 77/113/54 45/64/54
f 32/32/55 43/102/55 46/120/55 33/33/55
f 17/17/56 15/15/56 52/71/56 79/115/56
f 72/55/57 38/106/57 78/114/57 77/113/57
f 38/106/58 37/88/58 74/110/58 78/114/58
f 9/9/59 7/7/59 42/62/59 73/109/59
f 27/27/60 25/25/60 40/60/60 81/118/60
f 37/88/61 69/91/61 75/111/61 74/110/61
f 19/19/62 17/17/62 79/115/62 76/112/62
f 69/91/63 70/94/63 82/119/63 75/111/63
f 70/94/64 71/97/64 80/116/64 82/119/64
f 11/11/65 9/9/65 73/109/65 62/81/65
f 29/29/66 27/27/66 81/118/66 61/80/66
f 3/3/67 2/2/67 50/117/67 58/77/67
f 71/97/68 65/84/68 66/85/68 80/116/68
f 21/21/69 19/19/69 76/112/69 57/76/69
f 113/89/70 112/105/70 106/108/70 108/121/70
f 88/86/71 89/104/71 105/122/71 107/123/71
f 89/104/72 90/103/72 103/124/72 105/122/72
f 90/103/73 91/99/73 100/125/73 103/124/73
f 91/99/74 116/96/74 93/126/74 100/125/74
f 116/96/75 115/93/75 92/127/75 93/126/75
f 68/58/76 67/57/76 102/128/76 104/107/76
f 114/90/77 113/89/77 108/121/77 110/129/77
f 115/93/78 114/90/78 110/129/78 92/127/78
f 83/95/79 86/92/79 111/130/79 98/131/79
f 84/98/80 83/95/80 98/131/80 99/132/80
f 67/57/81 85/100/81 101/133/81 102/128/81
f 85/101/82 84/98/82 99/132/82 101/134/82
f 94/135/83 95/136/83 96/137/83 97/138/83
f 87/87/84 88/86/84 107/123/84 109/139/84
f 101/134/85 99/132/85 117/140/85 118/141/85
f 104/107/86 102/128/86 119/142/86 120/143/86
f 121/144/87 94/135/87 97/138/87 122/145/87
f 99/132/88 98/131/88 123/146/88 117/140/88
f 102/128/89 101/133/89 118/147/89 119/142/89
f 124/148/90 121/144/90 122/145/90 125/149/90
f 98/131/91 111/130/91 126/150/91 123/146/91
f 127/151/92 124/148/92 125/149/92 128/152/92
f 111/130/93 109/139/93 129/153/93 126/150/93
f 130/154/94 127/151/94 128/152/94 131/155/94
f 109/139/95 107/123/95 132/156/95 129/153/95
f 133/157/96 130/154/96 131/155/96 134/158/96
f 107/123/97 105/122/97 135/159/97 132/156/97
f 136/160/98 133/157/98 134/158/98 137/161/98
f 105/122/99 103/124/99 138/162/99 135/159/99
f 139/163/100 95/136/100 94/135/100 121/144/100 124/148/100 127/151/100 130/154/100 133/157/100 136/160/100 140/164/100 141/165/100 142/166/100 143/167/100 144/168/100 145/169/100 146/170/100
f 123/146/101 126/150/101 97/138/101 96/137/101
f 147/171/102 148/172/102 149/173/102 137/161/102
f 117/140/103 123/146/103 96/137/103 150/174/103
f 151/175/104 147/171/104 137/161/104 134/158/104
f 119/142/105 118/147/105 152/176/105 153/177/105
f 118/141/106 117/140/106 150/174/106 152/178/106
f 138/162/107 151/175/107 134/158/107 131/155/107
f 120/143/108 119/142/108 153/177/108 154/179/108
f 135/159/109 138/162/109 131/155/109 128/152/109
f 155/180/110 120/143/110 154/179/110 156/181/110
f 132/156/111 135/159/111 128/152/111 125/149/111
f 157/182/112 155/180/112 156/181/112 158/183/112
f 129/153/113 132/156/113 125/149/113 122/145/113
f 159/184/114 157/182/114 158/183/114 160/185/114
f 126/150/115 129/153/115 122/145/115 97/138/115
f 148/172/116 159/184/116 160/185/116 149/173/116
f 106/108/117 104/107/117 120/143/117 155/180/117
f 146/186/118 145/169/118 153/177/118 152/176/118
f 95/136/119 139/163/119 150/174/119 96/137/119
f 108/121/120 106/108/120 155/180/120 157/182/120
f 145/169/121 144/168/121 154/179/121 153/177/121
f 139/163/122 146/170/122 152/178/122 150/174/122
f 110/129/123 108/121/123 157/182/123 159/184/123
f 144/168/124 143/167/124 156/181/124 154/179/124
f 92/127/125 110/129/125 159/184/125 148/172/125
f 143/167/126 142/166/126 158/183/126 156/181/126
f 93/126/127 92/127/127 148/172/127 147/171/127
f 142/166/128 141/165/128 160/185/128 158/183/128
f 100/125/129 93/126/129 147/171/129 151/175/129
f 141/165/130 140/164/130 149/173/130 160/185/130
f 103/124/131 100/125/131 151/175/131 138/162/131
f 140/164/132 136/160/132 137/161/132 149/173/132
f 38/106/133 112/105/133 113/89/133 37/88/133
f 109/139/134 111/130/134 86/92/134 87/87/134
