# Blender v2.90.0 OBJ File: ''
# www.blender.org
mtllib concrete_wall_large_outer_corner.mtl
o Cube.003
v 0.112612 3.984589 -2.579535
v 0.016636 3.984589 -2.005415
v 0.114188 3.984589 -2.005415
v 0.016636 3.411417 -2.005415
v 0.114188 3.411417 -2.005415
v 0.016636 3.984590 -5.431208
v 0.016636 3.411417 -6.005415
v 0.016636 3.411417 -5.431208
v 1.501250 3.894569 -1.456005
v 0.748928 3.411417 -0.665596
v 1.501250 3.321397 -1.456005
v 1.216636 3.984590 -6.005415
v 0.112262 3.984590 -5.431119
v 1.216636 3.984590 -5.431208
v 1.216636 3.411417 -5.431208
v 1.216636 3.411417 -6.005415
v 1.367950 3.368421 -2.313407
v 0.109212 0.703984 -6.005415
v 1.216636 -0.015410 -6.005415
v 0.109212 -0.015410 -6.005415
v 1.216636 -0.015410 -5.431208
v 0.512188 -0.015410 -5.431208
v 0.016636 3.411417 -2.579623
v 1.216636 3.984589 -3.720257
v 0.112542 3.984589 -3.149853
v 1.216636 3.984589 -3.149939
v 0.109212 3.984590 -6.005415
v 0.403532 0.984564 -5.431208
v 0.112262 -0.015410 -5.431119
v 0.112262 0.703984 -5.431119
v 0.109212 3.411417 -6.005415
v 0.109212 2.057702 -6.005415
v 1.216636 0.703984 -6.005415
v 0.340068 2.057701 -1.247625
v 0.340068 3.411417 -1.247625
v 0.112612 2.057701 -2.579536
v 0.403880 3.130837 -2.579623
v 0.403880 2.057701 -2.579623
v 0.403602 3.130838 -4.860891
v 0.403532 2.057702 -5.431208
v 0.403602 2.057701 -4.860891
v 0.016636 2.057701 -2.579623
v 0.016636 2.057701 -2.005416
v 1.367950 2.014705 -2.313408
v 1.501250 1.967681 -1.456005
v 1.216636 2.057702 -5.431208
v 1.216636 2.057702 -6.005415
v 0.748928 2.057701 -0.665596
v 0.016636 2.057702 -6.005415
v 0.016636 2.057702 -5.431208
v 0.114188 2.057701 -2.005416
v 0.114188 0.703983 -2.005416
v 0.016636 -0.015411 -2.005416
v 0.114188 -0.015411 -2.005416
v 0.016636 0.703984 -5.431208
v 0.016636 -0.015410 -6.005415
v 0.016636 -0.015410 -5.431208
v 1.501250 0.613963 -1.456006
v 0.748928 -0.015411 -0.665596
v 1.501250 -0.105431 -1.456006
v 0.340068 -0.015411 -1.247626
v 0.340068 0.703983 -1.247626
v 1.367950 -0.058407 -2.313408
v 0.016636 0.703983 -2.005416
v 0.016636 -0.015411 -2.579624
v 0.112332 0.703983 -4.860804
v 0.403602 0.984564 -4.860892
v 2.590844 -0.015411 -0.065096
v 2.590932 0.703983 -0.160722
v 2.590844 0.703983 -0.065096
v 0.112290 2.057702 -5.431163
v 0.112376 3.411417 -4.860873
v 0.112316 3.411417 -5.431208
v 0.112332 -0.015410 -4.860804
v 0.403880 0.984563 -2.579623
v 0.112612 0.703983 -2.579536
v 0.112612 -0.015411 -2.579536
v 0.112332 3.984589 -4.860804
v 1.216636 3.984589 -4.860891
v 0.403810 3.130837 -3.149940
v 0.112612 3.411417 -2.579535
v 0.112552 3.411417 -3.149869
v 0.016636 0.703984 -6.005415
v 0.016636 3.984590 -6.005415
v 0.016636 0.703983 -2.579624
v 0.016636 3.984589 -2.579623
v 0.403532 3.130838 -5.431208
v 0.403810 0.984563 -3.149940
v 0.031194 0.984563 -3.149820
v 0.112542 0.703983 -3.149854
v 0.403672 3.130838 -4.290573
v 0.112494 3.411417 -3.720205
v 0.112434 3.411417 -4.290539
v 0.112402 0.703983 -4.290486
v 0.403672 0.984563 -4.290574
v 0.031054 0.984563 -4.290453
v 1.216636 3.984589 -4.290573
v 0.112472 3.984589 -3.720169
v 0.112402 3.984589 -4.290485
v 1.216636 -0.015410 -4.860892
v 0.112402 -0.015411 -4.290486
v 1.216636 -0.015411 -4.290574
v 0.112472 -0.015411 -3.720170
v 1.216636 -0.015411 -3.720258
v 0.112542 -0.015411 -3.149854
v 0.112472 0.703983 -3.720170
v 0.030984 0.984564 -4.860770
v 0.403742 0.984563 -3.720258
v 0.031194 3.130837 -3.149819
v 0.031124 3.130838 -3.720135
v 1.216636 0.703984 -5.431208
v 1.216636 0.703983 -4.860892
v 1.216636 0.703983 -4.290574
v 1.216636 0.703983 -3.720258
v 1.216636 -0.015411 -3.149940
v 1.216636 2.057701 -4.860891
v 1.216636 3.411417 -4.860891
v 1.216636 2.057701 -4.290573
v 1.216636 3.411417 -4.290573
v 1.216636 2.057701 -3.720258
v 1.216636 3.411417 -3.720257
v 1.216636 2.057701 -3.149940
v 0.403810 2.057701 -3.149940
v 0.403742 3.130838 -3.720257
v 0.403672 2.057701 -4.290573
v 0.403742 2.057701 -3.720258
v 0.221532 2.057701 -3.149820
v 1.216636 3.411417 -3.149940
v 0.221462 2.057701 -3.720135
v 0.031054 3.130838 -4.290453
v 0.221322 2.057701 -4.860769
v 0.221392 2.057701 -4.290453
v 0.030984 3.130838 -4.860769
v 0.031124 0.984563 -3.720135
v 1.216636 0.703983 -3.149940
v 0.748928 0.703983 -0.665596
v 1.367950 0.660987 -2.313408
v 0.340068 3.984589 -1.247625
v 5.442516 3.984589 -0.161071
v 6.016636 3.984589 -0.065095
v 6.016636 3.984589 -0.162649
v 6.016636 3.411417 -0.065095
v 6.016636 3.411417 -0.162649
v 2.590844 3.984589 -0.065095
v 2.016636 3.411417 -0.065095
v 2.590844 3.411417 -0.065095
v 5.442429 3.984589 -1.265095
v 6.016636 3.984589 -1.265095
v 6.016636 3.411417 -1.265095
v 5.442429 3.411417 -1.265095
v 4.872110 3.984589 -1.265095
v 4.872110 3.411417 -1.265095
v 1.322634 0.703983 -0.287564
v 1.322634 -0.015411 -0.287564
v 5.442429 3.411417 -0.065095
v 4.301882 3.984589 -0.160931
v 4.301795 3.984589 -1.265095
v 2.016636 3.984589 -0.157671
v 2.590932 3.984589 -0.160721
v 1.322634 3.984589 -0.287563
v 1.322634 3.411417 -0.287563
v 1.322634 2.057701 -0.287563
v 6.016636 2.057701 -1.265096
v 5.442516 2.057701 -0.161072
v 5.442429 3.130837 -0.452342
v 5.442429 2.057701 -0.452342
v 3.161160 3.130837 -0.452061
v 2.590844 2.057701 -0.451992
v 3.161160 2.057701 -0.452062
v 5.442429 2.057701 -0.065096
v 6.016636 2.057701 -0.065096
v 5.442429 2.057701 -1.265096
v 4.872110 2.057701 -1.265096
v 2.016636 2.057701 -0.065096
v 2.590844 2.057701 -0.065096
v 6.016636 2.057701 -0.162650
v 6.016636 0.703983 -0.162650
v 6.016636 -0.015411 -0.065096
v 6.016636 -0.015411 -0.162650
v 2.016636 -0.015411 -0.065096
v 5.442429 0.703983 -1.265096
v 6.016636 -0.015411 -1.265096
v 5.442429 -0.015411 -1.265096
v 6.016636 0.703983 -1.265096
v 4.872110 0.703983 -1.265096
v 4.872110 -0.015411 -1.265096
v 6.016636 0.703983 -0.065096
v 5.442429 -0.015411 -0.065096
v 3.161160 0.984563 -0.452062
v 3.161248 0.703983 -0.160792
v 5.442429 -0.015411 -0.560998
v 2.590888 2.057701 -0.160750
v 3.161178 3.411417 -0.160835
v 2.590844 3.411417 -0.160777
v 2.590932 -0.015411 -0.160722
v 3.161248 -0.015411 -0.160792
v 5.442516 0.703983 -0.161072
v 5.442516 -0.015411 -0.161072
v 4.872180 3.411417 -0.161013
v 4.872110 3.130837 -0.452271
v 2.016636 0.703983 -0.065096
v 2.016636 -0.015411 -0.157672
v 2.590844 0.984563 -0.451992
v 2.016636 2.057701 -0.157672
v 2.016636 3.984589 -0.065095
v 2.016636 3.411417 -0.157671
v 5.442429 0.703983 -0.065096
v 5.442429 3.984589 -0.065095
v 5.442516 3.411417 -0.161071
v 2.590844 3.130837 -0.451992
v 4.872110 0.984563 -0.452272
v 4.872234 0.984563 -0.079656
v 4.872199 0.703983 -0.161002
v 4.301795 3.130837 -0.452201
v 3.731512 3.411417 -0.160895
v 3.731478 3.130837 -0.452131
v 3.731566 0.703983 -0.160862
v 3.731478 0.984563 -0.452132
v 3.731600 0.984563 -0.079516
v 3.731566 3.984589 -0.160861
v 3.731478 3.984589 -1.265095
v 3.161248 3.984589 -0.160791
v 3.161160 3.984589 -1.265095
v 3.731478 -0.015411 -1.265096
v 3.731566 -0.015411 -0.160862
v 4.301795 -0.015411 -1.265096
v 4.301882 -0.015411 -0.160932
v 4.872199 -0.015411 -0.161002
v 4.872199 3.984589 -0.161001
v 4.301882 0.703983 -0.160932
v 4.301847 3.411417 -0.160953
v 5.442429 0.984563 -0.452342
v 3.161282 0.984563 -0.079444
v 4.301795 0.984563 -0.452202
v 4.301917 3.130837 -0.079586
v 2.342870 0.661583 -1.374066
v 3.161160 -0.015411 -1.265096
v 2.342870 -0.057811 -1.374066
v 3.161160 0.703983 -1.265096
v 3.731478 0.703983 -1.265096
v 4.301795 0.703983 -1.265096
v 2.342870 3.369017 -1.374065
v 3.161160 2.057701 -1.265096
v 2.342870 2.015299 -1.374066
v 3.161160 3.411417 -1.265095
v 3.731478 2.057701 -1.265096
v 3.731478 3.411417 -1.265095
v 4.301795 2.057701 -1.265096
v 4.301795 3.411417 -1.265095
v 4.872110 2.057701 -0.452272
v 4.872234 3.130837 -0.079655
v 3.731478 2.057701 -0.452132
v 4.301795 2.057701 -0.452202
v 4.872234 2.057701 -0.269992
v 2.342202 3.942139 -1.374043
v 4.301917 2.057701 -0.269922
v 3.731600 3.130837 -0.079515
v 3.161282 2.057701 -0.269782
v 3.731600 2.057701 -0.269852
v 3.161282 3.130837 -0.079443
v 4.301917 0.984563 -0.079586
v 2.016636 0.703983 -0.157672
v 1.367690 3.942141 -2.321073
v 0.748928 3.984589 -0.665595
vn -0.0000 1.0000 0.0000
vn 0.0000 -0.0000 1.0000
vn -1.0000 0.0000 0.0000
vn 0.7243 -0.0000 0.6894
vn 1.0000 0.0000 0.0000
vn 0.9882 -0.0005 -0.1533
vn 0.9883 -0.0014 -0.1528
vn 0.9881 0.0000 -0.1536
vn 0.0000 0.0000 -1.0000
vn 0.0000 -1.0000 -0.0000
vn -0.0006 -0.0000 1.0000
vn -0.0002 -0.0002 1.0000
vn -0.0009 0.0000 1.0000
vn -0.0003 -0.0000 -1.0000
vn -0.0002 -0.0000 -1.0000
vn -0.9583 -0.0000 0.2857
vn 0.0003 0.0000 -1.0000
vn -1.0000 0.0000 0.0001
vn -0.6938 0.7202 0.0001
vn 1.0000 0.0000 0.0009
vn 1.0000 0.0000 0.0007
vn -0.0005 0.0000 1.0000
vn -0.0007 0.0000 1.0000
vn -0.0002 0.0000 1.0000
vn -1.0000 -0.0001 0.0001
vn 0.0003 0.0000 1.0000
vn -0.6938 -0.7202 0.0001
vn 0.0002 -0.0000 1.0000
vn 0.0009 0.0000 -1.0000
vn 0.0007 0.0000 -1.0000
vn -0.6938 -0.7201 0.0001
vn -0.9604 -0.2785 0.0001
vn -0.9604 0.2785 0.0001
vn 0.0003 0.0001 1.0000
vn 0.0006 -0.0000 1.0000
vn 0.0007 -0.0000 1.0000
vn -0.9846 -0.1746 0.0001
vn -0.0004 0.0000 -1.0000
vn -0.0006 0.0000 -1.0000
vn -0.0007 0.0000 -1.0000
vn 0.0003 0.0002 1.0000
vn -0.9604 0.2786 0.0001
vn -0.0003 -0.0003 -1.0000
vn -0.0004 -0.0001 -1.0000
vn -0.0003 -0.0002 -1.0000
vn -0.0003 -0.0001 -1.0000
vn -0.9846 0.1746 0.0001
vn -0.5502 -0.0000 0.8350
vn -0.0343 -0.9994 0.0001
vn 1.0000 -0.0000 0.0005
vn 1.0000 -0.0001 0.0004
vn -1.0000 0.0000 -0.0003
vn -1.0000 -0.0000 0.0003
vn 0.0001 -0.0000 1.0000
vn 0.0001 0.7202 0.6938
vn 1.0000 0.0000 0.0001
vn 0.0001 -0.0001 1.0000
vn 1.0000 0.0000 -0.0002
vn 1.0000 0.0000 -0.0003
vn 0.0001 -0.7202 0.6938
vn -1.0000 0.0000 -0.0009
vn -1.0000 0.0000 -0.0007
vn 0.0001 -0.7201 0.6938
vn 1.0000 -0.0000 -0.0004
vn 0.0001 -0.2785 0.9604
vn 0.0001 0.2785 0.9604
vn 0.1320 0.0000 -0.9912
vn 0.1320 0.0001 -0.9913
vn 1.0000 0.0001 -0.0003
vn 1.0000 0.0001 -0.0004
vn 1.0000 -0.0000 -0.0007
vn 0.1319 0.0001 -0.9913
vn 0.1320 0.0000 -0.9913
vn 0.0001 -0.1746 0.9846
vn -1.0000 0.0000 0.0004
vn -1.0000 -0.0000 0.0007
vn 1.0000 0.0002 -0.0003
vn 0.0001 0.2786 0.9604
vn -1.0000 -0.0003 0.0003
vn -1.0000 -0.0001 0.0004
vn -1.0000 -0.0002 0.0003
vn -1.0000 -0.0001 0.0003
vn 0.0001 0.1746 0.9846
vn 0.0517 -0.9975 0.0486
vn 0.0241 0.9986 0.0467
vn -0.1840 -0.0000 0.9829
vn -0.8183 -0.0000 0.5748
vn 0.9840 0.0000 -0.1780
vn 0.0969 0.0000 -0.9953
vn -0.0243 -0.9986 -0.0469
vn -0.0140 -0.9971 0.0747
vn -0.0734 -0.9971 0.0219
vn 0.9839 -0.0015 -0.1786
vn 0.9838 -0.0002 -0.1791
vn -0.0484 0.9985 -0.0250
vn -0.0517 0.9975 -0.0486
vn 0.0458 0.9978 0.0478
vn 0.0460 0.9965 -0.0697
vn 0.0686 0.9965 -0.0482
vn 0.9883 -0.0016 -0.1527
vn -0.0459 -0.9978 -0.0476
vn 0.1319 0.0000 -0.9913
vn 0.0002 -0.9994 0.0349
vn 0.0970 0.0002 -0.9953
vn 0.0484 -0.9985 0.0250
vn -0.0460 -0.9965 0.0697
vn -0.0686 -0.9965 0.0482
vn 0.9838 0.0000 -0.1793
vn -0.0002 0.9994 -0.0349
vn 0.0338 0.9994 -0.0001
vn 0.0140 0.9971 -0.0747
vn 0.0734 0.9971 -0.0219
usemtl Default_OBJ.002
s 1
f 1//1 2//1 3//1
f 3//2 4//2 5//2
f 6//3 7//3 8//3
f 9//4 10//4 11//4
f 12//1 13//1 14//1
f 12//5 15//5 16//5
f 17//6 9//7 11//8
f 18//9 19//9 20//9
f 19//10 21//10 22//10
f 2//3 23//3 4//3
f 24//1 25//1 26//1
f 27//1 6//1 13//1
f 8//11 13//12 6//13
f 28//14 29//15 30//14
f 27//9 16//9 31//9
f 32//9 33//9 18//9
f 5//16 34//16 35//16
f 36//17 37//14 38//14
f 39//18 40//18 41//18
f 4//3 42//3 43//3
f 44//8 11//8 45//8
f 16//5 46//5 47//5
f 11//4 48//4 45//4
f 8//3 49//3 50//3
f 5//2 43//2 51//2
f 52//2 53//2 54//2
f 55//3 56//3 57//3
f 58//4 59//4 60//4
f 52//16 61//16 62//16
f 33//5 21//5 19//5
f 63//8 58//8 60//8
f 64//3 65//3 53//3
f 28//19 66//19 67//19
f 68//20 69//21 70//20
f 50//22 30//23 71//24
f 72//25 13//25 73//25
f 66//18 29//18 74//18
f 75//26 76//26 77//26
f 14//1 78//1 79//1
f 80//27 81//27 82//27
f 83//9 20//9 56//9
f 71//24 28//26 40//28
f 7//9 32//9 49//9
f 84//9 31//9 7//9
f 20//10 57//10 56//10
f 85//29 77//29 65//29
f 23//29 36//17 42//29
f 77//10 53//10 65//10
f 86//29 81//30 23//29
f 87//31 72//31 73//31
f 88//26 89//26 90//26
f 91//27 92//27 93//27
f 94//26 95//26 96//26
f 97//1 98//1 24//1
f 79//1 99//1 97//1
f 16//9 32//9 31//9
f 100//10 101//10 74//10
f 102//10 103//10 101//10
f 104//10 105//10 103//10
f 76//18 105//18 77//18
f 90//18 103//18 105//18
f 106//18 101//18 103//18
f 94//18 74//18 101//18
f 81//18 25//18 82//18
f 82//18 98//18 92//18
f 92//18 99//25 93//25
f 93//25 78//25 72//25
f 88//19 76//19 75//19
f 66//32 96//32 107//32
f 95//19 106//19 108//19
f 109//33 92//33 110//33
f 111//5 100//5 21//5
f 112//5 102//5 100//5
f 113//5 104//5 102//5
f 114//5 115//5 104//5
f 15//5 116//5 46//5
f 117//5 118//5 116//5
f 119//5 120//5 118//5
f 121//5 122//5 120//5
f 37//18 123//18 38//18
f 82//34 109//34 80//34
f 124//18 125//18 126//18
f 80//34 127//35 123//36
f 14//5 117//5 15//5
f 79//5 119//5 117//5
f 97//5 121//5 119//5
f 24//5 128//5 121//5
f 109//37 129//37 127//37
f 130//37 131//37 132//37
f 67//38 131//39 41//40
f 93//41 130//34 91//34
f 108//38 129//39 126//40
f 130//42 72//42 133//42
f 106//32 89//32 134//32
f 91//34 132//35 125//36
f 72//43 39//44 133//45
f 66//14 107//14 67//38
f 92//45 124//44 110//46
f 95//26 132//35 96//26
f 124//44 129//39 110//46
f 39//44 131//39 133//45
f 96//47 131//47 107//47
f 89//47 129//47 134//47
f 88//26 127//35 89//26
f 126//18 95//18 108//18
f 38//18 88//18 75//18
f 120//5 135//5 114//5
f 118//5 114//5 113//5
f 116//5 113//5 112//5
f 46//5 112//5 111//5
f 42//29 76//30 85//29
f 74//10 22//10 100//10
f 49//9 18//9 83//9
f 71//24 87//2 73//2
f 8//11 71//24 73//2
f 51//2 64//2 52//2
f 55//3 49//3 83//3
f 45//4 136//4 58//4
f 34//16 52//16 62//16
f 47//5 111//5 33//5
f 137//8 45//8 58//8
f 43//3 85//3 64//3
f 41//18 28//18 67//18
f 36//17 75//14 76//30
f 106//14 134//14 108//38
f 3//16 35//16 138//16
f 139//1 140//1 141//1
f 141//5 142//5 143//5
f 144//2 145//2 146//2
f 147//1 141//1 148//1
f 147//9 149//9 150//9
f 151//9 150//9 152//9
f 153//48 59//48 154//48
f 63//49 54//49 77//49
f 140//2 155//2 142//2
f 156//1 151//1 157//1
f 158//1 144//1 159//1
f 146//50 159//51 144//20
f 160//48 10//48 161//48
f 162//48 136//48 153//48
f 143//5 163//5 149//5
f 164//52 165//53 166//53
f 167//54 168//54 169//54
f 142//2 170//2 171//2
f 152//9 172//9 173//9
f 150//9 163//9 172//9
f 146//2 174//2 175//2
f 143//5 171//5 176//5
f 177//5 178//5 179//5
f 70//2 180//2 68//2
f 181//9 182//9 183//9
f 177//5 182//5 184//5
f 185//9 183//9 186//9
f 187//2 188//2 178//2
f 189//55 69//55 190//55
f 186//10 183//10 191//10
f 175//50 69//21 192//56
f 193//57 159//57 194//57
f 190//54 195//54 196//54
f 191//58 197//59 198//58
f 191//10 182//10 179//10
f 165//60 199//60 200//60
f 201//3 202//3 180//3
f 192//56 203//59 168//58
f 145//3 204//3 174//3
f 205//3 206//3 145//3
f 202//10 68//10 180//10
f 207//61 198//61 188//61
f 155//61 164//52 170//61
f 198//10 178//10 188//10
f 208//61 209//62 155//61
f 167//63 194//63 210//63
f 211//64 212//59 213//59
f 214//60 215//60 216//60
f 217//59 218//64 219//59
f 220//1 157//1 221//1
f 222//1 221//1 223//1
f 10//48 162//48 161//48
f 196//10 224//10 225//10
f 225//10 226//10 227//10
f 227//10 186//10 228//10
f 229//1 147//1 151//1
f 197//54 228//54 198//54
f 213//54 227//54 228//54
f 230//54 225//54 227//54
f 217//54 196//54 225//54
f 209//54 229//54 199//54
f 199//54 156//54 231//54
f 231//54 220//57 215//57
f 215//57 222//57 193//57
f 232//55 213//55 197//55
f 217//65 233//65 190//65
f 234//55 217//55 230//55
f 235//66 199//66 231//66
f 236//67 237//67 238//67
f 239//9 224//9 237//9
f 240//9 226//9 224//9
f 241//9 186//9 226//9
f 242//68 243//67 244//67
f 245//9 246//9 243//9
f 247//9 248//9 246//9
f 249//9 173//9 248//9
f 165//54 250//54 166//54
f 199//69 251//69 200//70
f 214//54 252//54 253//54
f 200//70 254//59 250//71
f 255//72 245//73 242//68
f 223//9 247//9 245//9
f 221//9 249//9 247//9
f 157//9 152//9 249//9
f 251//74 256//74 254//74
f 257//74 258//74 259//74
f 189//75 258//53 169//76
f 215//77 257//69 216//70
f 234//75 256//53 253//76
f 260//78 215//78 193//78
f 213//65 261//65 230//65
f 216//70 259//59 252//71
f 193//79 167//80 260//81
f 190//53 233//53 189//75
f 231//81 214//80 235//82
f 218//64 259//59 219//59
f 214//80 256//53 235//82
f 167//80 258//53 260//81
f 219//83 258//83 233//83
f 212//83 256//83 261//83
f 211//64 254//59 212//59
f 253//54 218//54 234//54
f 166//54 211//54 232//54
f 248//9 185//9 241//9
f 246//9 241//9 240//9
f 243//9 240//9 239//9
f 244//67 239//67 236//67
f 170//61 197//62 207//61
f 238//84 202//84 60//84
f 174//3 262//3 201//3
f 192//56 210//5 194//5
f 146//50 192//56 194//5
f 176//5 187//5 177//5
f 175//2 201//2 70//2
f 172//9 184//9 181//9
f 163//5 177//5 184//5
f 173//9 181//9 185//9
f 171//2 207//2 187//2
f 169//54 203//54 189//54
f 164//52 232//53 197//62
f 230//53 261//53 234//75
f 141//5 149//5 148//5
f 26//85 1//85 263//85
f 161//86 204//86 206//86
f 204//86 153//86 262//86
f 158//86 161//86 206//86
f 262//86 154//86 202//86
f 138//87 10//87 264//87
f 48//87 62//87 136//87
f 62//87 59//87 136//87
f 35//87 48//87 10//87
f 135//88 44//88 137//88
f 115//88 137//88 63//88
f 122//88 17//88 44//88
f 45//89 236//89 58//89
f 11//89 244//89 45//89
f 58//89 238//89 60//89
f 9//89 242//89 11//89
f 195//10 237//10 196//10
f 77//90 115//90 63//90
f 154//91 60//91 202//91
f 60//92 61//92 54//92
f 128//93 263//94 17//88
f 159//95 223//95 255//95
f 158//96 255//96 9//96
f 263//97 3//97 9//97
f 160//98 9//98 264//98
f 9//99 138//99 264//99
f 1//1 86//1 2//1
f 3//2 2//2 4//2
f 6//3 84//3 7//3
f 9//4 264//4 10//4
f 12//1 27//1 13//1
f 12//5 14//5 15//5
f 17//6 263//100 9//7
f 18//9 33//9 19//9
f 29//10 20//10 22//10
f 20//10 19//10 22//10
f 2//3 86//3 23//3
f 24//1 98//1 25//1
f 27//1 84//1 6//1
f 8//11 73//2 13//12
f 28//14 22//15 29//15
f 30//23 55//13 57//13
f 57//13 29//13 30//23
f 27//9 12//9 16//9
f 32//9 47//9 33//9
f 5//16 51//16 34//16
f 36//17 81//30 37//14
f 39//18 87//18 40//18
f 4//3 23//3 42//3
f 44//8 17//6 11//8
f 16//5 15//5 46//5
f 11//4 10//4 48//4
f 8//3 7//3 49//3
f 5//2 4//2 43//2
f 52//2 64//2 53//2
f 55//3 83//3 56//3
f 58//4 136//4 59//4
f 52//16 54//16 61//16
f 33//5 111//5 21//5
f 63//8 137//8 58//8
f 64//3 85//3 65//3
f 28//19 30//19 66//19
f 68//20 195//20 69//21
f 50//22 55//13 30//23
f 72//25 78//25 13//25
f 66//18 30//18 29//18
f 14//1 13//1 78//1
f 80//27 37//27 81//27
f 83//9 18//9 20//9
f 71//24 30//23 28//26
f 7//9 31//9 32//9
f 84//9 27//9 31//9
f 20//10 29//10 57//10
f 85//29 76//30 77//29
f 23//29 81//30 36//17
f 77//10 54//10 53//10
f 86//29 1//29 81//30
f 87//31 39//31 72//31
f 91//27 124//27 92//27
f 97//1 99//1 98//1
f 79//1 78//1 99//1
f 16//9 47//9 32//9
f 100//10 102//10 101//10
f 102//10 104//10 103//10
f 104//10 115//10 105//10
f 76//18 90//18 105//18
f 90//18 106//18 103//18
f 106//18 94//18 101//18
f 94//18 66//18 74//18
f 81//18 1//18 25//18
f 82//18 25//18 98//18
f 92//18 98//18 99//25
f 93//25 99//25 78//25
f 88//19 90//19 76//19
f 66//32 94//32 96//32
f 95//19 94//19 106//19
f 109//33 82//33 92//33
f 111//5 112//5 100//5
f 112//5 113//5 102//5
f 113//5 114//5 104//5
f 114//5 135//5 115//5
f 15//5 117//5 116//5
f 117//5 119//5 118//5
f 119//5 121//5 120//5
f 121//5 128//5 122//5
f 37//18 80//18 123//18
f 124//18 91//18 125//18
f 80//34 109//34 127//35
f 14//5 79//5 117//5
f 79//5 97//5 119//5
f 97//5 24//5 121//5
f 24//5 26//5 128//5
f 109//37 110//37 129//37
f 130//37 133//37 131//37
f 67//38 107//14 131//39
f 108//38 134//14 129//39
f 130//42 93//42 72//42
f 106//32 90//32 89//32
f 91//34 130//34 132//35
f 95//26 125//36 132//35
f 124//44 126//40 129//39
f 39//44 41//40 131//39
f 96//47 132//47 131//47
f 89//47 127//47 129//47
f 88//26 123//36 127//35
f 126//18 125//18 95//18
f 38//18 123//18 88//18
f 120//5 122//5 135//5
f 118//5 120//5 114//5
f 116//5 118//5 113//5
f 46//5 116//5 112//5
f 42//29 36//17 76//30
f 29//10 22//10 74//10
f 22//10 21//10 100//10
f 49//9 32//9 18//9
f 71//24 40//28 87//2
f 8//11 50//22 71//24
f 51//2 43//2 64//2
f 55//3 50//3 49//3
f 45//4 48//4 136//4
f 34//16 51//16 52//16
f 47//5 46//5 111//5
f 137//8 44//8 45//8
f 43//3 42//3 85//3
f 41//18 40//18 28//18
f 36//17 38//14 75//14
f 3//16 5//16 35//16
f 139//1 208//1 140//1
f 141//5 140//5 142//5
f 144//2 205//2 145//2
f 147//1 139//1 141//1
f 147//9 148//9 149//9
f 151//9 147//9 150//9
f 153//48 136//48 59//48
f 63//101 60//101 54//101
f 140//2 208//2 155//2
f 156//1 229//1 151//1
f 158//1 205//1 144//1
f 146//50 194//5 159//51
f 160//48 264//48 10//48
f 162//48 48//48 136//48
f 143//5 176//5 163//5
f 164//52 209//62 165//53
f 167//54 210//54 168//54
f 142//2 155//2 170//2
f 152//9 150//9 172//9
f 150//9 149//9 163//9
f 146//2 145//2 174//2
f 143//5 142//5 171//5
f 177//5 187//5 178//5
f 70//2 201//2 180//2
f 181//9 184//9 182//9
f 177//5 179//5 182//5
f 185//9 181//9 183//9
f 187//2 207//2 188//2
f 189//55 203//55 69//55
f 191//10 198//10 228//10
f 228//10 186//10 191//10
f 175//50 70//20 69//21
f 193//57 222//57 159//57
f 190//54 69//54 195//54
f 191//58 232//59 197//59
f 179//10 198//10 191//10
f 191//10 183//10 182//10
f 165//60 209//60 199//60
f 201//3 262//3 202//3
f 192//56 69//21 203//59
f 145//3 206//3 204//3
f 205//3 158//3 206//3
f 202//10 195//10 68//10
f 207//61 197//62 198//61
f 155//61 209//62 164//52
f 198//10 179//10 178//10
f 208//61 139//61 209//62
f 167//63 193//63 194//63
f 214//60 231//60 215//60
f 220//1 156//1 157//1
f 222//1 220//1 221//1
f 10//48 48//48 162//48
f 196//10 237//10 224//10
f 225//10 224//10 226//10
f 227//10 226//10 186//10
f 229//1 139//1 147//1
f 197//54 213//54 228//54
f 213//54 230//54 227//54
f 230//54 217//54 225//54
f 217//54 190//54 196//54
f 209//54 139//54 229//54
f 199//54 229//54 156//54
f 231//54 156//54 220//57
f 215//57 220//57 222//57
f 232//55 211//55 213//55
f 217//65 219//65 233//65
f 234//55 218//55 217//55
f 235//66 251//66 199//66
f 236//67 239//67 237//67
f 239//9 240//9 224//9
f 240//9 241//9 226//9
f 241//9 185//9 186//9
f 242//68 245//73 243//67
f 245//9 247//9 246//9
f 247//9 249//9 248//9
f 249//9 152//9 173//9
f 165//54 200//54 250//54
f 214//54 216//54 252//54
f 200//70 251//69 254//59
f 255//72 223//102 245//73
f 223//9 221//9 247//9
f 221//9 157//9 249//9
f 157//9 151//9 152//9
f 251//74 235//74 256//74
f 257//74 260//74 258//74
f 189//75 233//53 258//53
f 234//75 261//53 256//53
f 260//78 257//78 215//78
f 213//65 212//65 261//65
f 216//70 257//69 259//59
f 218//64 252//71 259//59
f 214//80 253//76 256//53
f 167//80 169//76 258//53
f 219//83 259//83 258//83
f 212//83 254//83 256//83
f 211//64 250//71 254//59
f 253//54 252//54 218//54
f 166//54 250//54 211//54
f 248//9 173//9 185//9
f 246//9 248//9 241//9
f 243//9 246//9 240//9
f 244//67 243//67 239//67
f 170//61 164//52 197//62
f 238//103 195//103 202//103
f 174//3 204//3 262//3
f 192//56 168//58 210//5
f 146//50 175//50 192//56
f 176//5 171//5 187//5
f 175//2 174//2 201//2
f 172//9 163//9 184//9
f 163//5 176//5 177//5
f 173//9 172//9 181//9
f 171//2 170//2 207//2
f 169//54 168//54 203//54
f 164//52 166//53 232//53
f 141//5 143//5 149//5
f 26//1 25//1 1//1
f 161//86 162//86 204//86
f 204//86 162//86 153//86
f 158//86 160//86 161//86
f 262//86 153//86 154//86
f 138//87 35//87 10//87
f 48//87 34//87 62//87
f 62//87 61//87 59//87
f 35//87 34//87 48//87
f 135//88 122//88 44//88
f 115//88 135//88 137//88
f 122//88 128//93 17//88
f 45//89 244//89 236//89
f 11//89 242//89 244//89
f 58//89 236//89 238//89
f 9//104 255//104 242//104
f 195//105 238//105 237//105
f 77//10 105//10 115//10
f 154//106 59//106 60//106
f 60//107 59//107 61//107
f 128//93 26//108 263//94
f 159//1 222//1 223//1
f 158//109 159//109 255//109
f 263//110 1//110 3//110
f 160//111 158//111 9//111
f 9//112 3//112 138//112
