# File produced by Open Asset Import Library (http://www.assimp.sf.net)
# (assimp v3.1.243586452)

mtllib BarrierAndEmitter.mtl

# vertex positions
v 0.000000 0.004286 -0.740000
v -0.014632 0.004286 -0.750000
v 0.014632 0.004286 -0.750000
v 0.000000 0.004286 0.740000
v 0.014632 0.004286 0.750000
v -0.014632 0.004286 0.750000
v -0.004632 0.024286 -0.740000
v -0.004632 0.024286 0.740000
v -0.004632 0.014286 0.740000
v -0.004632 0.014286 -0.740000
v 0.004632 0.024286 -0.740000
v 0.014632 0.034286 -0.750000
v -0.014632 0.034286 -0.750000
v 0.004632 0.024286 0.740000
v -0.014632 0.034286 0.750000
v 0.014632 0.034286 0.750000
v 0.004632 0.014286 -0.740000
v 0.004632 0.014286 0.740000
v -0.004630 1.504286 0.740000
v -0.004630 1.504286 -0.740000
v 0.004633 1.504286 0.740000
v 0.004633 1.504286 -0.740000

# UV coordinates
vt 0.515571 0.051292
vt 0.539010 0.042410
vt 0.515331 0.076356
vt 0.989512 0.398126
vt 0.966073 0.407007
vt 0.989752 0.373061
vt 0.575939 0.079565
vt 0.938923 0.347608
vt 0.922510 0.346802
vt 0.588030 0.095959
vt 0.566160 0.101809
vt 0.550130 0.100631
vt 0.573809 0.066685
vt 0.929143 0.369852
vt 0.954953 0.348786
vt 0.931273 0.382732
vt 0.579451 0.059063
vt 0.960595 0.341163
vt 0.925632 0.390354
vt 0.544488 0.108254
vt 0.582573 0.102615
vt 0.917053 0.353458
vt 0.000114 0.930836
vt 0.000115 0.465486
vt 0.468608 0.465486
vt 0.468608 0.930836
vt 0.476730 0.465425
vt 0.476730 0.930774
vt 0.945453 0.530142
vt 0.950360 0.530197
vt 0.950360 0.811375
vt 0.945453 0.811320
vt 0.945224 0.465424
vt 0.945224 0.930774
vt 0.459844 0.000176
vt 0.467966 0.000114

# vertex normals
vn 0.000000 -1.000000 0.000000
vn 1.000000 0.000000 0.000000
vn 0.000000 0.707107 0.707107
vn 0.000000 0.707107 -0.707107
vn 0.707107 0.707107 0.000000
vn -0.707107 0.707107 0.000000
vn -1.000000 0.000000 0.000000
vn 0.000000 0.000000 -1.000000
vn 0.000000 0.000000 1.000000
vn 0.000000 1.000000 0.000000

# Mesh
g Barrier_Emitter_Cylinder.003
usemtl None
f 1/1/1 2/2/1 3/3/1
f 4/4/1 5/5/1 6/6/1
f 10/10/2 7/7/2 8/8/2
f 8/8/2 9/9/2 10/10/2
f 13/13/3 7/7/3 11/11/3
f 11/11/3 12/12/3 13/13/3
f 16/16/4 14/14/4 8/8/4
f 8/8/4 15/15/4 16/16/4
f 15/15/5 8/8/5 7/7/5
f 7/7/5 13/13/5 15/15/5
f 12/12/6 11/11/6 14/14/6
f 14/14/6 16/16/6 12/12/6
f 13/13/7 2/17/7 6/18/7
f 6/18/7 15/15/7 13/13/7
f 12/12/8 3/3/8 2/2/8
f 2/2/8 13/13/8 12/12/8
f 16/16/2 5/19/2 3/20/2
f 3/20/2 12/12/2 16/16/2
f 15/15/9 6/6/9 5/5/9
f 5/5/9 16/16/9 15/15/9
f 17/21/9 11/11/9 7/7/9
f 7/7/9 10/10/9 17/21/9
f 18/22/7 14/14/7 11/11/7
f 11/11/7 17/21/7 18/22/7
f 9/9/8 8/8/8 14/14/8
f 14/14/8 18/22/8 9/9/8

# Mesh
g Barrier_Cylinder.004
usemtl None
f 20/26/7 10/23/7 9/24/7
f 9/24/7 19/25/7 20/26/7
f 22/28/10 20/26/10 19/25/10
f 19/25/10 21/27/10 22/28/10
f 22/32/8 17/29/8 10/30/8
f 10/30/8 20/31/8 22/32/8
f 21/27/2 18/33/2 17/34/2
f 17/34/2 22/28/2 21/27/2
f 19/25/9 9/35/9 18/36/9
f 18/36/9 21/27/9 19/25/9
