# File produced by Open Asset Import Library (http://www.assimp.sf.net)
# (assimp v3.1.243586452)

mtllib Beacon.mtl

# vertex positions
v 0.207868 2.000000 -0.138893
v 0.138893 2.000000 -0.207868
v 0.048773 2.000000 -0.245197
v -0.048772 2.000000 -0.245197
v -0.138892 2.000000 -0.207868
v -0.207867 2.000000 -0.138893
v -0.245196 2.000000 -0.048773
v -0.245196 2.000000 0.048772
v -0.207867 2.000000 0.138892
v -0.138893 2.000000 0.207867
v -0.048773 2.000000 0.245196
v 0.048773 2.000000 0.245196
v 0.138893 2.000000 0.207867
v 0.207868 2.000000 0.138892
v 0.245197 2.000000 0.048772
v 0.245196 2.000000 -0.048773
v 0.207868 0.000000 -0.138893
v 0.245196 0.000000 -0.048773
v 0.245197 0.000000 0.048772
v 0.207868 0.000000 0.138892
v 0.138893 0.000000 0.207867
v 0.048773 0.000000 0.245196
v -0.048773 0.000000 0.245196
v -0.138893 0.000000 0.207867
v -0.207867 0.000000 0.138892
v -0.245196 0.000000 0.048772
v -0.245196 0.000000 -0.048773
v -0.207867 0.000000 -0.138893
v -0.138892 0.000000 -0.207868
v -0.048772 0.000000 -0.245197
v 0.048773 0.000000 -0.245197
v 0.138893 0.000000 -0.207868
v 0.166294 2.400000 -0.111114
v 0.111114 2.400000 -0.166294
v 0.039018 2.400000 -0.196157
v -0.039018 2.400000 -0.196157
v -0.111114 2.400000 -0.166294
v -0.166294 2.400000 -0.111115
v -0.196157 2.400000 -0.039019
v -0.196157 2.400000 0.039018
v -0.166294 2.400000 0.111114
v -0.111114 2.400000 0.166294
v -0.039018 2.400000 0.196157
v 0.039018 2.400000 0.196157
v 0.111114 2.400000 0.166294
v 0.166294 2.400000 0.111114
v 0.196157 2.400000 0.039018
v 0.196157 2.400000 -0.039018
v 0.166294 2.000000 -0.111114
v 0.196157 2.000000 -0.039018
v 0.196157 2.000000 0.039018
v 0.166294 2.000000 0.111114
v 0.111114 2.000000 0.166294
v 0.039018 2.000000 0.196157
v -0.039018 2.000000 0.196157
v -0.111114 2.000000 0.166294
v -0.166294 2.000000 0.111114
v -0.196157 2.000000 0.039018
v -0.196157 2.000000 -0.039019
v -0.166294 2.000000 -0.111115
v -0.111114 2.000000 -0.166294
v -0.039018 2.000000 -0.196157
v 0.039018 2.000000 -0.196157
v 0.111114 2.000000 -0.166294
v 0.207867 3.000000 -0.138893
v 0.138893 3.000000 -0.207867
v 0.048773 3.000000 -0.245196
v -0.048772 3.000000 -0.245196
v -0.138892 3.000000 -0.207868
v -0.207867 3.000000 -0.138893
v -0.245196 3.000000 -0.048773
v -0.245196 3.000000 0.048772
v -0.207867 3.000000 0.138892
v -0.138892 3.000000 0.207867
v -0.048772 3.000000 0.245196
v 0.048773 3.000000 0.245196
v 0.138893 3.000000 0.207867
v 0.207867 3.000000 0.138892
v 0.245196 3.000000 0.048772
v 0.245196 3.000000 -0.048773
v 0.207867 2.400000 -0.138893
v 0.245196 2.400000 -0.048773
v 0.245196 2.400000 0.048772
v 0.207867 2.400000 0.138892
v 0.138893 2.400000 0.207867
v 0.048773 2.400000 0.245196
v -0.048772 2.400000 0.245196
v -0.138892 2.400000 0.207867
v -0.207867 2.400000 0.138892
v -0.245196 2.400000 0.048772
v -0.245196 2.400000 -0.048773
v -0.207867 2.400000 -0.138893
v -0.138892 2.400000 -0.207868
v -0.048772 2.400000 -0.245196
v 0.048773 2.400000 -0.245196
v 0.138893 2.400000 -0.207867

# UV coordinates
vt 0.453372 0.788859
vt 0.418736 0.774513
vt 0.392228 0.748004
vt 0.377881 0.713369
vt 0.377881 0.675880
vt 0.392228 0.641245
vt 0.418736 0.614736
vt 0.453371 0.600390
vt 0.490860 0.600390
vt 0.525495 0.614736
vt 0.552004 0.641245
vt 0.566351 0.675880
vt 0.566351 0.713369
vt 0.552004 0.748004
vt 0.525496 0.774513
vt 0.490860 0.788859
vt 0.642218 0.600390
vt 0.679706 0.600390
vt 0.714342 0.614736
vt 0.740850 0.641245
vt 0.755197 0.675880
vt 0.755197 0.713369
vt 0.740850 0.748005
vt 0.714342 0.774513
vt 0.679706 0.788859
vt 0.642218 0.788859
vt 0.607582 0.774513
vt 0.581074 0.748004
vt 0.566727 0.713369
vt 0.566727 0.675880
vt 0.581074 0.641245
vt 0.607582 0.614736
vt 0.768840 0.037683
vt 0.000189 0.037677
vt 0.000190 0.000188
vt 0.768840 0.000195
vt 0.768840 0.075171
vt 0.000189 0.075166
vt 0.768839 0.112659
vt 0.000189 0.112656
vt 0.768839 0.150148
vt 0.000189 0.150144
vt 0.768839 0.187636
vt 0.000189 0.187633
vt 0.768839 0.225124
vt 0.000188 0.225122
vt 0.768839 0.262613
vt 0.000188 0.262611
vt 0.768839 0.300101
vt 0.000188 0.300100
vt 0.768839 0.337589
vt 0.000188 0.337589
vt 0.768839 0.375077
vt 0.000188 0.375078
vt 0.768839 0.412565
vt 0.000188 0.412567
vt 0.768839 0.450055
vt 0.000188 0.450057
vt 0.768839 0.487543
vt 0.000189 0.487546
vt 0.768839 0.525031
vt 0.000189 0.525035
vt 0.768840 0.562520
vt 0.000189 0.562524
vt 0.768840 0.600008
vt 0.000189 0.600013
vt 0.317693 0.917800
vt 0.277888 0.909114
vt 0.227178 0.904343
vt 0.164697 0.902072
vt 0.229581 0.890326
vt 0.282078 0.877295
vt 0.322283 0.861530
vt 0.346744 0.841162
vt 0.387277 0.854017
vt 0.414486 0.862646
vt 0.427822 0.871320
vt 0.424306 0.881676
vt 0.420558 0.889745
vt 0.404163 0.900815
vt 0.378462 0.915366
vt 0.344345 0.933243
vt 0.551026 0.863118
vt 0.574781 0.853161
vt 0.603472 0.853934
vt 0.643097 0.847498
vt 0.696046 0.854134
vt 0.763056 0.851733
vt 0.843768 0.844769
vt 0.743773 0.855350
vt 0.679113 0.856637
vt 0.629657 0.864956
vt 0.592872 0.875383
vt 0.567403 0.886151
vt 0.542907 0.883974
vt 0.533952 0.883501
vt 0.528911 0.876627
vt 0.538060 0.868114
vt 0.174312 0.641245
vt 0.188658 0.675880
vt 0.188658 0.713369
vt 0.174312 0.748004
vt 0.147803 0.774513
vt 0.113168 0.788860
vt 0.075679 0.788860
vt 0.041043 0.774513
vt 0.014535 0.748005
vt 0.000188 0.713369
vt 0.000188 0.675880
vt 0.014535 0.641245
vt 0.041044 0.614736
vt 0.075679 0.600390
vt 0.113168 0.600390
vt 0.147803 0.614736
vt 0.229890 0.774513
vt 0.203381 0.748005
vt 0.189035 0.713370
vt 0.189035 0.675880
vt 0.203381 0.641245
vt 0.229890 0.614736
vt 0.264525 0.600390
vt 0.302014 0.600390
vt 0.336649 0.614736
vt 0.363158 0.641245
vt 0.377505 0.675880
vt 0.377505 0.713369
vt 0.363158 0.748005
vt 0.336649 0.774513
vt 0.302014 0.788860
vt 0.264525 0.788860
vt 0.769217 0.562523
vt 0.999811 0.562523
vt 0.999812 0.600012
vt 0.769217 0.600012
vt 0.769217 0.525035
vt 0.999811 0.525035
vt 0.769217 0.487546
vt 0.999812 0.487546
vt 0.769217 0.450057
vt 0.999812 0.450057
vt 0.769217 0.412568
vt 0.999812 0.412568
vt 0.769217 0.375079
vt 0.999812 0.375079
vt 0.769217 0.337590
vt 0.999812 0.337590
vt 0.769217 0.300101
vt 0.999812 0.300101
vt 0.769217 0.262612
vt 0.999812 0.262612
vt 0.769217 0.225122
vt 0.999812 0.225122
vt 0.769217 0.187633
vt 0.999812 0.187633
vt 0.769217 0.150144
vt 0.999812 0.150144
vt 0.769217 0.112655
vt 0.999812 0.112655
vt 0.769217 0.075166
vt 0.999812 0.075166
vt 0.769217 0.037677
vt 0.999812 0.037677
vt 0.769217 0.000188
vt 0.999812 0.000188

# vertex normals
vn 0.000000 1.000000 0.000000
vn -0.000000 -1.000000 -0.000000
vn 0.923877 0.000000 -0.382690
vn 0.707107 0.000000 -0.707107
vn 0.382690 0.000000 -0.923877
vn 0.000000 0.000000 -1.000000
vn -0.382690 0.000000 -0.923877
vn -0.707107 0.000000 -0.707107
vn -0.923877 0.000000 -0.382690
vn -1.000000 0.000000 0.000000
vn -0.923877 0.000000 0.382690
vn -0.707107 0.000000 0.707107
vn -0.382690 0.000000 0.923877
vn 0.000000 0.000000 1.000000
vn 0.382690 0.000000 0.923877
vn 0.707107 0.000000 0.707107
vn 0.923877 0.000000 0.382690
vn 1.000000 0.000000 0.000000

# Mesh
g Cylinder_Cylinder.001
usemtl None.004
f 16/16/1 1/1/1 2/2/1
f 16/16/1 2/2/1 3/3/1
f 16/16/1 3/3/1 4/4/1
f 16/16/1 4/4/1 5/5/1
f 16/16/1 5/5/1 6/6/1
f 16/16/1 6/6/1 7/7/1
f 16/16/1 7/7/1 8/8/1
f 16/16/1 8/8/1 9/9/1
f 16/16/1 9/9/1 10/10/1
f 16/16/1 10/10/1 11/11/1
f 16/16/1 11/11/1 12/12/1
f 16/16/1 12/12/1 13/13/1
f 16/16/1 13/13/1 14/14/1
f 14/14/1 15/15/1 16/16/1
f 32/32/2 17/17/2 18/18/2
f 32/32/2 18/18/2 19/19/2
f 32/32/2 19/19/2 20/20/2
f 32/32/2 20/20/2 21/21/2
f 32/32/2 21/21/2 22/22/2
f 32/32/2 22/22/2 23/23/2
f 32/32/2 23/23/2 24/24/2
f 32/32/2 24/24/2 25/25/2
f 32/32/2 25/25/2 26/26/2
f 32/32/2 26/26/2 27/27/2
f 32/32/2 27/27/2 28/28/2
f 32/32/2 28/28/2 29/29/2
f 32/32/2 29/29/2 30/30/2
f 30/30/2 31/31/2 32/32/2
f 18/36/3 17/33/3 1/34/3
f 1/34/3 16/35/3 18/36/3
f 17/33/4 32/37/4 2/38/4
f 2/38/4 1/34/4 17/33/4
f 32/37/5 31/39/5 3/40/5
f 3/40/5 2/38/5 32/37/5
f 3/40/6 31/39/6 30/41/6
f 30/41/6 4/42/6 3/40/6
f 30/41/7 29/43/7 5/44/7
f 5/44/7 4/42/7 30/41/7
f 29/43/8 28/45/8 6/46/8
f 6/46/8 5/44/8 29/43/8
f 28/45/9 27/47/9 7/48/9
f 7/48/9 6/46/9 28/45/9
f 27/47/10 26/49/10 8/50/10
f 8/50/10 7/48/10 27/47/10
f 26/49/11 25/51/11 9/52/11
f 9/52/11 8/50/11 26/49/11
f 25/51/12 24/53/12 10/54/12
f 10/54/12 9/52/12 25/51/12
f 24/53/13 23/55/13 11/56/13
f 11/56/13 10/54/13 24/53/13
f 23/55/14 22/57/14 12/58/14
f 12/58/14 11/56/14 23/55/14
f 22/57/15 21/59/15 13/60/15
f 13/60/15 12/58/15 22/57/15
f 21/59/16 20/61/16 14/62/16
f 14/62/16 13/60/16 21/59/16
f 20/61/17 19/63/17 15/64/17
f 15/64/17 14/62/17 20/61/17
f 19/63/18 18/65/18 16/66/18
f 16/66/18 15/64/18 19/63/18

# Mesh
g Cylinder.001_Cylinder.004
usemtl None.004
f 48/82/1 33/67/1 34/68/1
f 48/82/1 34/68/1 35/69/1
f 48/82/1 35/69/1 36/70/1
f 48/82/1 36/70/1 37/71/1
f 48/82/1 37/71/1 38/72/1
f 48/82/1 38/72/1 39/73/1
f 48/82/1 39/73/1 40/74/1
f 48/82/1 40/74/1 41/75/1
f 48/82/1 41/75/1 42/76/1
f 48/82/1 42/76/1 43/77/1
f 48/82/1 43/77/1 44/78/1
f 48/82/1 44/78/1 45/79/1
f 48/82/1 45/79/1 46/80/1
f 46/80/1 47/81/1 48/82/1
f 64/98/2 49/83/2 50/84/2
f 64/98/2 50/84/2 51/85/2
f 64/98/2 51/85/2 52/86/2
f 64/98/2 52/86/2 53/87/2
f 64/98/2 53/87/2 54/88/2
f 64/98/2 54/88/2 55/89/2
f 64/98/2 55/89/2 56/90/2
f 64/98/2 56/90/2 57/91/2
f 64/98/2 57/91/2 58/92/2
f 64/98/2 58/92/2 59/93/2
f 64/98/2 59/93/2 60/94/2
f 64/98/2 60/94/2 61/95/2
f 64/98/2 61/95/2 62/96/2
f 62/96/2 63/97/2 64/98/2
f 50/84/3 49/83/3 33/67/3
f 33/67/3 48/82/3 50/84/3
f 49/83/4 64/98/4 34/68/4
f 34/68/4 33/67/4 49/83/4
f 64/98/5 63/97/5 35/69/5
f 35/69/5 34/68/5 64/98/5
f 35/69/6 63/97/6 62/96/6
f 62/96/6 36/70/6 35/69/6
f 62/96/7 61/95/7 37/71/7
f 37/71/7 36/70/7 62/96/7
f 61/95/8 60/94/8 38/72/8
f 38/72/8 37/71/8 61/95/8
f 60/94/9 59/93/9 39/73/9
f 39/73/9 38/72/9 60/94/9
f 59/93/10 58/92/10 40/74/10
f 40/74/10 39/73/10 59/93/10
f 58/92/11 57/91/11 41/75/11
f 41/75/11 40/74/11 58/92/11
f 57/91/12 56/90/12 42/76/12
f 42/76/12 41/75/12 57/91/12
f 56/90/13 55/89/13 43/77/13
f 43/77/13 42/76/13 56/90/13
f 55/89/14 54/88/14 44/78/14
f 44/78/14 43/77/14 55/89/14
f 54/88/15 53/87/15 45/79/15
f 45/79/15 44/78/15 54/88/15
f 53/87/16 52/86/16 46/80/16
f 46/80/16 45/79/16 53/87/16
f 52/86/17 51/85/17 47/81/17
f 47/81/17 46/80/17 52/86/17
f 51/85/18 50/84/18 48/82/18
f 48/82/18 47/81/18 51/85/18

# Mesh
g Cylinder.002_Cylinder.005
usemtl None.004
f 80/114/1 65/99/1 66/100/1
f 80/114/1 66/100/1 67/101/1
f 80/114/1 67/101/1 68/102/1
f 80/114/1 68/102/1 69/103/1
f 80/114/1 69/103/1 70/104/1
f 80/114/1 70/104/1 71/105/1
f 80/114/1 71/105/1 72/106/1
f 80/114/1 72/106/1 73/107/1
f 80/114/1 73/107/1 74/108/1
f 80/114/1 74/108/1 75/109/1
f 80/114/1 75/109/1 76/110/1
f 80/114/1 76/110/1 77/111/1
f 80/114/1 77/111/1 78/112/1
f 78/112/1 79/113/1 80/114/1
f 96/130/2 81/115/2 82/116/2
f 96/130/2 82/116/2 83/117/2
f 96/130/2 83/117/2 84/118/2
f 96/130/2 84/118/2 85/119/2
f 96/130/2 85/119/2 86/120/2
f 96/130/2 86/120/2 87/121/2
f 96/130/2 87/121/2 88/122/2
f 96/130/2 88/122/2 89/123/2
f 96/130/2 89/123/2 90/124/2
f 96/130/2 90/124/2 91/125/2
f 96/130/2 91/125/2 92/126/2
f 96/130/2 92/126/2 93/127/2
f 96/130/2 93/127/2 94/128/2
f 94/128/2 95/129/2 96/130/2
f 82/134/3 81/131/3 65/132/3
f 65/132/3 80/133/3 82/134/3
f 81/131/4 96/135/4 66/136/4
f 66/136/4 65/132/4 81/131/4
f 96/135/5 95/137/5 67/138/5
f 67/138/5 66/136/5 96/135/5
f 67/138/6 95/137/6 94/139/6
f 94/139/6 68/140/6 67/138/6
f 94/139/7 93/141/7 69/142/7
f 69/142/7 68/140/7 94/139/7
f 93/141/8 92/143/8 70/144/8
f 70/144/8 69/142/8 93/141/8
f 92/143/9 91/145/9 71/146/9
f 71/146/9 70/144/9 92/143/9
f 91/145/10 90/147/10 72/148/10
f 72/148/10 71/146/10 91/145/10
f 90/147/11 89/149/11 73/150/11
f 73/150/11 72/148/11 90/147/11
f 89/149/12 88/151/12 74/152/12
f 74/152/12 73/150/12 89/149/12
f 88/151/13 87/153/13 75/154/13
f 75/154/13 74/152/13 88/151/13
f 87/153/14 86/155/14 76/156/14
f 76/156/14 75/154/14 87/153/14
f 86/155/15 85/157/15 77/158/15
f 77/158/15 76/156/15 86/155/15
f 85/157/16 84/159/16 78/160/16
f 78/160/16 77/158/16 85/157/16
f 84/159/17 83/161/17 79/162/17
f 79/162/17 78/160/17 84/159/17
f 83/161/18 82/163/18 80/164/18
f 80/164/18 79/162/18 83/161/18
