# Blender v2.90.0 OBJ File: ''
# www.blender.org
mtllib concrete_wall_large_inner_corner.mtl
o Cube.002
v 0.082834 4.001269 3.737514
v 0.011544 4.001269 4.000634
v 0.060320 4.001269 4.046922
v 1.209374 0.720663 3.428017
v 1.082960 0.001269 4.129826
v 1.209374 0.001269 3.428017
v 0.009374 4.001269 0.576434
v 0.009374 3.428097 0.002226
v 0.009374 3.428097 0.576434
v 1.082960 4.001269 4.129826
v 0.105350 4.001269 3.428106
v 0.747376 3.428097 4.688498
v 1.082960 3.428097 4.129826
v 1.209374 4.001269 0.002226
v 0.105000 4.001269 0.576522
v 1.209374 4.001269 0.576434
v 1.209374 3.428097 0.576434
v 1.209374 3.428097 0.002226
v 1.209374 4.001269 2.857702
v 1.209374 3.428097 3.428018
v 1.209374 3.428097 2.857702
v 0.101950 0.720663 0.002225
v 1.209374 0.001269 0.002225
v 0.101950 0.001269 0.002225
v 1.209374 0.001269 0.576433
v 0.504926 0.001269 0.576433
v 0.010458 4.001269 3.714326
v 0.009374 3.428097 3.428018
v 0.010458 3.428097 3.714326
v 1.209374 4.001269 2.287384
v 0.105280 4.001269 2.857788
v 0.101950 4.001269 0.002226
v 0.396270 1.001243 0.576433
v 0.105000 0.001269 0.576521
v 0.105000 0.720663 0.576521
v 0.101950 3.428097 0.002226
v 0.101950 2.074381 0.002226
v 1.209374 0.720663 0.002225
v 1.082960 2.074381 4.129826
v 1.209374 2.074381 3.428017
v 0.105350 2.074381 3.428106
v 0.396618 3.147517 3.428018
v 0.396618 2.074381 3.428017
v 0.396340 3.147517 1.146750
v 0.396270 2.074381 0.576434
v 0.396340 2.074381 1.146750
v 0.009374 2.074381 3.428017
v 0.010458 2.074381 3.714326
v 1.209374 2.074381 2.857702
v 1.209374 2.074381 0.576434
v 1.209374 2.074381 0.002226
v 0.747376 2.074381 4.688498
v 0.009374 2.074381 0.002226
v 0.009374 2.074381 0.576434
v 0.011544 3.428097 4.000634
v 0.011544 2.074381 4.000634
v 0.011544 0.720663 4.000633
v 0.010458 0.001269 3.714325
v 0.011544 0.001269 4.000633
v 0.009374 0.720663 0.576433
v 0.009374 0.001269 0.002225
v 0.009374 0.001269 0.576433
v 1.082960 0.720663 4.129826
v 0.747376 0.001269 4.688498
v 0.505274 0.001269 3.428017
v 0.082834 0.001269 3.737513
v 1.209374 0.720663 2.857701
v 1.209374 0.001269 2.857701
v 0.009374 0.720663 3.428017
v 0.009374 0.001269 3.428017
v 0.105070 0.720663 1.146837
v 0.396340 1.001243 1.146749
v 0.105028 2.074381 0.576478
v 0.105114 3.428097 1.146768
v 0.105054 3.428097 0.576434
v 0.105070 0.001269 1.146837
v 0.396618 1.001243 3.428017
v 0.105350 0.001269 3.428105
v 0.060320 0.001269 4.046921
v 0.105070 4.001269 1.146838
v 1.209374 4.001269 1.146750
v 0.396548 3.147517 2.857702
v 0.105350 3.428097 3.428106
v 0.105290 3.428097 2.857772
v 0.009374 0.720663 0.002225
v 0.009374 4.001269 0.002226
v 0.009374 4.001269 3.428018
v 0.396270 3.147517 0.576434
v 0.396548 1.001243 2.857702
v 0.023932 1.001243 2.857822
v 0.105280 0.720663 2.857787
v 0.396410 3.147517 1.717068
v 0.105232 3.428097 2.287436
v 0.105172 3.428097 1.717102
v 0.105140 0.720663 1.717155
v 0.396410 1.001243 1.717067
v 0.023792 1.001243 1.717189
v 1.209374 4.001269 1.717068
v 0.105210 4.001269 2.287472
v 0.105140 4.001269 1.717156
v 1.209374 0.001269 1.146749
v 0.105140 0.001269 1.717155
v 1.209374 0.001269 1.717067
v 0.105210 0.001269 2.287471
v 1.209374 0.001269 2.287383
v 0.105280 0.001269 2.857787
v 1.209374 4.001269 3.428018
v 0.105350 0.720663 3.428105
v 0.105210 0.720663 2.287471
v 0.023722 1.001243 1.146871
v 0.396480 1.001243 2.287383
v 0.023932 3.147517 2.857822
v 0.023862 3.147517 2.287506
v 1.209374 0.720663 0.576433
v 1.209374 0.720663 1.146749
v 1.209374 0.720663 1.717067
v 1.209374 0.720663 2.287383
v 1.209374 2.074381 1.146750
v 1.209374 3.428097 1.146750
v 1.209374 2.074381 1.717068
v 1.209374 3.428097 1.717068
v 1.209374 2.074381 2.287383
v 1.209374 3.428097 2.287384
v 0.396548 2.074381 2.857702
v 0.396480 3.147517 2.287384
v 0.396410 2.074381 1.717068
v 0.396480 2.074381 2.287383
v 0.214270 2.074381 2.857822
v 0.214200 2.074381 2.287505
v 0.023792 3.147517 1.717190
v 0.214060 2.074381 1.146872
v 0.214130 2.074381 1.717190
v 0.023722 3.147517 1.146872
v 0.023862 1.001243 2.287505
v 0.747376 0.720663 4.688498
v 0.010458 0.720663 3.714325
v -3.412168 4.001269 4.095018
v -3.986288 4.001269 3.999042
v -3.986288 4.001269 4.096596
v -3.986288 3.428097 3.999042
v -3.986288 3.428097 4.096596
v -0.274476 4.001269 3.999838
v -0.274476 3.428097 3.999838
v -3.412080 4.001268 5.199042
v -3.986288 4.001268 5.199042
v -3.986288 3.428096 5.199042
v -3.412080 3.428096 5.199042
v 0.155158 4.001268 5.028368
v -0.250132 4.001269 4.070796
v -0.560496 3.428096 5.199042
v 0.155158 3.428097 5.028368
v -2.841764 4.001268 5.199042
v -2.841764 3.428096 5.199042
v -0.560496 0.001269 4.494594
v -0.250132 0.001269 4.070796
v -0.560496 0.001268 5.199041
v -3.412080 3.428097 3.999042
v -2.271534 4.001269 4.094878
v -2.271446 4.001268 5.199042
v -0.560584 4.001269 4.094668
v -0.560496 3.428097 3.999042
v -0.560496 4.001269 3.999042
v -0.560584 0.720663 4.094667
v -0.560496 1.001243 4.385937
v 0.747376 4.001268 4.688498
v -3.986288 2.074380 5.199042
v -3.412168 2.074381 4.095018
v -3.412080 3.147516 4.386288
v -3.412080 2.074381 4.386288
v -1.130812 3.147516 4.386008
v -0.560496 2.074381 4.385938
v -1.130812 2.074381 4.386008
v -3.412080 2.074381 3.999041
v -3.986288 2.074381 3.999041
v -3.412080 2.074380 5.199042
v -2.841764 2.074380 5.199042
v -0.560496 2.074380 5.199042
v 0.155158 2.074381 5.028368
v -0.274476 2.074381 3.999838
v -3.986288 2.074381 4.096596
v -3.986288 0.720663 4.096595
v -3.986288 0.001269 3.999041
v -3.986288 0.001269 4.096595
v -0.274476 0.001269 3.999837
v -3.412080 0.720662 5.199041
v -3.986288 0.001268 5.199041
v -3.412080 0.001268 5.199041
v -3.986288 0.720662 5.199041
v 0.155158 0.720662 5.028368
v 0.155158 0.001269 5.028368
v -2.841764 0.720662 5.199041
v -2.841764 0.001268 5.199041
v -3.986288 0.720663 3.999041
v -3.412080 0.001269 3.999041
v -1.130812 1.001243 4.386007
v -1.130900 0.720663 4.094738
v -3.412080 0.001269 4.494944
v -0.560496 2.074381 3.999041
v -0.560540 2.074381 4.094696
v -1.130830 3.428097 4.094782
v -0.560496 3.428097 4.094724
v -0.560584 0.001269 4.094667
v -1.130900 0.001269 4.094738
v -3.412168 0.720663 4.095017
v -3.412168 0.001269 4.095017
v -1.130812 4.001268 5.199042
v -0.560496 4.001268 5.199042
v -2.841832 3.428097 4.094960
v -2.841764 3.147516 4.386218
v -0.560496 0.001269 3.999041
v -3.412080 0.720663 3.999041
v -3.412080 4.001269 3.999042
v -3.412168 3.428097 4.095018
v -0.560496 3.147516 4.385938
v -2.841764 1.001243 4.386218
v -2.841884 1.001243 4.013601
v -2.841850 0.720663 4.094947
v -2.271446 3.147516 4.386148
v -1.701164 3.428097 4.094842
v -1.701130 3.147516 4.386078
v -1.701216 0.720663 4.094808
v -1.701130 1.001243 4.386077
v -1.701250 1.001243 4.013462
v -1.701216 4.001269 4.094808
v -1.701130 4.001268 5.199042
v -1.130900 4.001269 4.094738
v -1.701130 0.001268 5.199041
v -1.701216 0.001269 4.094808
v -2.271446 0.001268 5.199041
v -2.271534 0.001269 4.094877
v -2.841850 0.001269 4.094947
v -2.841850 4.001269 4.094948
v -2.271534 0.720663 4.094877
v -2.271498 3.428097 4.094900
v -3.412080 1.001243 4.386287
v -1.130934 1.001243 4.013391
v -2.271446 1.001243 4.386147
v -2.271568 3.147516 4.013532
v -0.560496 0.720662 5.199041
v -1.130812 0.001268 5.199041
v -1.130812 0.720662 5.199041
v -1.701130 0.720662 5.199041
v -2.271446 0.720662 5.199041
v -1.130812 2.074380 5.199042
v -1.130812 3.428096 5.199042
v -1.701130 2.074380 5.199042
v -1.701130 3.428096 5.199042
v -2.271446 2.074380 5.199042
v -2.271446 3.428096 5.199042
v -2.841764 2.074381 4.386218
v -2.841884 3.147516 4.013602
v -1.701130 2.074381 4.386078
v -2.271446 2.074381 4.386148
v -2.841884 2.074381 4.203938
v -2.271568 2.074381 4.203868
v -1.701250 3.147516 4.013462
v -1.130934 2.074381 4.203728
v -1.701250 2.074381 4.203798
v -1.130934 3.147516 4.013392
v -2.271568 1.001243 4.013531
v -0.274476 0.720663 3.999837
v -0.560496 0.720663 3.999041
vn 0.0000 1.0000 0.0000
vn 0.9842 0.0000 0.1773
vn -1.0000 -0.0000 0.0000
vn 0.8572 0.0000 0.5149
vn 1.0000 0.0000 0.0000
vn 0.0000 0.0000 -1.0000
vn 0.0000 -1.0000 -0.0000
vn -1.0000 -0.0000 0.0038
vn -0.0006 -0.0000 1.0000
vn -0.0002 -0.0002 1.0000
vn -0.0009 -0.0000 1.0000
vn -0.0003 0.0000 -1.0000
vn 0.0003 0.0000 -1.0000
vn -1.0000 -0.0000 0.0001
vn -0.6938 0.7202 0.0001
vn -0.0005 0.0000 1.0000
vn -0.0007 0.0000 1.0000
vn -0.0001 0.0000 1.0000
vn -1.0000 -0.0001 0.0001
vn 0.0003 0.0000 1.0000
vn 0.0002 0.0000 1.0000
vn -0.6938 -0.7202 0.0001
vn 0.0009 0.0000 -1.0000
vn 0.0007 0.0000 -1.0000
vn -0.6938 -0.7201 0.0001
vn 0.0004 -0.0000 1.0000
vn -0.9604 -0.2785 0.0001
vn -0.9604 0.2785 0.0001
vn 0.0003 0.0001 1.0000
vn 0.0006 -0.0000 1.0000
vn 0.0007 -0.0000 1.0000
vn -0.9846 -0.1746 0.0001
vn -0.0004 0.0000 -1.0000
vn -0.0006 0.0000 -1.0000
vn -0.0007 0.0000 -1.0000
vn 0.0003 0.0002 1.0000
vn 0.0004 0.0001 1.0000
vn -0.9604 0.2786 0.0001
vn -0.0003 -0.0003 -1.0000
vn -0.0004 -0.0001 -1.0000
vn -0.0003 -0.0002 -1.0000
vn -0.0003 -0.0001 -1.0000
vn -0.9846 0.1746 0.0001
vn 0.0000 0.0000 1.0000
vn 0.0028 0.0000 -1.0000
vn 0.2320 0.0000 0.9727
vn -0.6828 -0.0002 0.7306
vn -0.6826 -0.0002 0.7308
vn -0.6862 -0.0002 0.7274
vn -1.0000 -0.0000 -0.0005
vn -1.0000 -0.0001 -0.0004
vn -1.0000 0.0000 -0.0009
vn -1.0000 0.0000 0.0003
vn 1.0000 -0.0000 0.0003
vn 1.0000 0.0000 -0.0003
vn -0.0001 0.0000 -1.0000
vn -0.0001 0.7202 -0.6938
vn -1.0000 0.0000 -0.0007
vn -1.0000 0.0000 -0.0001
vn -0.0001 -0.0001 -1.0000
vn -1.0000 0.0000 0.0002
vn -0.0001 -0.7202 -0.6938
vn 1.0000 0.0000 0.0009
vn 1.0000 0.0000 0.0007
vn -0.0001 -0.7201 -0.6938
vn -0.0001 -0.2785 -0.9604
vn -0.0001 0.2785 -0.9604
vn -1.0000 0.0001 0.0003
vn -1.0000 0.0000 0.0006
vn -1.0000 0.0000 0.0007
vn -0.0001 -0.1746 -0.9846
vn 1.0000 0.0000 -0.0004
vn 1.0000 0.0000 -0.0007
vn -1.0000 0.0002 0.0003
vn -0.0001 0.2786 -0.9604
vn 1.0000 -0.0003 -0.0003
vn 1.0000 -0.0001 -0.0004
vn 1.0000 -0.0002 -0.0003
vn 1.0000 -0.0001 -0.0003
vn -0.0001 0.1746 -0.9846
vn 0.4977 -0.0000 0.8673
vn -0.6884 0.0000 0.7254
vn -0.6826 0.0002 0.7308
vn -0.6857 -0.0000 0.7279
vn -0.6825 0.0000 0.7309
vn -0.6828 0.0001 0.7306
vn -0.6829 -0.0000 0.7305
vn 1.0000 0.0000 -0.0002
vn 0.4978 0.0000 0.8673
usemtl Default_OBJ.001
s 1
f 1//1 2//1 3//1
f 4//2 5//2 6//2
f 7//3 8//3 9//3
f 10//1 11//1 1//1
f 10//4 12//4 13//4
f 14//1 15//1 16//1
f 14//5 17//5 18//5
f 19//5 20//5 21//5
f 22//6 23//6 24//6
f 23//7 25//7 26//7
f 27//8 28//8 29//8
f 30//1 31//1 19//1
f 32//1 7//1 15//1
f 9//9 15//10 7//11
f 33//12 34//12 35//12
f 32//6 18//6 36//6
f 37//6 38//6 22//6
f 20//2 39//2 40//2
f 41//13 42//12 43//12
f 44//14 45//14 46//14
f 29//8 47//8 48//8
f 21//5 40//5 49//5
f 18//5 50//5 51//5
f 13//4 52//4 39//4
f 9//3 53//3 54//3
f 55//8 48//8 56//8
f 57//8 58//8 59//8
f 60//3 61//3 62//3
f 63//4 64//4 5//4
f 65//7 5//7 66//7
f 38//5 25//5 23//5
f 67//5 6//5 68//5
f 58//8 69//8 70//8
f 33//15 71//15 72//15
f 68//7 6//7 65//7
f 54//16 35//17 73//18
f 74//19 15//19 75//19
f 71//14 34//14 76//14
f 77//20 78//21 65//21
f 66//7 64//7 79//7
f 16//1 80//1 81//1
f 82//22 83//22 84//22
f 85//6 24//6 61//6
f 73//18 33//20 45//21
f 8//6 37//6 53//6
f 86//6 36//6 8//6
f 24//7 62//7 61//7
f 69//23 78//23 70//23
f 28//23 41//13 47//23
f 66//7 59//7 58//7
f 87//23 83//24 28//23
f 88//25 74//25 75//25
f 89//20 90//20 91//20
f 92//22 93//22 94//22
f 95//20 96//26 97//20
f 98//1 99//1 30//1
f 81//1 100//1 98//1
f 18//6 37//6 36//6
f 101//7 102//7 76//7
f 103//7 104//7 102//7
f 105//7 106//7 104//7
f 19//1 11//1 107//1
f 108//14 106//14 78//14
f 91//14 104//14 106//14
f 109//14 102//14 104//14
f 95//14 76//14 102//14
f 83//14 31//14 84//14
f 84//14 99//14 93//14
f 93//14 100//19 94//19
f 94//19 80//19 74//19
f 89//15 108//15 77//15
f 71//27 97//27 110//27
f 96//15 109//15 111//15
f 112//28 93//28 113//28
f 114//5 101//5 25//5
f 115//5 103//5 101//5
f 116//5 105//5 103//5
f 117//5 68//5 105//5
f 17//5 118//5 50//5
f 119//5 120//5 118//5
f 121//5 122//5 120//5
f 123//5 49//5 122//5
f 42//14 124//14 43//14
f 84//29 112//29 82//29
f 125//14 126//14 127//14
f 82//29 128//30 124//31
f 16//5 119//5 17//5
f 81//5 121//5 119//5
f 98//5 123//5 121//5
f 30//5 21//5 123//5
f 112//32 129//32 128//32
f 130//32 131//32 132//32
f 72//33 131//34 46//35
f 94//36 130//29 92//37
f 111//33 129//34 127//35
f 130//38 74//38 133//38
f 109//27 90//27 134//27
f 92//37 132//30 126//31
f 74//39 44//40 133//41
f 71//12 110//12 72//33
f 93//41 125//40 113//42
f 96//26 132//30 97//20
f 125//40 129//34 113//42
f 44//40 131//34 133//41
f 97//43 131//43 110//43
f 90//43 129//43 134//43
f 89//20 128//30 90//20
f 127//14 96//14 111//14
f 43//14 89//14 77//14
f 122//5 67//5 117//5
f 120//5 117//5 116//5
f 118//5 116//5 115//5
f 50//5 115//5 114//5
f 47//23 108//24 69//23
f 76//7 26//7 101//7
f 53//6 22//6 85//6
f 73//18 88//44 75//44
f 9//9 73//18 75//44
f 70//7 66//7 58//7
f 60//3 53//3 85//3
f 39//4 135//4 63//4
f 40//2 63//2 4//2
f 51//5 114//5 38//5
f 49//5 4//5 67//5
f 48//8 69//8 136//8
f 46//14 33//14 72//14
f 41//13 77//12 108//24
f 109//12 134//12 111//33
f 56//8 136//8 57//8
f 137//1 138//1 139//1
f 139//3 140//3 141//3
f 142//45 55//45 143//45
f 144//1 139//1 145//1
f 144//44 146//44 147//44
f 148//1 3//1 149//1
f 148//46 150//46 151//46
f 152//44 147//44 153//44
f 12//47 3//48 55//49
f 154//7 155//7 156//7
f 138//6 157//6 140//6
f 158//1 152//1 159//1
f 142//1 160//1 149//1
f 161//50 160//51 162//52
f 154//53 164//53 163//53
f 165//1 1//1 3//1
f 2//8 29//8 55//8
f 141//3 166//3 146//3
f 167//54 168//55 169//55
f 170//56 171//56 172//56
f 140//6 173//6 174//6
f 153//44 175//44 176//44
f 151//46 177//46 178//46
f 147//44 166//44 175//44
f 143//45 56//45 179//45
f 141//3 174//3 180//3
f 181//3 182//3 183//3
f 184//45 57//45 59//45
f 185//44 186//44 187//44
f 181//3 186//3 188//3
f 189//46 156//46 190//46
f 191//44 187//44 192//44
f 193//6 194//6 182//6
f 195//57 163//57 196//57
f 192//7 187//7 197//7
f 198//50 163//58 199//59
f 200//60 160//60 201//60
f 196//56 202//56 203//56
f 197//61 204//53 205//61
f 197//7 186//7 183//7
f 160//1 206//1 207//1
f 168//62 208//62 209//62
f 87//1 1//1 11//1
f 199//59 164//53 171//61
f 184//7 202//7 210//7
f 211//63 205//63 194//63
f 157//63 167//54 173//63
f 205//7 182//7 194//7
f 212//63 213//64 157//63
f 170//65 201//65 214//65
f 215//53 216//53 217//53
f 218//62 219//62 220//62
f 221//53 222//53 223//53
f 224//1 159//1 225//1
f 226//1 225//1 206//1
f 107//2 13//2 20//2
f 203//7 227//7 228//7
f 228//7 229//7 230//7
f 230//7 192//7 231//7
f 232//1 144//1 152//1
f 204//56 231//56 205//56
f 217//56 230//56 231//56
f 233//56 228//56 230//56
f 221//56 203//56 228//56
f 213//56 232//56 208//56
f 208//56 158//56 234//56
f 234//56 224//60 219//60
f 219//60 226//60 200//60
f 235//57 217//57 204//57
f 221//66 236//66 196//66
f 237//57 221//57 233//57
f 238//67 208//67 234//67
f 239//44 240//44 156//44
f 241//44 227//44 240//44
f 242//44 229//44 227//44
f 243//44 192//44 229//44
f 150//44 244//44 177//44
f 245//44 246//44 244//44
f 247//44 248//44 246//44
f 249//44 176//44 248//44
f 168//56 250//56 169//56
f 208//68 251//68 209//68
f 218//56 252//56 253//56
f 209//68 254//69 250//70
f 207//44 245//44 150//44
f 206//44 247//44 245//44
f 225//44 249//44 247//44
f 159//44 153//44 249//44
f 251//71 255//71 254//71
f 256//71 257//71 258//71
f 195//72 257//55 172//73
f 219//74 256//68 220//68
f 237//72 255//55 253//73
f 259//75 219//75 200//75
f 217//66 260//66 233//66
f 220//68 258//69 252//70
f 200//76 170//77 259//78
f 196//55 236//55 195//72
f 234//78 218//77 238//79
f 222//53 258//69 223//53
f 218//77 255//55 238//79
f 170//77 257//55 259//78
f 223//80 257//80 236//80
f 216//80 255//80 260//80
f 215//53 254//69 216//53
f 253//56 222//56 237//56
f 169//56 215//56 235//56
f 248//44 191//44 243//44
f 246//44 243//44 242//44
f 244//44 242//44 241//44
f 177//44 241//44 239//44
f 173//63 204//64 211//63
f 203//7 154//7 240//7
f 199//59 214//3 201//3
f 161//50 199//59 201//3
f 180//3 193//3 181//3
f 179//45 57//45 261//45
f 175//44 188//44 185//44
f 166//3 181//3 188//3
f 178//46 239//46 189//46
f 176//44 185//44 191//44
f 174//6 211//6 193//6
f 172//56 164//56 195//56
f 167//54 235//55 204//64
f 233//55 260//55 237//72
f 139//3 146//3 145//3
f 52//81 189//81 135//81
f 198//45 261//45 262//45
f 59//7 155//7 184//7
f 135//81 190//81 64//81
f 262//45 184//45 210//45
f 161//45 179//45 198//45
f 12//81 178//81 52//81
f 2//1 149//1 3//1
f 79//7 190//7 155//7
f 165//81 151//81 12//81
f 207//1 149//1 160//1
f 162//45 143//45 161//45
f 1//1 27//1 2//1
f 4//2 63//2 5//2
f 7//3 86//3 8//3
f 10//1 107//1 11//1
f 10//4 165//4 12//4
f 14//1 32//1 15//1
f 14//5 16//5 17//5
f 19//5 107//5 20//5
f 22//6 38//6 23//6
f 34//7 24//7 26//7
f 24//7 23//7 26//7
f 27//8 87//8 28//8
f 30//1 99//1 31//1
f 32//1 86//1 7//1
f 9//9 75//44 15//10
f 35//17 60//11 62//11
f 62//11 34//11 35//17
f 34//21 26//21 33//21
f 32//6 14//6 18//6
f 37//6 51//6 38//6
f 20//2 13//2 39//2
f 41//13 83//24 42//12
f 44//14 88//14 45//14
f 29//8 28//8 47//8
f 21//5 20//5 40//5
f 18//5 17//5 50//5
f 13//4 12//4 52//4
f 9//3 8//3 53//3
f 55//8 29//8 48//8
f 57//8 136//8 58//8
f 60//3 85//3 61//3
f 63//4 135//4 64//4
f 66//7 78//7 65//7
f 65//7 6//7 5//7
f 38//5 114//5 25//5
f 67//5 4//5 6//5
f 58//8 136//8 69//8
f 33//15 35//15 71//15
f 65//7 78//7 106//7
f 106//7 68//7 65//7
f 54//16 60//11 35//17
f 74//19 80//19 15//19
f 71//14 35//14 34//14
f 77//20 108//20 78//21
f 66//7 5//7 64//7
f 16//1 15//1 80//1
f 82//22 42//22 83//22
f 85//6 22//6 24//6
f 73//18 35//17 33//20
f 8//6 36//6 37//6
f 86//6 32//6 36//6
f 24//7 34//7 62//7
f 69//23 108//24 78//23
f 28//23 83//24 41//13
f 66//7 79//7 59//7
f 87//23 11//23 83//24
f 88//25 44//25 74//25
f 92//22 125//22 93//22
f 98//1 100//1 99//1
f 81//1 80//1 100//1
f 18//6 51//6 37//6
f 101//7 103//7 102//7
f 103//7 105//7 104//7
f 105//7 68//7 106//7
f 19//1 31//1 11//1
f 108//14 91//14 106//14
f 91//14 109//14 104//14
f 109//14 95//14 102//14
f 95//14 71//14 76//14
f 83//14 11//14 31//14
f 84//14 31//14 99//14
f 93//14 99//14 100//19
f 94//19 100//19 80//19
f 89//15 91//15 108//15
f 71//27 95//27 97//27
f 96//15 95//15 109//15
f 112//28 84//28 93//28
f 114//5 115//5 101//5
f 115//5 116//5 103//5
f 116//5 117//5 105//5
f 117//5 67//5 68//5
f 17//5 119//5 118//5
f 119//5 121//5 120//5
f 121//5 123//5 122//5
f 123//5 21//5 49//5
f 42//14 82//14 124//14
f 125//14 92//14 126//14
f 82//29 112//29 128//30
f 16//5 81//5 119//5
f 81//5 98//5 121//5
f 98//5 30//5 123//5
f 30//5 19//5 21//5
f 112//32 113//32 129//32
f 130//32 133//32 131//32
f 72//33 110//12 131//34
f 111//33 134//12 129//34
f 130//38 94//38 74//38
f 109//27 91//27 90//27
f 92//37 130//29 132//30
f 96//26 126//31 132//30
f 125//40 127//35 129//34
f 44//40 46//35 131//34
f 97//43 132//43 131//43
f 90//43 128//43 129//43
f 89//20 124//31 128//30
f 127//14 126//14 96//14
f 43//14 124//14 89//14
f 122//5 49//5 67//5
f 120//5 122//5 117//5
f 118//5 120//5 116//5
f 50//5 118//5 115//5
f 47//23 41//13 108//24
f 34//7 26//7 76//7
f 26//7 25//7 101//7
f 53//6 37//6 22//6
f 73//18 45//21 88//44
f 9//9 54//16 73//18
f 70//7 78//7 66//7
f 60//3 54//3 53//3
f 39//4 52//4 135//4
f 40//2 39//2 63//2
f 51//5 50//5 114//5
f 49//5 40//5 4//5
f 48//8 47//8 69//8
f 46//14 45//14 33//14
f 41//13 43//12 77//12
f 56//8 48//8 136//8
f 137//1 212//1 138//1
f 139//3 138//3 140//3
f 142//45 2//45 55//45
f 144//1 137//1 139//1
f 144//44 145//44 146//44
f 148//1 165//1 3//1
f 148//46 207//46 150//46
f 152//44 144//44 147//44
f 59//82 79//83 57//84
f 79//83 64//85 135//86
f 135//86 52//87 57//84
f 52//87 12//47 56//87
f 57//84 52//87 56//87
f 79//83 135//86 57//84
f 55//49 56//87 12//47
f 12//47 165//85 3//48
f 3//48 2//82 55//49
f 202//7 155//7 154//7
f 155//7 190//7 156//7
f 138//6 212//6 157//6
f 158//1 232//1 152//1
f 142//1 162//1 160//1
f 161//50 201//3 160//51
f 154//88 202//88 163//88
f 163//58 262//52 210//52
f 210//52 202//52 163//58
f 165//1 10//1 1//1
f 2//8 27//8 29//8
f 141//3 180//3 166//3
f 167//54 213//64 168//55
f 170//56 214//56 171//56
f 140//6 157//6 173//6
f 153//44 147//44 175//44
f 151//46 150//46 177//46
f 147//44 146//44 166//44
f 143//45 55//45 56//45
f 141//3 140//3 174//3
f 181//3 193//3 182//3
f 184//45 261//45 57//45
f 185//44 188//44 186//44
f 181//3 183//3 186//3
f 189//46 239//46 156//46
f 191//44 185//44 187//44
f 193//6 211//6 194//6
f 195//57 164//57 163//57
f 197//7 205//7 231//7
f 231//7 192//7 197//7
f 198//50 262//52 163//58
f 200//60 226//60 160//60
f 196//56 163//56 202//56
f 197//61 235//53 204//53
f 183//7 205//7 197//7
f 197//7 187//7 186//7
f 160//1 226//1 206//1
f 168//62 213//62 208//62
f 87//1 27//1 1//1
f 199//59 163//58 164//53
f 184//7 155//7 202//7
f 211//63 204//64 205//63
f 157//63 213//64 167//54
f 205//7 183//7 182//7
f 212//63 137//63 213//64
f 170//65 200//65 201//65
f 218//62 234//62 219//62
f 224//1 158//1 159//1
f 226//1 224//1 225//1
f 107//2 10//2 13//2
f 203//7 240//7 227//7
f 228//7 227//7 229//7
f 230//7 229//7 192//7
f 232//1 137//1 144//1
f 204//56 217//56 231//56
f 217//56 233//56 230//56
f 233//56 221//56 228//56
f 221//56 196//56 203//56
f 213//56 137//56 232//56
f 208//56 232//56 158//56
f 234//56 158//56 224//60
f 219//60 224//60 226//60
f 235//57 215//57 217//57
f 221//66 223//66 236//66
f 237//57 222//57 221//57
f 238//67 251//67 208//67
f 239//44 241//44 240//44
f 241//44 242//44 227//44
f 242//44 243//44 229//44
f 243//44 191//44 192//44
f 150//44 245//44 244//44
f 245//44 247//44 246//44
f 247//44 249//44 248//44
f 249//44 153//44 176//44
f 168//56 209//56 250//56
f 218//56 220//56 252//56
f 209//68 251//68 254//69
f 207//44 206//44 245//44
f 206//44 225//44 247//44
f 225//44 159//44 249//44
f 159//44 152//44 153//44
f 251//71 238//71 255//71
f 256//71 259//71 257//71
f 195//72 236//55 257//55
f 237//72 260//55 255//55
f 259//75 256//75 219//75
f 217//66 216//66 260//66
f 220//68 256//68 258//69
f 222//53 252//70 258//69
f 218//77 253//73 255//55
f 170//77 172//73 257//55
f 223//80 258//80 257//80
f 216//80 254//80 255//80
f 215//53 250//70 254//69
f 253//56 252//56 222//56
f 169//56 250//56 215//56
f 248//44 176//44 191//44
f 246//44 248//44 243//44
f 244//44 246//44 242//44
f 177//44 244//44 241//44
f 173//63 167//54 204//64
f 202//7 154//7 203//7
f 154//7 156//7 240//7
f 199//59 171//61 214//3
f 161//50 198//50 199//59
f 180//3 174//3 193//3
f 179//45 56//45 57//45
f 175//44 166//44 188//44
f 166//3 180//3 181//3
f 178//46 177//46 239//46
f 176//44 175//44 185//44
f 174//6 173//6 211//6
f 172//56 171//56 164//56
f 167//54 169//55 235//55
f 139//3 141//3 146//3
f 52//81 178//81 189//81
f 198//45 179//45 261//45
f 59//7 79//7 155//7
f 135//81 189//81 190//81
f 262//45 261//45 184//45
f 161//45 143//45 179//45
f 12//81 151//81 178//81
f 2//1 142//1 149//1
f 79//7 64//7 190//7
f 165//89 148//89 151//89
f 207//1 148//1 149//1
f 162//45 142//45 143//45
