# Blender v2.90.0 OBJ File: ''
# www.blender.org
mtllib FuturisticTrashCan.mtl
o Cylinder
v -0.002943 0.000000 -0.279391
v -0.002943 1.000000 -0.279391
v 0.196784 0.000000 -0.258124
v 0.196784 1.000000 -0.258124
v 0.366104 0.000000 -0.197559
v 0.366104 1.000000 -0.197559
v 0.479240 0.000000 -0.106918
v 0.479240 1.000000 -0.106918
v 0.518969 0.000000 0.000000
v 0.518969 1.000000 0.000000
v 0.479240 0.000000 0.106918
v 0.479240 1.000000 0.106918
v 0.366104 0.000000 0.197559
v 0.366104 1.000000 0.197559
v 0.196784 0.000000 0.258124
v 0.196784 1.000000 0.258124
v -0.002943 0.000000 0.279391
v -0.002943 1.000000 0.279391
v -0.002943 0.855172 -0.244971
v 0.196784 0.855172 -0.226324
v 0.366104 0.855172 -0.173221
v 0.438811 0.855172 -0.093746
v 0.478540 0.855172 0.000000
v 0.438811 0.855172 0.093747
v 0.366104 0.855172 0.173221
v 0.196784 0.855172 0.226324
v -0.002943 0.855172 0.244971
v 0.196784 1.025156 -0.258124
v -0.002943 1.025156 -0.279391
v 0.366104 1.025156 -0.197559
v 0.479240 1.025156 -0.106918
v 0.518969 1.025156 0.000000
v 0.479240 1.025156 0.106918
v 0.366104 1.025156 0.197559
v 0.196784 1.025156 0.258124
v -0.002943 1.025156 0.279391
v 0.196784 1.098613 -0.258124
v -0.002943 1.116710 -0.279391
v 0.366104 1.079186 -0.197559
v 0.479240 1.062056 -0.106918
v 0.518969 1.052579 0.000000
v 0.479240 1.062056 0.106918
v 0.366104 1.079186 0.197559
v 0.196784 1.098613 0.258124
v -0.002943 1.116710 0.279391
v 0.208561 1.001613 -0.225011
v 0.034456 1.001613 -0.243550
v 0.356161 1.001613 -0.172216
v 0.454784 1.001613 -0.093203
v 0.489416 1.001613 0.000000
v 0.454784 1.001613 0.093203
v 0.356161 1.001613 0.172216
v 0.208561 1.001613 0.225011
v 0.034456 1.001613 0.243550
v 0.208561 1.023542 -0.225011
v 0.034456 1.023542 -0.243550
v 0.356161 1.023542 -0.172216
v 0.454784 1.023542 -0.093203
v 0.489416 1.023542 0.000000
v 0.454784 1.023542 0.093203
v 0.356161 1.023542 0.172216
v 0.208561 1.023542 0.225011
v 0.034456 1.023542 0.243550
vt 1.000000 0.963793
vt 1.000000 1.000000
vt 0.937500 1.000000
vt 0.937500 0.963793
vt 0.875000 1.000000
vt 0.875000 0.963793
vt 0.812500 1.000000
vt 0.812500 0.963793
vt 0.750000 1.000000
vt 0.750000 0.963793
vt 0.687500 1.000000
vt 0.687500 0.963793
vt 0.625000 1.000000
vt 0.625000 0.963793
vt 0.562500 1.000000
vt 0.562500 0.963793
vt 0.500000 1.000000
vt 0.500000 0.963793
vt 0.000000 0.963793
vt 0.000000 0.500000
vt 0.500000 0.500000
vt 0.687500 1.000000
vt 0.625000 1.000000
vt 0.625000 1.000000
vt 0.687500 1.000000
vt 0.000000 1.000000
vt 0.562500 0.500000
vt 0.625000 0.500000
vt 0.687500 0.500000
vt 0.750000 0.500000
vt 0.812500 0.500000
vt 0.875000 0.500000
vt 0.937500 0.500000
vt 1.000000 0.500000
vt 0.562500 1.000000
vt 0.625000 1.000000
vt 0.562500 1.000000
vt 0.625000 1.000000
vt 0.562500 1.000000
vt 0.937500 1.000000
vt 0.875000 1.000000
vt 0.750000 1.000000
vt 0.750000 1.000000
vt 0.812500 1.000000
vt 0.812500 1.000000
vt 0.812500 1.000000
vt 0.750000 1.000000
vt 0.500000 1.000000
vt 0.000000 1.000000
vt 0.875000 1.000000
vt 0.875000 1.000000
vt 0.687500 1.000000
vt 0.341844 0.471731
vt 0.250000 0.490000
vt 0.250000 0.010000
vt 0.341844 0.028269
vt 0.419706 0.080294
vt 0.471731 0.158156
vt 0.490000 0.250000
vt 0.471731 0.341844
vt 0.419706 0.419706
vt 0.812500 1.000000
vt 0.750000 1.000000
vt 0.937500 1.000000
vt 1.000000 1.000000
vt 1.000000 1.000000
vt 0.937500 1.000000
vt 0.500000 1.000000
vt 0.687500 1.000000
vt 0.875000 1.000000
vt 0.000000 1.000000
vt 1.000000 1.000000
vt 1.000000 1.000000
vt 0.937500 1.000000
vt 0.500000 1.000000
vt 0.562500 1.000000
vt 0.500000 1.000000
vt 0.000000 1.000000
vt 0.000000 1.000000
vn 0.0970 -0.2218 -0.9703
vn 0.3130 -0.1807 -0.9324
vn 0.6634 -0.1864 -0.7247
vn 0.8962 -0.2663 -0.3549
vn 0.8962 -0.2663 0.3549
vn 0.6634 -0.1864 0.7247
vn 0.3130 -0.1807 0.9324
vn 0.0970 -0.2218 0.9703
vn -1.0000 -0.0000 0.0000
vn 0.0387 -0.9981 0.0483
vn 0.0994 0.0385 0.9943
vn 0.3181 0.0311 0.9476
vn 0.6749 0.0321 0.7372
vn 0.9287 0.0467 0.3678
vn 0.9287 0.0467 -0.3678
vn 0.6749 0.0321 -0.7372
vn 0.3181 0.0311 -0.9476
vn 0.0994 0.0385 -0.9943
vn 0.3368 -0.0000 0.9416
vn 0.0199 0.9982 0.0557
vn 0.0199 0.9982 -0.0557
vn 0.0545 -0.9983 0.0203
vn 0.0545 -0.9983 -0.0203
vn 0.0545 0.9983 -0.0203
vn 0.0387 -0.9981 -0.0483
vn 0.0387 0.9981 0.0483
vn 0.1105 0.9939 0.0000
vn 0.9374 0.0000 -0.3483
vn 0.1059 -0.0000 -0.9944
vn 0.1059 -0.0000 0.9944
vn 0.9374 0.0000 0.3483
vn 0.3368 -0.0000 -0.9416
vn 0.6253 -0.0000 0.7804
vn 0.6253 -0.0000 -0.7804
vn 0.6919 0.0000 -0.7220
vn 0.0199 -0.9982 0.0557
vn 0.0545 0.9983 0.0203
vn 0.0054 -0.9987 0.0506
vn 0.0387 0.9981 -0.0483
vn 0.0054 -0.9987 -0.0506
vn 0.0054 0.9987 0.0506
vn 0.0054 0.9987 -0.0506
vn 0.0199 -0.9982 -0.0557
vn 0.6919 0.0000 0.7220
usemtl None
s off
f 19/1/1 2/2/1 4/3/1 20/4/1
f 20/4/2 4/3/2 6/5/2 21/6/2
f 21/6/3 6/5/3 8/7/3 22/8/3
f 22/8/4 8/7/4 10/9/4 23/10/4
f 23/10/5 10/9/5 12/11/5 24/12/5
f 24/12/6 12/11/6 14/13/6 25/14/6
f 25/14/7 14/13/7 16/15/7 26/16/7
f 26/16/8 16/15/8 18/17/8 27/18/8
f 27/18/9 19/19/9 1/20/9 17/21/9
f 33/22/10 34/23/10 61/24/10 60/25/10
f 18/17/9 2/26/9 19/19/9 27/18/9
f 15/27/11 26/16/11 27/18/11 17/21/11
f 13/28/12 25/14/12 26/16/12 15/27/12
f 11/29/13 24/12/13 25/14/13 13/28/13
f 9/30/14 23/10/14 24/12/14 11/29/14
f 7/31/15 22/8/15 23/10/15 9/30/15
f 5/32/16 21/6/16 22/8/16 7/31/16
f 3/33/17 20/4/17 21/6/17 5/32/17
f 1/34/18 19/1/18 20/4/18 3/33/18
f 35/35/19 34/23/19 43/36/19 44/37/19
f 16/15/20 14/13/20 52/38/20 53/39/20
f 6/5/21 4/3/21 46/40/21 48/41/21
f 32/42/22 33/22/22 60/25/22 59/43/22
f 31/44/23 32/42/23 59/43/23 58/45/23
f 10/9/24 8/7/24 49/46/24 50/47/24
f 2/26/9 18/17/9 36/48/9 29/49/9
f 30/50/25 31/44/25 58/45/25 57/51/25
f 14/13/26 12/11/26 51/52/26 52/38/26
f 37/53/27 38/54/27 45/55/27 44/56/27 43/57/27 42/58/27 41/59/27 40/60/27 39/61/27
f 32/42/28 31/44/28 40/62/28 41/63/28
f 28/64/29 29/65/29 38/66/29 37/67/29
f 36/48/30 35/35/30 44/37/30 45/68/30
f 33/22/31 32/42/31 41/63/31 42/69/31
f 30/50/32 28/64/32 37/67/32 39/70/32
f 29/49/9 36/48/9 45/68/9 38/71/9
f 34/23/33 33/22/33 42/69/33 43/36/33
f 31/44/34 30/50/34 39/70/34 40/62/34
f 52/38/33 51/52/33 60/25/33 61/24/33
f 51/52/31 50/47/31 59/43/31 60/25/31
f 50/47/28 49/46/28 58/45/28 59/43/28
f 46/40/29 47/72/29 56/73/29 55/74/29
f 49/46/34 48/41/34 57/51/34 58/45/34
f 48/41/32 46/40/32 55/74/32 57/51/32
f 54/75/30 53/39/30 62/76/30 63/77/30
f 53/39/19 52/38/19 61/24/19 62/76/19
f 2/26/35 29/49/35 56/78/35 47/79/35
f 34/23/36 35/35/36 62/76/36 61/24/36
f 12/11/37 10/9/37 50/47/37 51/52/37
f 35/35/38 36/48/38 63/77/38 62/76/38
f 8/7/39 6/5/39 48/41/39 49/46/39
f 29/65/40 28/64/40 55/74/40 56/73/40
f 18/17/41 16/15/41 53/39/41 54/75/41
f 4/3/42 2/2/42 47/72/42 46/40/42
f 28/64/43 30/50/43 57/51/43 55/74/43
f 36/48/44 18/17/44 54/75/44 63/77/44
