# Blender v2.90.1 OBJ File: ''
# www.blender.org
mtllib Barrier_and_emitter.mtl
o Barrier_Emitter_Cylinder.003
v -0.029264 0.000000 -1.500000
v -0.029264 -0.000000 1.500000
v 0.029264 0.000000 -1.500000
v 0.029264 -0.000000 1.500000
v -0.009264 0.000000 -1.480000
v 0.009264 -0.000000 -1.480000
v 0.009264 -0.000000 1.480000
v -0.009264 -0.000000 1.480000
v -0.009264 0.040000 -1.480000
v 0.009264 0.040000 -1.480000
v 0.009264 0.040000 1.480000
v -0.009264 0.040000 1.480000
v -0.029264 0.060000 -1.500000
v 0.029264 0.060000 -1.500000
v 0.029264 0.060000 1.500000
v -0.029264 0.060000 1.500000
v -0.009264 0.020000 -1.480000
v 0.009264 0.020000 -1.480000
v 0.009264 0.020000 1.480000
v -0.009264 0.020000 1.480000
vt 0.978642 0.503333
vt 0.958858 0.503333
vt 0.958858 0.996667
vt 0.978642 0.996667
vt 1.000000 0.500000
vt 0.937500 0.500000
vt 0.937500 1.000000
vt 1.000000 1.000000
vt 0.978642 0.503333
vt 0.978642 0.996667
vt 0.978642 0.996667
vt 0.978642 0.503333
vt 0.958858 0.503333
vt 0.937500 0.500000
vt 1.000000 0.500000
vt 0.958858 0.996667
vt 1.000000 1.000000
vt 0.937500 1.000000
vt 0.958858 0.503333
vt 0.958858 0.996667
vn -0.0000 -1.0000 -0.0000
vn 1.0000 -0.0000 -0.0000
vn 0.0000 0.7071 0.7071
vn 0.0000 0.7071 -0.7071
vn 0.7071 0.7071 0.0000
vn -0.7071 0.7071 0.0000
vn -1.0000 0.0000 0.0000
vn 0.0000 0.0000 -1.0000
vn 0.0000 0.0000 1.0000
usemtl None
s off
f 5/1/1 6/2/1 7/3/1 8/4/1
f 5/1/1 1/5/1 3/6/1 6/2/1
f 7/3/1 4/7/1 2/8/1 8/4/1
f 8/4/1 2/8/1 1/5/1 5/1/1
f 6/2/1 3/6/1 4/7/1 7/3/1
f 9/9/2 12/10/2 20/11/2 17/12/2
f 9/9/3 10/13/3 14/14/3 13/15/3
f 11/16/4 12/10/4 16/17/4 15/18/4
f 12/10/5 9/9/5 13/15/5 16/17/5
f 10/13/6 11/16/6 15/18/6 14/14/6
f 1/5/7 2/8/7 16/17/7 13/15/7
f 3/6/8 1/5/8 13/15/8 14/14/8
f 4/7/2 3/6/2 14/14/2 15/18/2
f 2/8/9 4/7/9 15/18/9 16/17/9
f 10/13/9 9/9/9 17/12/9 18/19/9
f 11/16/7 10/13/7 18/19/7 19/20/7
f 12/10/8 11/16/8 19/20/8 20/11/8
o Barrier_Cylinder.004
v -0.009264 0.020000 -1.480000
v 0.009264 0.020000 -1.480000
v 0.009264 0.020000 1.480000
v -0.009264 0.020000 1.480000
v -0.009261 3.000000 -1.480000
v 0.009266 3.000000 -1.480000
v 0.009266 3.000000 1.480000
v -0.009261 3.000000 1.480000
vt 0.978642 0.503333
vt 0.978642 0.996667
vt 0.978642 0.996667
vt 0.978642 0.503333
vt 0.958858 0.996667
vt 0.958858 0.503333
vt 0.958858 0.503333
vt 0.958858 0.996667
vn -1.0000 0.0000 0.0000
vn 0.0000 1.0000 0.0000
vn 0.0000 0.0000 -1.0000
vn 1.0000 -0.0000 -0.0000
vn 0.0000 -0.0000 1.0000
usemtl None
s off
f 21/21/10 24/22/10 28/23/10 25/24/10
f 25/24/11 28/23/11 27/25/11 26/26/11
f 22/27/12 21/21/12 25/24/12 26/26/12
f 23/28/13 22/27/13 26/26/13 27/25/13
f 24/22/14 23/28/14 27/25/14 28/23/14
