# Blender v2.90.1 OBJ File: 'thin monitor base 2.blend'
# www.blender.org
mtllib monitor_big_side.mtl
o Cube
v 0.500000 0.300000 0.050000
v 0.500000 0.370711 0.064645
v -0.500000 0.300000 0.050000
v -0.500000 0.370711 0.064645
v 0.500000 0.300000 -0.000000
v 0.500000 0.500000 -0.000000
v 0.500000 0.500000 -0.100000
v 0.500000 -0.500000 -0.100000
v 0.500000 -0.500000 -0.000000
v -0.500000 0.300000 -0.000000
v -0.500000 0.500000 -0.000000
v -0.500000 -0.500000 -0.000000
v -0.500000 -0.500000 -0.100000
v -0.500000 0.500000 -0.100000
vt 0.625000 0.500000
vt 0.625000 0.250000
vt 0.625000 0.000000
vt 0.625000 0.750000
vt 0.616919 0.758081
vt 0.625000 1.000000
vt 0.616919 0.991919
vt 0.612500 0.987500
vt 0.612500 0.762500
vt 0.612500 0.987500
vt 0.612500 0.762500
vt 0.625000 0.500000
vt 0.625000 0.250000
vt 0.625000 0.250000
vt 0.612500 0.762500
vt 0.612500 0.762500
vn 0.0000 1.0000 0.0000
vn 0.0000 0.4472 0.8944
vn 0.0000 -0.2028 0.9792
vn -0.0000 -1.0000 -0.0000
vn -0.0000 0.0000 -1.0000
vn 0.0000 -0.0000 1.0000
usemtl Material
s off
f 7/1/1 14/2/1 11/3/1 6/4/1
f 2/5/2 6/4/2 11/6/2 4/7/2
f 4/7/3 3/8/3 1/9/3 2/5/3
f 1/9/4 3/8/4 10/10/4 5/11/4
f 13/12/5 14/2/5 7/13/5 8/14/5
f 10/10/6 12/15/6 9/16/6 5/11/6
