# Blender v2.90.1 OBJ File: 'thin monitor base 2.blend'
# www.blender.org
mtllib monitor_big_body.mtl
o Cube
v 0.500000 0.500000 -0.000000
v 0.500000 0.500000 -0.100000
v 0.500000 -0.500000 -0.100000
v 0.500000 -0.500000 -0.000000
v -0.500000 0.500000 -0.000000
v -0.500000 -0.500000 -0.000000
v -0.500000 -0.500000 -0.100000
v -0.500000 0.500000 -0.100000
vt 0.625000 0.500000
vt 0.625000 0.250000
vt 0.625000 0.250000
vt 0.625000 0.250000
vt 0.612500 0.987500
vt 0.612500 0.762500
vt 0.612500 0.762500
vt 0.612500 0.762500
vn -0.0000 0.0000 -1.0000
vn 0.0000 -0.0000 1.0000
usemtl Material
s off
f 7/1/1 8/2/1 2/3/1 3/4/1
f 5/5/2 6/6/2 4/7/2 1/8/2
