# File produced by Open Asset Import Library (http://www.assimp.sf.net)
# (assimp v3.1.243586452)

mtllib SimpleCrateMaterial.mtl

# vertex positions
v -2.519756 -2.519756 4.000000
v 2.519756 -2.519756 4.000000
v 2.267781 -2.267781 3.600000
v -2.267781 -2.267781 3.600000
v -4.000000 2.519756 -2.519756
v -4.000000 -2.519756 -2.519756
v -3.600000 -2.267781 -2.267781
v -3.600000 2.267781 -2.267781
v -2.519756 -4.000000 -2.519756
v 2.519756 -4.000000 -2.519756
v 2.267781 -3.600000 -2.267781
v -2.267781 -3.600000 -2.267781
v 4.000000 -2.519756 2.519756
v 4.000000 -2.519756 -2.519756
v 3.600000 -2.267781 -2.267781
v 3.600000 -2.267781 2.267781
v 2.519756 2.519756 4.000000
v -2.519756 2.519756 4.000000
v -2.267781 2.267781 3.600000
v 2.267781 2.267781 3.600000
v -2.519756 -4.000000 2.519756
v -4.000000 -2.519756 2.519756
v -2.519756 4.000000 2.519756
v -4.000000 2.519756 2.519756
v -2.519756 -2.519756 -4.000000
v -2.519756 4.000000 -2.519756
v -2.519756 2.519756 -4.000000
v 2.519756 -4.000000 2.519756
v 2.519756 4.000000 2.519756
v 4.000000 2.519756 2.519756
v 2.519756 -2.519756 -4.000000
v 2.519756 4.000000 -2.519756
v 4.000000 2.519756 -2.519756
v 2.519756 2.519756 -4.000000
v -2.267781 3.600000 -2.267781
v 2.267781 3.600000 -2.267781
v 3.600000 2.267781 -2.267781
v 3.600000 2.267781 2.267781
v -3.600000 -2.267781 2.267781
v -3.600000 2.267781 2.267781
v -2.267781 -2.267781 -3.600000
v -2.267781 2.267781 -3.600000
v 2.267781 2.267781 -3.600000
v 2.267781 -2.267781 -3.600000
v -2.267781 3.600000 2.267781
v 2.267781 3.600000 2.267781
v 2.267781 -3.600000 2.267781
v -2.267781 -3.600000 2.267781

# UV coordinates
vt 0.171258 0.750000
vt 0.328742 0.750000
vt 0.578742 0.203742
vt 0.421258 0.203742
vt 0.171258 0.546258
vt 0.328742 0.546258
vt 0.421258 0.703742
vt 0.421258 0.546258
vt 0.671258 0.750000
vt 0.828742 0.750000
vt 0.171258 0.703742
vt 0.125000 0.703742
vt 0.578742 0.953742
vt 0.625000 0.953742
vt 0.578742 1.000000
vt 0.125000 0.546258
vt 0.171258 0.500000
vt 0.828742 0.546258
vt 0.828742 0.500000
vt 0.875000 0.546258
vt 0.328742 0.703742
vt 0.375000 0.703742
vt 0.671258 0.703742
vt 0.625000 0.703742
vt 0.328742 0.500000
vt 0.375000 0.546258
vt 0.671258 0.546258
vt 0.625000 0.546258
vt 0.671258 0.500000
vt 0.421258 0.953742
vt 0.421258 1.000000
vt 0.828742 0.703742
vt 0.875000 0.703742
vt 0.578742 0.296258
vt 0.421258 0.296258
vt 0.578742 0.546258
vt 0.421258 0.453742
vt 0.578742 0.453742
vt 0.578742 0.703742
vt 0.578742 0.796258
vt 0.421258 0.796258
vt 0.421258 0.046258
vt 0.578742 0.046258

# vertex normals
vn 0.000000 0.846111 0.533007
vn -0.533007 0.000000 0.846111
vn 0.000000 -0.533007 0.846111
vn 0.533007 0.846111 0.000000
vn 0.000000 -0.846111 0.533007
vn -0.577350 -0.577350 0.577350
vn -0.577350 0.577350 0.577350
vn -0.577350 -0.577350 -0.577350
vn -0.577350 0.577350 -0.577350
vn 0.577350 -0.577350 0.577350
vn 0.577350 0.577350 0.577350
vn 0.577350 -0.577350 -0.577350
vn 0.577350 0.577350 -0.577350
vn -0.707107 -0.707107 0.000000
vn -0.707107 0.000000 0.707107
vn -0.707107 0.707107 0.000000
vn -0.707107 0.000000 -0.707107
vn 0.000000 -0.707107 -0.707107
vn 0.000000 0.707107 -0.707107
vn 0.707107 0.000000 -0.707107
vn 0.707107 -0.707107 0.000000
vn 0.707107 0.707107 0.000000
vn 0.707107 0.000000 0.707107
vn 0.000000 -0.707107 0.707107
vn 0.000000 0.707107 0.707107
vn 0.000000 0.533007 0.846111
vn 1.000000 0.000000 0.000000
vn -1.000000 0.000000 0.000000
vn -0.533007 -0.846111 0.000000
vn -0.533007 0.000000 -0.846111
vn 0.533007 0.000000 0.846111
vn -0.533007 0.846111 0.000000
vn 0.533007 0.000000 -0.846111
vn 0.533007 -0.846111 0.000000
vn 0.000000 0.000000 1.000000
vn 0.000000 0.000000 -1.000000
vn 0.846111 0.000000 -0.533007
vn -0.846111 0.000000 -0.533007
vn 0.846111 0.000000 0.533007
vn 0.000000 -0.846111 -0.533007
vn 0.000000 0.846111 -0.533007
vn -0.846111 0.000000 0.533007
vn 0.000000 1.000000 0.000000
vn 0.000000 -1.000000 0.000000
vn 0.846111 0.533007 0.000000
vn 0.000000 0.533007 -0.846111
vn 0.846111 -0.533007 0.000000
vn 0.000000 -0.533007 -0.846111
vn -0.846111 0.533007 0.000000
vn -0.846111 -0.533007 0.000000

# Mesh
g Cube_Cube.002
usemtl None
f 4/1/1 1/1/1 2/2/1
f 2/2/1 3/2/1 4/1/1
f 8/3/2 5/3/2 6/4/2
f 6/4/2 7/4/2 8/3/2
f 12/5/3 9/5/3 10/6/3
f 10/6/3 11/6/3 12/5/3
f 16/7/4 13/7/4 14/8/4
f 14/8/4 15/8/4 16/7/4
f 20/9/5 17/9/5 18/10/5
f 18/10/5 19/10/5 20/9/5
f 21/11/6 1/1/6 22/12/6
f 18/13/7 23/14/7 24/15/7
f 9/5/8 6/16/8 25/17/8
f 26/18/9 27/19/9 5/20/9
f 28/21/10 13/22/10 2/2/10
f 29/23/11 17/9/11 30/24/11
f 10/6/12 31/25/12 14/26/12
f 32/27/13 33/28/13 34/29/13
f 6/16/14 9/5/14 21/11/14
f 21/11/14 22/12/14 6/16/14
f 22/31/15 1/30/15 18/13/15
f 18/13/15 24/15/15 22/31/15
f 24/33/16 23/32/16 26/18/16
f 26/18/16 5/20/16 24/33/16
f 5/3/17 27/34/17 25/35/17
f 25/35/17 6/4/17 5/3/17
f 31/25/18 10/6/18 9/5/18
f 9/5/18 25/17/18 31/25/18
f 27/19/19 26/18/19 32/27/19
f 32/27/19 34/29/19 27/19/19
f 34/38/20 33/36/20 14/8/20
f 14/8/20 31/37/20 34/38/20
f 13/7/21 28/21/21 10/6/21
f 10/6/21 14/8/21 13/7/21
f 33/36/22 32/27/22 29/23/22
f 29/23/22 30/39/22 33/36/22
f 30/39/23 17/40/23 2/41/23
f 2/41/23 13/7/23 30/39/23
f 1/1/24 21/11/24 28/21/24
f 28/21/24 2/2/24 1/1/24
f 17/9/25 29/23/25 23/32/25
f 23/32/25 18/10/25 17/9/25
f 36/27/26 32/27/26 26/18/26
f 26/18/26 35/18/26 36/27/26
f 16/7/27 15/8/27 37/36/27
f 37/36/27 38/39/27 16/7/27
f 7/4/28 39/42/28 40/43/28
f 40/43/28 8/3/28 7/4/28
f 40/33/29 24/33/29 5/20/29
f 5/20/29 8/20/29 40/33/29
f 39/31/30 22/31/30 24/15/30
f 24/15/30 40/15/30 39/31/30
f 15/8/31 14/8/31 33/36/31
f 33/36/31 37/36/31 15/8/31
f 7/16/32 6/16/32 22/12/32
f 22/12/32 39/12/32 7/16/32
f 38/39/33 30/39/33 13/7/33
f 13/7/33 16/7/33 38/39/33
f 37/36/34 33/36/34 30/39/34
f 30/39/34 38/39/34 37/36/34
f 4/30/35 3/41/35 20/40/35
f 20/40/35 19/13/35 4/30/35
f 44/37/36 41/35/36 42/34/36
f 42/34/36 43/38/36 44/37/36
f 41/35/37 25/35/37 27/34/37
f 27/34/37 42/34/37 41/35/37
f 43/38/38 34/38/38 31/37/38
f 31/37/38 44/37/38 43/38/38
f 19/13/39 18/13/39 1/30/39
f 1/30/39 4/30/39 19/13/39
f 42/19/40 27/19/40 34/29/40
f 34/29/40 43/29/40 42/19/40
f 44/25/41 31/25/41 25/17/41
f 25/17/41 41/17/41 44/25/41
f 3/41/42 2/41/42 17/40/42
f 17/40/42 20/40/42 3/41/42
f 46/23/43 36/27/43 35/18/43
f 35/18/43 45/32/43 46/23/43
f 48/11/44 12/5/44 11/6/44
f 11/6/44 47/21/44 48/11/44
f 35/18/45 26/18/45 23/32/45
f 23/32/45 45/32/45 35/18/45
f 45/32/46 23/32/46 29/23/46
f 29/23/46 46/23/46 45/32/46
f 48/11/47 21/11/47 9/5/47
f 9/5/47 12/5/47 48/11/47
f 47/21/48 28/21/48 21/11/48
f 21/11/48 48/11/48 47/21/48
f 46/23/49 29/23/49 32/27/49
f 32/27/49 36/27/49 46/23/49
f 11/6/50 10/6/50 28/21/50
f 28/21/50 47/21/50 11/6/50
