# Blender v2.90.1 OBJ File: 'temporary_barricade.blend'
# www.blender.org
mtllib beacon_with_fins.mtl
o Cylinder_Cylinder.001
v 0.048773 0.000000 -0.245197
v 0.048773 1.000000 -0.245197
v 0.138893 0.000000 -0.207868
v 0.138893 1.000000 -0.207868
v 0.207868 0.000000 -0.138893
v 0.207868 1.000000 -0.138893
v 0.245196 0.000000 -0.048773
v 0.245196 1.000000 -0.048773
v 0.245197 0.000000 0.048772
v 0.245197 1.000000 0.048772
v 0.207868 0.000000 0.138892
v 0.138893 0.000000 0.207867
v 0.138893 1.000000 0.207867
v 0.048773 0.000000 0.245196
v 0.048773 1.000000 0.245196
v -0.048773 0.000000 0.245196
v -0.048773 1.000000 0.245196
v -0.138893 0.000000 0.207867
v -0.138893 1.000000 0.207867
v -0.207867 0.000000 0.138892
v -0.245196 0.000000 0.048772
v -0.245196 1.000000 0.048772
v -0.245196 0.000000 -0.048773
v -0.245196 1.000000 -0.048773
v -0.207867 0.000000 -0.138893
v -0.207867 1.000000 -0.138893
v -0.138892 0.000000 -0.207868
v -0.048772 0.000000 -0.245197
v -0.048772 1.000000 -0.245197
v -0.492446 0.000000 0.561420
v 0.492446 0.000000 -0.561421
v -0.561420 0.000000 -0.492447
v 0.207868 1.000000 0.138892
v -0.207867 1.000000 0.138892
v -0.138892 1.000000 -0.207868
v -0.561421 0.000000 0.492445
v 0.561421 0.000000 0.492446
v 0.492446 0.000000 0.561421
v 0.561421 0.000000 -0.492446
v -0.492445 0.000000 -0.561422
vt 0.000000 0.000000
vt 0.000000 0.000000
vt 0.000000 0.000000
vt 0.000000 0.000000
vt 0.000000 0.000000
vt 0.000000 0.000000
vt 0.000000 0.000000
vt 0.000000 0.000000
vt 0.000000 0.000000
vt 0.000000 0.000000
vt 0.000000 0.000000
vt 0.000000 0.000000
vt 0.000000 0.000000
vt 0.000000 0.000000
vt 0.000000 0.000000
vt 0.000000 0.000000
vt 0.000000 0.000000
vt 0.000000 0.000000
vt 0.000000 0.000000
vt 0.000000 0.000000
vt 0.000000 0.000000
vt 0.000000 0.000000
vt 0.000000 0.000000
vt 0.000000 0.000000
vt 0.000000 0.000000
vt 0.000000 0.000000
vt 0.000000 0.000000
vt 0.000000 0.000000
vt 0.000000 0.000000
vt 0.000000 0.000000
vt 0.000000 0.000000
vt 0.000000 0.000000
vt 0.000000 0.000000
vt 0.000000 0.000000
vt 0.000000 0.000000
vt 0.000000 0.000000
vt 0.000000 0.000000
vt 0.000000 0.000000
vt 0.000000 0.000000
vt 0.000000 0.000000
vn 0.0000 1.0000 -0.0000
vn 0.0000 -1.0000 0.0000
vn 0.9239 0.0000 -0.3827
vn -0.7071 0.0000 0.7071
vn 0.3827 0.0000 -0.9239
vn 0.0000 0.0000 -1.0000
vn -0.3827 0.0000 -0.9239
vn -0.6325 0.4472 0.6325
vn -0.9239 0.0000 -0.3827
vn -1.0000 0.0000 -0.0000
vn -0.9239 0.0000 0.3827
vn -0.3827 0.0000 0.9239
vn 0.0000 0.0000 1.0000
vn 0.3827 0.0000 0.9239
vn 0.7071 0.0000 -0.7071
vn 0.9239 0.0000 0.3827
vn 1.0000 0.0000 -0.0000
vn 0.7071 0.0000 0.7071
vn -0.7071 0.0000 -0.7071
vn 0.6325 0.4472 0.6325
vn 0.6325 0.4472 -0.6325
vn -0.6325 0.4472 -0.6325
usemtl None
s off
f 6/1/1 4/2/1 2/3/1 29/4/1 35/5/1 26/6/1 24/7/1 22/8/1 34/9/1 19/10/1 17/11/1 15/12/1 13/13/1 33/14/1 10/15/1 8/16/1
f 5/17/2 7/18/2 9/19/2 11/20/2 12/21/2 14/22/2 16/23/2 18/24/2 20/25/2 21/26/2 23/27/2 25/28/2 27/29/2 28/30/2 1/31/2 3/32/2
f 5/17/3 6/1/3 8/16/3 7/18/3
f 12/21/4 38/33/4 13/13/4
f 1/31/5 2/3/5 4/2/5 3/32/5
f 1/31/6 28/30/6 29/4/6 2/3/6
f 27/29/7 35/5/7 29/4/7 28/30/7
f 34/9/8 36/34/8 30/35/8 19/10/8
f 23/27/9 24/7/9 26/6/9 25/28/9
f 21/26/10 22/8/10 24/7/10 23/27/10
f 20/25/11 34/9/11 22/8/11 21/26/11
f 16/23/12 17/11/12 19/10/12 18/24/12
f 14/22/13 15/12/13 17/11/13 16/23/13
f 12/21/14 13/13/14 15/12/14 14/22/14
f 11/20/15 33/14/15 37/36/15
f 9/19/16 10/15/16 33/14/16 11/20/16
f 7/18/17 8/16/17 10/15/17 9/19/17
f 27/29/15 40/37/15 35/5/15
f 20/25/2 18/24/2 30/35/2 36/34/2
f 5/17/18 39/38/18 6/1/18
f 12/21/2 11/20/2 37/36/2 38/33/2
f 3/32/19 4/2/19 31/39/19
f 20/25/19 36/34/19 34/9/19
f 5/17/2 3/32/2 31/39/2 39/38/2
f 25/28/4 26/6/4 32/40/4
f 18/24/18 19/10/18 30/35/18
f 13/13/20 38/33/20 37/36/20 33/14/20
f 6/1/21 39/38/21 31/39/21 4/2/21
f 27/29/2 25/28/2 32/40/2 40/37/2
f 35/5/22 40/37/22 32/40/22 26/6/22
o Cylinder.001_Cylinder.004
v 0.039018 2.000000 -0.196157
v 0.039018 2.400000 -0.196157
v 0.111114 2.000000 -0.166294
v 0.111114 2.400000 -0.166294
v 0.166294 2.000000 -0.111114
v 0.166294 2.400000 -0.111114
v 0.196157 2.000000 -0.039018
v 0.196157 2.400000 -0.039018
v 0.196157 2.000000 0.039018
v 0.196157 2.400000 0.039018
v 0.166294 2.000000 0.111114
v 0.166294 2.400000 0.111114
v 0.111114 2.000000 0.166294
v 0.111114 2.400000 0.166294
v 0.039018 2.000000 0.196157
v 0.039018 2.400000 0.196157
v -0.039018 2.000000 0.196157
v -0.039018 2.400000 0.196157
v -0.111114 2.000000 0.166294
v -0.111114 2.400000 0.166294
v -0.166294 2.000000 0.111114
v -0.166294 2.400000 0.111114
v -0.196157 2.000000 0.039018
v -0.196157 2.400000 0.039018
v -0.196157 2.000000 -0.039019
v -0.196157 2.400000 -0.039019
v -0.166294 2.000000 -0.111115
v -0.166294 2.400000 -0.111115
v -0.111114 2.000000 -0.166294
v -0.111114 2.400000 -0.166294
v -0.039018 2.000000 -0.196157
v -0.039018 2.400000 -0.196157
vt 0.000000 0.000000
vt 0.000000 0.000000
vt 0.000000 0.000000
vt 0.000000 0.000000
vt 0.000000 0.000000
vt 0.000000 0.000000
vt 0.000000 0.000000
vt 0.000000 0.000000
vt 0.000000 0.000000
vt 0.000000 0.000000
vt 0.000000 0.000000
vt 0.000000 0.000000
vt 0.000000 0.000000
vt 0.000000 0.000000
vt 0.000000 0.000000
vt 0.000000 0.000000
vt 0.000000 0.000000
vt 0.000000 0.000000
vt 0.000000 0.000000
vt 0.000000 0.000000
vt 0.000000 0.000000
vt 0.000000 0.000000
vt 0.000000 0.000000
vt 0.000000 0.000000
vt 0.000000 0.000000
vt 0.000000 0.000000
vt 0.000000 0.000000
vt 0.000000 0.000000
vt 0.000000 0.000000
vt 0.000000 0.000000
vt 0.000000 0.000000
vt 0.000000 0.000000
vn 0.0000 1.0000 0.0000
vn 0.0000 -1.0000 0.0000
vn 0.9239 0.0000 -0.3827
vn 0.7071 0.0000 -0.7071
vn 0.3827 0.0000 -0.9239
vn 0.0000 0.0000 -1.0000
vn -0.3827 0.0000 -0.9239
vn -0.7071 0.0000 -0.7071
vn -0.9239 0.0000 -0.3827
vn -1.0000 0.0000 -0.0000
vn -0.9239 0.0000 0.3827
vn -0.7071 0.0000 0.7071
vn -0.3827 0.0000 0.9239
vn 0.0000 0.0000 1.0000
vn 0.3827 0.0000 0.9239
vn 0.7071 0.0000 0.7071
vn 0.9239 0.0000 0.3827
vn 1.0000 0.0000 -0.0000
usemtl None
s off
f 46/41/23 44/42/23 42/43/23 72/44/23 70/45/23 68/46/23 66/47/23 64/48/23 62/49/23 60/50/23 58/51/23 56/52/23 54/53/23 52/54/23 50/55/23 48/56/23
f 45/57/24 47/58/24 49/59/24 51/60/24 53/61/24 55/62/24 57/63/24 59/64/24 61/65/24 63/66/24 65/67/24 67/68/24 69/69/24 71/70/24 41/71/24 43/72/24
f 45/57/25 46/41/25 48/56/25 47/58/25
f 43/72/26 44/42/26 46/41/26 45/57/26
f 41/71/27 42/43/27 44/42/27 43/72/27
f 41/71/28 71/70/28 72/44/28 42/43/28
f 69/69/29 70/45/29 72/44/29 71/70/29
f 67/68/30 68/46/30 70/45/30 69/69/30
f 65/67/31 66/47/31 68/46/31 67/68/31
f 63/66/32 64/48/32 66/47/32 65/67/32
f 61/65/33 62/49/33 64/48/33 63/66/33
f 59/64/34 60/50/34 62/49/34 61/65/34
f 57/63/35 58/51/35 60/50/35 59/64/35
f 55/62/36 56/52/36 58/51/36 57/63/36
f 53/61/37 54/53/37 56/52/37 55/62/37
f 51/60/38 52/54/38 54/53/38 53/61/38
f 49/59/39 50/55/39 52/54/39 51/60/39
f 47/58/40 48/56/40 50/55/40 49/59/40
o Cylinder.002_Cylinder.005
v 0.048773 2.400000 -0.245196
v 0.048773 3.000000 -0.245196
v 0.138893 2.400000 -0.207867
v 0.138893 3.000000 -0.207867
v 0.207867 2.400000 -0.138893
v 0.207867 3.000000 -0.138893
v 0.245196 2.400000 -0.048773
v 0.245196 3.000000 -0.048773
v 0.245196 2.400000 0.048772
v 0.245196 3.000000 0.048772
v 0.207867 2.400000 0.138892
v 0.207867 3.000000 0.138892
v 0.138893 2.400000 0.207867
v 0.138893 3.000000 0.207867
v 0.048773 2.400000 0.245196
v 0.048773 3.000000 0.245196
v -0.048772 2.400000 0.245196
v -0.048772 3.000000 0.245196
v -0.138892 2.400000 0.207867
v -0.138892 3.000000 0.207867
v -0.207867 2.400000 0.138892
v -0.207867 3.000000 0.138892
v -0.245196 2.400000 0.048772
v -0.245196 3.000000 0.048772
v -0.245196 2.400000 -0.048773
v -0.245196 3.000000 -0.048773
v -0.207867 2.400000 -0.138893
v -0.207867 3.000000 -0.138893
v -0.138892 2.400000 -0.207868
v -0.138892 3.000000 -0.207868
v -0.048772 2.400000 -0.245196
v -0.048772 3.000000 -0.245196
vt 0.000000 0.000000
vt 0.000000 0.000000
vt 0.000000 0.000000
vt 0.000000 0.000000
vt 0.000000 0.000000
vt 0.000000 0.000000
vt 0.000000 0.000000
vt 0.000000 0.000000
vt 0.000000 0.000000
vt 0.000000 0.000000
vt 0.000000 0.000000
vt 0.000000 0.000000
vt 0.000000 0.000000
vt 0.000000 0.000000
vt 0.000000 0.000000
vt 0.000000 0.000000
vt 0.000000 0.000000
vt 0.000000 0.000000
vt 0.000000 0.000000
vt 0.000000 0.000000
vt 0.000000 0.000000
vt 0.000000 0.000000
vt 0.000000 0.000000
vt 0.000000 0.000000
vt 0.000000 0.000000
vt 0.000000 0.000000
vt 0.000000 0.000000
vt 0.000000 0.000000
vt 0.000000 0.000000
vt 0.000000 0.000000
vt 0.000000 0.000000
vt 0.000000 0.000000
vn 0.0000 1.0000 0.0000
vn 0.0000 -1.0000 0.0000
vn 0.9239 0.0000 -0.3827
vn 0.7071 0.0000 -0.7071
vn 0.3827 0.0000 -0.9239
vn 0.0000 0.0000 -1.0000
vn -0.3827 0.0000 -0.9239
vn -0.7071 0.0000 -0.7071
vn -0.9239 0.0000 -0.3827
vn -1.0000 0.0000 -0.0000
vn -0.9239 0.0000 0.3827
vn -0.7071 0.0000 0.7071
vn -0.3827 0.0000 0.9239
vn 0.0000 0.0000 1.0000
vn 0.3827 0.0000 0.9239
vn 0.7071 0.0000 0.7071
vn 0.9239 0.0000 0.3827
vn 1.0000 0.0000 -0.0000
usemtl None
s off
f 78/73/41 76/74/41 74/75/41 104/76/41 102/77/41 100/78/41 98/79/41 96/80/41 94/81/41 92/82/41 90/83/41 88/84/41 86/85/41 84/86/41 82/87/41 80/88/41
f 77/89/42 79/90/42 81/91/42 83/92/42 85/93/42 87/94/42 89/95/42 91/96/42 93/97/42 95/98/42 97/99/42 99/100/42 101/101/42 103/102/42 73/103/42 75/104/42
f 77/89/43 78/73/43 80/88/43 79/90/43
f 75/104/44 76/74/44 78/73/44 77/89/44
f 73/103/45 74/75/45 76/74/45 75/104/45
f 73/103/46 103/102/46 104/76/46 74/75/46
f 101/101/47 102/77/47 104/76/47 103/102/47
f 99/100/48 100/78/48 102/77/48 101/101/48
f 97/99/49 98/79/49 100/78/49 99/100/49
f 95/98/50 96/80/50 98/79/50 97/99/50
f 93/97/51 94/81/51 96/80/51 95/98/51
f 91/96/52 92/82/52 94/81/52 93/97/52
f 89/95/53 90/83/53 92/82/53 91/96/53
f 87/94/54 88/84/54 90/83/54 89/95/54
f 85/93/55 86/85/55 88/84/55 87/94/55
f 83/92/56 84/86/56 86/85/56 85/93/56
f 81/91/57 82/87/57 84/86/57 83/92/57
f 79/90/58 80/88/58 82/87/58 81/91/58
o Cylinder.003_Cylinder.006
v 0.048773 1.000000 -0.245197
v 0.048773 2.000000 -0.245197
v 0.138893 1.000000 -0.207868
v 0.138893 2.000000 -0.207868
v 0.207868 1.000000 -0.138893
v 0.207868 2.000000 -0.138893
v 0.245196 1.000000 -0.048773
v 0.245196 2.000000 -0.048773
v 0.245197 1.000000 0.048772
v 0.245197 2.000000 0.048772
v 0.207868 1.000000 0.138892
v 0.207868 2.000000 0.138892
v 0.138893 1.000000 0.207867
v 0.138893 2.000000 0.207867
v 0.048773 1.000000 0.245196
v 0.048773 2.000000 0.245196
v -0.048773 1.000000 0.245196
v -0.048773 2.000000 0.245196
v -0.138893 1.000000 0.207867
v -0.138893 2.000000 0.207867
v -0.207867 1.000000 0.138892
v -0.207867 2.000000 0.138892
v -0.245196 1.000000 0.048772
v -0.245196 2.000000 0.048772
v -0.245196 1.000000 -0.048773
v -0.245196 2.000000 -0.048773
v -0.207867 1.000000 -0.138893
v -0.207867 2.000000 -0.138893
v -0.138892 1.000000 -0.207868
v -0.138892 2.000000 -0.207868
v -0.048772 1.000000 -0.245197
v -0.048772 2.000000 -0.245197
vt 0.000000 0.000000
vt 0.000000 0.000000
vt 0.000000 0.000000
vt 0.000000 0.000000
vt 0.000000 0.000000
vt 0.000000 0.000000
vt 0.000000 0.000000
vt 0.000000 0.000000
vt 0.000000 0.000000
vt 0.000000 0.000000
vt 0.000000 0.000000
vt 0.000000 0.000000
vt 0.000000 0.000000
vt 0.000000 0.000000
vt 0.000000 0.000000
vt 0.000000 0.000000
vt 0.000000 0.000000
vt 0.000000 0.000000
vt 0.000000 0.000000
vt 0.000000 0.000000
vt 0.000000 0.000000
vt 0.000000 0.000000
vt 0.000000 0.000000
vt 0.000000 0.000000
vt 0.000000 0.000000
vt 0.000000 0.000000
vt 0.000000 0.000000
vt 0.000000 0.000000
vt 0.000000 0.000000
vt 0.000000 0.000000
vt 0.000000 0.000000
vt 0.000000 0.000000
vn 0.0000 1.0000 -0.0000
vn 0.0000 -1.0000 -0.0000
vn 0.9239 0.0000 -0.3827
vn 0.7071 0.0000 -0.7071
vn 0.3827 0.0000 -0.9239
vn 0.0000 0.0000 -1.0000
vn -0.3827 0.0000 -0.9239
vn -0.7071 0.0000 -0.7071
vn -0.9239 0.0000 -0.3827
vn -1.0000 0.0000 -0.0000
vn -0.9239 0.0000 0.3827
vn -0.7071 0.0000 0.7071
vn -0.3827 0.0000 0.9239
vn 0.0000 0.0000 1.0000
vn 0.3827 0.0000 0.9239
vn 0.7071 0.0000 0.7071
vn 0.9239 0.0000 0.3827
vn 1.0000 0.0000 -0.0000
usemtl None
s off
f 110/105/59 108/106/59 106/107/59 136/108/59 134/109/59 132/110/59 130/111/59 128/112/59 126/113/59 124/114/59 122/115/59 120/116/59 118/117/59 116/118/59 114/119/59 112/120/59
f 109/121/60 111/122/60 113/123/60 115/124/60 117/125/60 119/126/60 121/127/60 123/128/60 125/129/60 127/130/60 129/131/60 131/132/60 133/133/60 135/134/60 105/135/60 107/136/60
f 109/121/61 110/105/61 112/120/61 111/122/61
f 107/136/62 108/106/62 110/105/62 109/121/62
f 105/135/63 106/107/63 108/106/63 107/136/63
f 105/135/64 135/134/64 136/108/64 106/107/64
f 133/133/65 134/109/65 136/108/65 135/134/65
f 131/132/66 132/110/66 134/109/66 133/133/66
f 129/131/67 130/111/67 132/110/67 131/132/67
f 127/130/68 128/112/68 130/111/68 129/131/68
f 125/129/69 126/113/69 128/112/69 127/130/69
f 123/128/70 124/114/70 126/113/70 125/129/70
f 121/127/71 122/115/71 124/114/71 123/128/71
f 119/126/72 120/116/72 122/115/72 121/127/72
f 117/125/73 118/117/73 120/116/73 119/126/73
f 115/124/74 116/118/74 118/117/74 117/125/74
f 113/123/75 114/119/75 116/118/75 115/124/75
f 111/122/76 112/120/76 114/119/76 113/123/76
