# Blender v2.90.1 OBJ File: 'thin monitor base 2.blend'
# www.blender.org
mtllib monitor_thin_body.mtl
o Cube
v 0.500000 -0.500000 -0.100000
v -0.500000 -0.500000 -0.000000
v 0.500000 -0.500000 -0.000000
v -0.500000 -0.500000 -0.100000
v -0.300000 -0.500000 -0.000000
v 0.300000 -0.500000 -0.000000
v -0.370711 -0.500000 0.064645
v -0.300000 -0.500000 0.050000
v 0.370711 -0.500000 0.064645
v 0.300000 -0.500000 0.050000
v -0.500000 0.500000 -0.000000
v -0.300000 0.500000 -0.000000
v 0.500000 0.500000 -0.100000
v 0.500000 0.500000 -0.000000
v -0.500000 0.500000 -0.100000
v 0.300000 0.500000 -0.000000
v -0.300000 0.500000 0.050000
v -0.370711 0.500000 0.064645
v 0.300000 0.500000 0.050000
v 0.370711 0.500000 0.064645
vt 0.556250 0.987500
vt 0.500000 0.987500
vt 0.500000 0.987500
vt 0.556250 0.987500
vt 0.556250 0.762500
vt 0.500000 0.762500
vt 0.500000 0.758081
vt 0.558460 0.758081
vt 0.500000 0.750000
vt 0.562500 0.750000
vt 0.558460 0.991919
vt 0.500000 0.991919
vt 0.562500 1.000000
vt 0.500000 1.000000
vt 0.556250 0.762500
vt 0.500000 0.762500
vt 0.500000 0.500000
vt 0.562500 0.500000
vt 0.500000 0.000000
vt 0.562500 0.000000
vt 0.562500 0.250000
vt 0.500000 0.250000
vn 1.0000 0.0000 0.0000
vn -0.2028 0.0000 0.9792
vn 0.4472 0.0000 0.8944
vn 0.2028 0.0000 0.9792
vn -0.4472 0.0000 0.8944
vn -1.0000 0.0000 0.0000
vn 0.0000 0.0000 1.0000
vn 0.0000 0.0000 -1.0000
usemtl Material
s off
f 17/1/1 8/2/1 5/3/1 12/4/1
f 19/5/2 10/6/2 9/7/2 20/8/2
f 20/8/3 9/7/3 3/9/3 14/10/3
f 8/2/4 17/1/4 18/11/4 7/12/4
f 7/12/5 18/11/5 11/13/5 2/14/5
f 10/6/6 19/5/6 16/15/6 6/16/6
f 1/17/1 13/18/1 14/10/1 3/9/1
f 2/19/6 11/20/6 15/21/6 4/22/6
f 16/15/7 12/4/7 5/3/7 6/16/7
f 1/17/8 4/22/8 15/21/8 13/18/8
