# Blender v2.90.1 OBJ File: ''
# www.blender.org
mtllib Barrier_cylinder_indicator.mtl
o Post_Cylinder.002
v -0.029264 0.000000 -0.147118
v -0.029264 3.000000 -0.147118
v 0.029264 0.000000 -0.147118
v 0.029264 3.000000 -0.147118
v 0.083336 0.000000 -0.124720
v 0.083336 3.000000 -0.124720
v 0.124720 0.000000 -0.083336
v 0.124720 3.000000 -0.083336
v 0.147118 0.000000 -0.029264
v 0.147118 3.000000 -0.029264
v 0.147118 0.000000 0.029264
v 0.147118 3.000000 0.029264
v 0.124720 0.000000 0.083336
v 0.124720 3.000000 0.083336
v 0.083336 0.000000 0.124720
v 0.083336 3.000000 0.124720
v 0.029264 0.000000 0.147118
v 0.029264 3.000000 0.147118
v -0.029264 0.000000 0.147118
v -0.029264 3.000000 0.147118
v -0.083336 0.000000 0.124720
v -0.083336 3.000000 0.124720
v -0.124720 0.000000 0.083336
v -0.124720 3.000000 0.083336
v -0.147118 0.000000 0.029264
v -0.147118 3.000000 0.029264
v -0.147118 0.000000 -0.029264
v -0.147118 3.000000 -0.029264
v -0.124720 0.000000 -0.083336
v -0.124720 3.000000 -0.083336
v -0.083335 0.000000 -0.124720
v -0.083335 3.000000 -0.124720
v 0.024291 3.100000 -0.122118
v -0.024291 3.100000 -0.122118
v 0.069174 3.100000 -0.103526
v 0.103526 3.100000 -0.069174
v 0.122118 3.100000 -0.024291
v 0.122118 3.100000 0.024291
v 0.103526 3.100000 0.069174
v 0.069174 3.100000 0.103526
v 0.024291 3.100000 0.122118
v -0.024291 3.100000 0.122118
v -0.069174 3.100000 0.103526
v -0.103526 3.100000 0.069174
v -0.122118 3.100000 0.024291
v -0.122118 3.100000 -0.024291
v -0.103526 3.100000 -0.069174
v -0.069174 3.100000 -0.103526
v 0.029264 3.100000 -0.147118
v -0.029264 3.100000 -0.147118
v 0.083336 3.100000 -0.124720
v 0.124720 3.100000 -0.083336
v 0.147118 3.100000 -0.029264
v 0.147118 3.100000 0.029264
v 0.124720 3.100000 0.083336
v 0.083336 3.100000 0.124720
v 0.029264 3.100000 0.147118
v -0.029264 3.100000 0.147118
v -0.083336 3.100000 0.124720
v -0.124720 3.100000 0.083336
v -0.147118 3.100000 0.029264
v -0.147118 3.100000 -0.029264
v -0.124720 3.100000 -0.083336
v -0.083336 3.100000 -0.124720
v 0.029149 3.200000 -0.146541
v -0.029149 3.200000 -0.146541
v 0.083009 3.200000 -0.124232
v 0.124232 3.200000 -0.083009
v 0.146541 3.200000 -0.029149
v 0.146541 3.200000 0.029149
v 0.124232 3.200000 0.083009
v 0.083009 3.200000 0.124232
v 0.029149 3.200000 0.146541
v -0.029149 3.200000 0.146541
v -0.083009 3.200000 0.124232
v -0.124232 3.200000 0.083009
v -0.146541 3.200000 0.029149
v -0.146541 3.200000 -0.029149
v -0.124232 3.200000 -0.083009
v -0.083009 3.200000 -0.124232
v 0.029149 3.300000 -0.146541
v -0.029149 3.300000 -0.146541
v 0.083009 3.300000 -0.124232
v 0.124232 3.300000 -0.083009
v 0.146541 3.300000 -0.029149
v 0.146541 3.300000 0.029149
v 0.124232 3.300000 0.083009
v 0.083009 3.300000 0.124232
v 0.029149 3.300000 0.146541
v -0.029149 3.300000 0.146541
v -0.083009 3.300000 0.124232
v -0.124232 3.300000 0.083009
v -0.146541 3.300000 0.029149
v -0.146541 3.300000 -0.029149
v -0.124232 3.300000 -0.083009
v -0.083009 3.300000 -0.124232
vt 1.000000 0.500000
vt 1.000000 1.000000
vt 0.937500 1.000000
vt 0.937500 0.500000
vt 0.875000 1.000000
vt 0.875000 0.500000
vt 0.812500 1.000000
vt 0.812500 0.500000
vt 0.750000 1.000000
vt 0.750000 0.500000
vt 0.687500 1.000000
vt 0.687500 0.500000
vt 0.625000 1.000000
vt 0.625000 0.500000
vt 0.562500 1.000000
vt 0.562500 0.500000
vt 0.500000 1.000000
vt 0.500000 0.500000
vt 0.437500 1.000000
vt 0.437500 0.500000
vt 0.375000 1.000000
vt 0.375000 0.500000
vt 0.312500 1.000000
vt 0.312500 0.500000
vt 0.250000 1.000000
vt 0.250000 0.500000
vt 0.187500 1.000000
vt 0.187500 0.500000
vt 0.125000 1.000000
vt 0.125000 0.500000
vt 0.812500 1.000000
vt 0.750000 1.000000
vt 0.062500 1.000000
vt 0.062500 0.500000
vt 0.000000 1.000000
vt 0.000000 0.500000
vt 0.750000 0.490000
vt 0.841844 0.471731
vt 0.919706 0.419706
vt 0.971731 0.341844
vt 0.990000 0.250000
vt 0.971731 0.158156
vt 0.919706 0.080294
vt 0.841844 0.028269
vt 0.750000 0.010000
vt 0.658156 0.028269
vt 0.580294 0.080294
vt 0.528269 0.158156
vt 0.510000 0.250000
vt 0.528269 0.341844
vt 0.580294 0.419706
vt 0.658156 0.471731
vt 0.500000 1.000000
vt 0.437500 1.000000
vt 0.187500 1.000000
vt 0.125000 1.000000
vt 0.937500 1.000000
vt 0.875000 1.000000
vt 0.625000 1.000000
vt 0.562500 1.000000
vt 0.312500 1.000000
vt 0.250000 1.000000
vt 0.687500 1.000000
vt 0.375000 1.000000
vt 0.062500 1.000000
vt 1.000000 1.000000
vt 0.000000 1.000000
vt 0.250000 0.449216
vt 0.326237 0.434052
vt 0.341844 0.471731
vt 0.250000 0.490000
vt 0.390867 0.390867
vt 0.419706 0.419706
vt 0.434052 0.326237
vt 0.471731 0.341844
vt 0.449216 0.250000
vt 0.490000 0.250000
vt 0.434052 0.173763
vt 0.471731 0.158156
vt 0.390867 0.109133
vt 0.419706 0.080294
vt 0.326237 0.065948
vt 0.341844 0.028269
vt 0.250000 0.050784
vt 0.250000 0.010000
vt 0.173763 0.065948
vt 0.158156 0.028269
vt 0.109133 0.109133
vt 0.080294 0.080294
vt 0.065948 0.173763
vt 0.028269 0.158156
vt 0.050784 0.250000
vt 0.010000 0.250000
vt 0.065948 0.326237
vt 0.028269 0.341844
vt 0.109133 0.390867
vt 0.080294 0.419706
vt 0.173763 0.434052
vt 0.158156 0.471731
vt 0.326237 0.434052
vt 0.390867 0.390867
vt 0.434052 0.326237
vt 0.449216 0.250000
vt 0.434052 0.173763
vt 0.390867 0.109133
vt 0.326237 0.065948
vt 0.250000 0.050784
vt 0.173763 0.065948
vt 0.109133 0.109133
vt 0.065948 0.173763
vt 0.050784 0.250000
vt 0.065948 0.326237
vt 0.109133 0.390867
vt 0.173763 0.434052
vt 0.250000 0.449216
vt 0.326237 0.434052
vt 0.250000 0.449216
vt 0.173763 0.434052
vt 0.109133 0.390867
vt 0.065948 0.326237
vt 0.050784 0.250000
vt 0.065948 0.173763
vt 0.109133 0.109133
vt 0.173763 0.065948
vt 0.250000 0.050784
vt 0.326237 0.065948
vt 0.390867 0.109133
vt 0.434052 0.173763
vt 0.449216 0.250000
vt 0.434052 0.326237
vt 0.390867 0.390867
vn 0.0000 0.0000 -1.0000
vn 0.3827 0.0000 -0.9239
vn 0.7071 0.0000 -0.7071
vn 0.9239 0.0000 -0.3827
vn 1.0000 0.0000 0.0000
vn 0.9239 0.0000 0.3827
vn 0.7071 0.0000 0.7071
vn 0.3827 0.0000 0.9239
vn 0.0000 0.0000 1.0000
vn -0.3827 0.0000 0.9239
vn -0.7071 0.0000 0.7071
vn -0.9239 0.0000 0.3827
vn -1.0000 0.0000 -0.0000
vn -0.9239 0.0000 -0.3827
vn -0.7071 0.0000 -0.7071
vn -0.3827 0.0000 -0.9239
vn 0.0000 -1.0000 0.0000
vn 0.0000 1.0000 0.0000
usemtl None
s off
f 1/1/1 2/2/1 4/3/1 3/4/1
f 3/4/2 4/3/2 6/5/2 5/6/2
f 5/6/3 6/5/3 8/7/3 7/8/3
f 7/8/4 8/7/4 10/9/4 9/10/4
f 9/10/5 10/9/5 12/11/5 11/12/5
f 11/12/6 12/11/6 14/13/6 13/14/6
f 13/14/7 14/13/7 16/15/7 15/16/7
f 15/16/8 16/15/8 18/17/8 17/18/8
f 17/18/9 18/17/9 20/19/9 19/20/9
f 19/20/10 20/19/10 22/21/10 21/22/10
f 21/22/11 22/21/11 24/23/11 23/24/11
f 23/24/12 24/23/12 26/25/12 25/26/12
f 25/26/13 26/25/13 28/27/13 27/28/13
f 27/28/14 28/27/14 30/29/14 29/30/14
f 10/9/4 8/7/4 52/31/4 53/32/4
f 29/30/15 30/29/15 32/33/15 31/34/15
f 31/34/16 32/33/16 2/35/16 1/36/16
f 1/37/17 3/38/17 5/39/17 7/40/17 9/41/17 11/42/17 13/43/17 15/44/17 17/45/17 19/46/17 21/47/17 23/48/17 25/49/17 27/50/17 29/51/17 31/52/17
f 20/19/9 18/17/9 57/53/9 58/54/9
f 30/29/14 28/27/14 62/55/14 63/56/14
f 6/5/2 4/3/2 49/57/2 51/58/2
f 16/15/7 14/13/7 55/59/7 56/60/7
f 26/25/12 24/23/12 60/61/12 61/62/12
f 12/11/5 10/9/5 53/32/5 54/63/5
f 22/21/10 20/19/10 58/54/10 59/64/10
f 32/33/15 30/29/15 63/56/15 64/65/15
f 8/7/3 6/5/3 51/58/3 52/31/3
f 18/17/8 16/15/8 56/60/8 57/53/8
f 4/3/1 2/2/1 50/66/1 49/57/1
f 28/27/13 26/25/13 61/62/13 62/55/13
f 14/13/6 12/11/6 54/63/6 55/59/6
f 24/23/11 22/21/11 59/64/11 60/61/11
f 2/35/16 32/33/16 64/65/16 50/67/16
f 34/68/18 33/69/18 49/70/18 50/71/18
f 33/69/18 35/72/18 51/73/18 49/70/18
f 35/72/18 36/74/18 52/75/18 51/73/18
f 36/74/18 37/76/18 53/77/18 52/75/18
f 37/76/18 38/78/18 54/79/18 53/77/18
f 38/78/18 39/80/18 55/81/18 54/79/18
f 39/80/18 40/82/18 56/83/18 55/81/18
f 40/82/18 41/84/18 57/85/18 56/83/18
f 41/84/18 42/86/18 58/87/18 57/85/18
f 42/86/18 43/88/18 59/89/18 58/87/18
f 43/88/18 44/90/18 60/91/18 59/89/18
f 44/90/18 45/92/18 61/93/18 60/91/18
f 45/92/18 46/94/18 62/95/18 61/93/18
f 46/94/18 47/96/18 63/97/18 62/95/18
f 47/96/18 48/98/18 64/99/18 63/97/18
f 48/98/18 34/68/18 50/71/18 64/99/18
f 65/100/17 67/101/17 68/102/17 69/103/17 70/104/17 71/105/17 72/106/17 73/107/17 74/108/17 75/109/17 76/110/17 77/111/17 78/112/17 79/113/17 80/114/17 66/115/17
f 81/116/18 82/117/18 96/118/18 95/119/18 94/120/18 93/121/18 92/122/18 91/123/18 90/124/18 89/125/18 88/126/18 87/127/18 86/128/18 85/129/18 84/130/18 83/131/18
f 68/102/3 67/101/3 83/131/3 84/130/3
f 76/110/11 75/109/11 91/123/11 92/122/11
f 69/103/4 68/102/4 84/130/4 85/129/4
f 77/111/12 76/110/12 92/122/12 93/121/12
f 70/104/5 69/103/5 85/129/5 86/128/5
f 78/112/13 77/111/13 93/121/13 94/120/13
f 71/105/6 70/104/6 86/128/6 87/127/6
f 79/113/14 78/112/14 94/120/14 95/119/14
f 72/106/7 71/105/7 87/127/7 88/126/7
f 80/114/15 79/113/15 95/119/15 96/118/15
f 73/107/8 72/106/8 88/126/8 89/125/8
f 65/100/1 66/115/1 82/117/1 81/116/1
f 66/115/16 80/114/16 96/118/16 82/117/16
f 74/108/9 73/107/9 89/125/9 90/124/9
f 67/101/2 65/100/2 81/116/2 83/131/2
f 75/109/10 74/108/10 90/124/10 91/123/10
f 33/69/18 34/68/18 48/98/18 47/96/18 46/94/18 45/92/18 44/90/18 43/88/18 42/86/18 41/84/18 40/82/18 39/80/18 38/78/18 37/76/18 36/74/18 35/72/18
o Barrier_Emitter_Cylinder.003
v -0.029264 0.000000 -0.147118
v -0.029264 3.000000 -0.147118
v 0.029264 0.000000 -0.147118
v 0.029264 3.000000 -0.147118
v -0.009264 0.020000 -0.147118
v 0.009264 0.020000 -0.147118
v 0.009264 2.980000 -0.147118
v -0.009264 2.980000 -0.147118
v -0.009264 0.020000 -0.187118
v 0.009264 0.020000 -0.187118
v 0.009264 2.980000 -0.187118
v -0.009264 2.980000 -0.187118
v -0.029264 0.000000 -0.207118
v 0.029264 0.000000 -0.207118
v 0.029264 3.000000 -0.207118
v -0.029264 3.000000 -0.207118
v -0.009264 0.020000 -0.167118
v 0.009264 0.020000 -0.167118
v 0.009264 2.980000 -0.167118
v -0.009264 2.980000 -0.167118
vt 0.978642 0.503333
vt 0.958858 0.503333
vt 0.958858 0.996667
vt 0.978642 0.996667
vt 1.000000 0.500000
vt 0.937500 0.500000
vt 0.937500 1.000000
vt 1.000000 1.000000
vt 0.978642 0.503333
vt 0.978642 0.996667
vt 0.978642 0.996667
vt 0.978642 0.503333
vt 0.958858 0.503333
vt 0.937500 0.500000
vt 1.000000 0.500000
vt 0.958858 0.996667
vt 1.000000 1.000000
vt 0.937500 1.000000
vt 0.958858 0.503333
vt 0.958858 0.996667
vn -0.0000 0.0000 1.0000
vn 1.0000 0.0000 0.0000
vn 0.0000 0.7071 -0.7071
vn 0.0000 -0.7071 -0.7071
vn 0.7071 0.0000 -0.7071
vn -0.7071 0.0000 -0.7071
vn -1.0000 0.0000 -0.0000
vn 0.0000 -1.0000 0.0000
vn 0.0000 1.0000 0.0000
usemtl None
s off
f 101/132/19 102/133/19 103/134/19 104/135/19
f 101/132/19 97/136/19 99/137/19 102/133/19
f 103/134/19 100/138/19 98/139/19 104/135/19
f 104/135/19 98/139/19 97/136/19 101/132/19
f 102/133/19 99/137/19 100/138/19 103/134/19
f 105/140/20 108/141/20 116/142/20 113/143/20
f 105/140/21 106/144/21 110/145/21 109/146/21
f 107/147/22 108/141/22 112/148/22 111/149/22
f 108/141/23 105/140/23 109/146/23 112/148/23
f 106/144/24 107/147/24 111/149/24 110/145/24
f 97/136/25 98/139/25 112/148/25 109/146/25
f 99/137/26 97/136/26 109/146/26 110/145/26
f 100/138/20 99/137/20 110/145/20 111/149/20
f 98/139/27 100/138/27 111/149/27 112/148/27
f 106/144/27 105/140/27 113/143/27 114/150/27
f 107/147/25 106/144/25 114/150/25 115/151/25
f 108/141/26 107/147/26 115/151/26 116/142/26
o Barrier_Cylinder.004
v -0.009264 0.020000 -0.167118
v 0.009264 0.020000 -0.167118
v 0.009264 2.980000 -0.167118
v -0.009264 2.980000 -0.167118
v -0.009261 0.020000 -3.147118
v 0.009266 0.020000 -3.147118
v 0.009266 2.980000 -3.147118
v -0.009261 2.980000 -3.147118
vt 0.978642 0.503333
vt 0.978642 0.996667
vt 0.978642 0.996667
vt 0.978642 0.503333
vt 0.958858 0.996667
vt 0.958858 0.503333
vt 0.958858 0.503333
vt 0.958858 0.996667
vn -1.0000 0.0000 -0.0000
vn 0.0000 0.0000 -1.0000
vn 0.0000 -1.0000 0.0000
vn 1.0000 0.0000 0.0000
vn 0.0000 1.0000 0.0000
usemtl None
s off
f 117/152/28 120/153/28 124/154/28 121/155/28
f 121/155/29 124/154/29 123/156/29 122/157/29
f 118/158/30 117/152/30 121/155/30 122/157/30
f 119/159/31 118/158/31 122/157/31 123/156/31
f 120/153/32 119/159/32 123/156/32 124/154/32
o Barrier_Status_Cylinder.005
v 0.024291 3.100000 -0.122118
v -0.024291 3.100000 -0.122118
v 0.069174 3.100000 -0.103526
v 0.103526 3.100000 -0.069174
v 0.122118 3.100000 -0.024291
v 0.122118 3.100000 0.024291
v 0.103526 3.100000 0.069174
v 0.069174 3.100000 0.103526
v 0.024291 3.100000 0.122118
v -0.024291 3.100000 0.122118
v -0.069174 3.100000 0.103526
v -0.103526 3.100000 0.069174
v -0.122118 3.100000 0.024291
v -0.122118 3.100000 -0.024291
v -0.103526 3.100000 -0.069174
v -0.069174 3.100000 -0.103526
v 0.024291 3.200000 -0.122118
v -0.024291 3.200000 -0.122118
v 0.069174 3.200000 -0.103526
v 0.103526 3.200000 -0.069174
v 0.122118 3.200000 -0.024291
v 0.122118 3.200000 0.024291
v 0.103526 3.200000 0.069174
v 0.069174 3.200000 0.103526
v 0.024291 3.200000 0.122118
v -0.024291 3.200000 0.122118
v -0.069174 3.200000 0.103526
v -0.103526 3.200000 0.069174
v -0.122118 3.200000 0.024291
v -0.122118 3.200000 -0.024291
v -0.103526 3.200000 -0.069174
v -0.069174 3.200000 -0.103526
vt 0.065948 0.326237
vt 0.050784 0.250000
vt 0.050784 0.250000
vt 0.065948 0.326237
vt 0.390867 0.109133
vt 0.434052 0.173763
vt 0.434052 0.173763
vt 0.390867 0.109133
vt 0.109133 0.390867
vt 0.109133 0.390867
vt 0.326237 0.065948
vt 0.326237 0.065948
vt 0.173763 0.434052
vt 0.173763 0.434052
vt 0.250000 0.050784
vt 0.250000 0.050784
vt 0.326237 0.434052
vt 0.250000 0.449216
vt 0.250000 0.449216
vt 0.326237 0.434052
vt 0.173763 0.065948
vt 0.173763 0.065948
vt 0.390867 0.390867
vt 0.390867 0.390867
vt 0.109133 0.109133
vt 0.109133 0.109133
vt 0.434052 0.326237
vt 0.434052 0.326237
vt 0.065948 0.173763
vt 0.065948 0.173763
vt 0.449216 0.250000
vt 0.449216 0.250000
vn -1.0000 0.0000 -0.0000
vn 0.9239 0.0000 0.3827
vn -0.9239 0.0000 -0.3827
vn 0.7071 0.0000 0.7071
vn -0.7071 0.0000 -0.7071
vn 0.3827 0.0000 0.9239
vn 0.0000 0.0000 -1.0000
vn -0.3827 0.0000 -0.9239
vn 0.0000 0.0000 1.0000
vn 0.3827 0.0000 -0.9239
vn -0.3827 0.0000 0.9239
vn 0.7071 0.0000 -0.7071
vn -0.7071 0.0000 0.7071
vn 0.9239 0.0000 -0.3827
vn -0.9239 0.0000 0.3827
vn 1.0000 0.0000 0.0000
usemtl None
s off
f 138/160/33 137/161/33 153/162/33 154/163/33
f 131/164/34 130/165/34 146/166/34 147/167/34
f 139/168/35 138/160/35 154/163/35 155/169/35
f 132/170/36 131/164/36 147/167/36 148/171/36
f 140/172/37 139/168/37 155/169/37 156/173/37
f 133/174/38 132/170/38 148/171/38 149/175/38
f 125/176/39 126/177/39 142/178/39 141/179/39
f 126/177/40 140/172/40 156/173/40 142/178/40
f 134/180/41 133/174/41 149/175/41 150/181/41
f 127/182/42 125/176/42 141/179/42 143/183/42
f 135/184/43 134/180/43 150/181/43 151/185/43
f 128/186/44 127/182/44 143/183/44 144/187/44
f 136/188/45 135/184/45 151/185/45 152/189/45
f 129/190/46 128/186/46 144/187/46 145/191/46
f 137/161/47 136/188/47 152/189/47 153/162/47
f 130/165/48 129/190/48 145/191/48 146/166/48
