# Blender v2.90.1 OBJ File: 'enemy_spawn_structure.blend'
# www.blender.org
mtllib enemy_spawn_structure_corner_panel.mtl
o Cube_Cube.003
v 0.707107 1.500000 0.000000
v 0.000000 1.500000 -0.707107
v 0.848528 1.500000 0.000000
v 0.000000 1.500000 0.707107
v -0.654074 0.025000 -0.053033
v -0.654074 0.075000 -0.053033
v 0.671751 0.075000 -0.035355
v 0.671751 0.025000 -0.035355
v -0.707107 1.475000 0.000000
v -0.654074 1.475000 0.053033
v 0.671751 1.475000 0.035355
v 0.707107 1.475000 0.000000
v -0.654074 0.025000 0.053033
v -0.707107 0.025000 0.000000
v 0.707107 0.025000 0.000000
v 0.671751 0.025000 0.035355
v -0.654074 1.425000 -0.053033
v -0.654074 1.475000 -0.053033
v 0.671751 1.475000 -0.035355
v 0.671751 1.425000 -0.035355
v -0.707107 0.075000 0.000000
v 0.707107 0.075000 0.000000
v 0.671751 0.075000 0.035355
v -0.654074 0.075000 0.053033
v 0.671751 1.425000 0.035355
v 0.707107 1.425000 0.000000
v -0.707107 1.425000 0.000000
v -0.654074 1.425000 0.053033
v 0.707107 0.025000 0.000000
v 0.000000 0.025000 -0.707107
v 0.848528 0.025000 0.000000
v 0.000000 0.025000 0.707107
vt 0.500008 0.000000
vt 0.625000 0.000000
vt 0.625000 0.250000
vt 0.500008 0.250000
vt 0.625000 0.500000
vt 0.500008 0.500000
vt 0.625000 0.750000
vt 0.500008 0.750000
vt 0.625000 1.000000
vt 0.500008 1.000000
vt 0.875000 0.500000
vt 0.875000 0.750000
vt 0.375000 0.375000
vt 0.375000 0.375000
vt 0.375000 0.375000
vt 0.375000 0.375000
vt 0.625000 0.500000
vt 0.625000 0.625000
vt 0.625000 0.625000
vt 0.625000 0.500000
vt 0.375000 0.625000
vt 0.375000 0.500000
vt 0.375000 0.500000
vt 0.375000 0.625000
vt 0.625000 0.375000
vt 0.625000 0.375000
vt 0.625000 0.375000
vt 0.625000 0.375000
vt 0.375000 0.500000
vt 0.375000 0.500000
vt 0.375000 0.625000
vt 0.250000 0.500000
vt 0.250000 0.500000
vt 0.375000 0.625000
vt 0.625000 0.625000
vt 0.625000 0.500000
vt 0.625000 0.500000
vt 0.625000 0.625000
vn -0.4264 -0.9045 -0.0000
vn -0.7071 -0.0000 0.7071
vn -0.6228 -0.5372 -0.5688
vn 0.6402 0.0000 -0.7682
vn 0.8227 -0.5684 -0.0000
vn 0.6402 -0.0000 0.7682
vn -0.6228 -0.5372 0.5688
vn -0.7071 0.0000 -0.7071
vn 0.0000 1.0000 0.0000
vn 0.0133 0.0000 -0.9999
vn 0.0000 -1.0000 -0.0000
vn 0.7071 0.0000 -0.7071
vn 0.7071 0.0000 0.7071
vn 0.0133 -0.0000 0.9999
usemtl None
s 1
f 29/1/1 1/2/2 2/3/2 30/4/3
f 30/4/3 2/3/4 3/5/4 31/6/5
f 31/6/5 3/5/6 4/7/6 32/8/7
f 32/8/7 4/7/8 1/9/8 29/10/1
f 3/5/9 2/11/9 1/12/9 4/7/9
f 5/13/10 6/14/10 7/15/10 8/16/10
f 9/17/9 10/18/9 11/19/9 12/20/9
f 13/21/11 14/22/11 15/23/11 16/24/11
f 17/25/10 18/26/10 19/27/10 20/28/10
f 6/14/8 5/13/8 14/22/8 21/29/8
f 7/15/12 22/30/12 15/23/12 8/16/12
f 22/30/13 23/31/13 16/24/13 15/23/13
f 14/22/11 5/32/11 8/33/11 15/23/11
f 21/29/9 24/34/9 23/31/9 22/30/9
f 6/14/9 21/29/9 22/30/9 7/15/9
f 24/34/14 13/21/14 16/24/14 23/31/14
f 25/35/13 26/36/13 12/20/13 11/19/13
f 26/36/12 20/28/12 19/27/12 12/20/12
f 18/26/9 9/17/9 12/20/9 19/27/9
f 27/37/11 17/25/11 20/28/11 26/36/11
f 28/38/11 27/37/11 26/36/11 25/35/11
f 10/18/14 28/38/14 25/35/14 11/19/14
f 21/29/2 14/22/2 13/21/2 24/34/2
f 27/37/8 9/17/8 18/26/8 17/25/8
f 28/38/2 10/18/2 9/17/2 27/37/2
f 29/10/1 31/6/5 32/8/7
f 31/6/5 29/1/1 30/4/3
l 1 3
