# Blender v2.80 (sub 75) OBJ File: ''
# www.blender.org
mtllib BasicPipe.mtl
o Cylinder_Cylinder.001
v 0.000000 -3.000000 -2.500000
v 0.000000 -3.024537 -2.500000
v 0.382683 -3.024537 -2.423879
v 0.382683 -3.000000 -2.423879
v 0.707107 -3.024537 -2.207107
v 0.707107 -3.000000 -2.207107
v 0.923880 -3.024537 -1.882683
v 0.923880 -3.000000 -1.882683
v 1.000000 -3.024537 -1.500000
v 1.000000 -3.000000 -1.500000
v 0.923880 -3.024537 -1.117317
v 0.923880 -3.000000 -1.117317
v 0.707107 -3.024537 -0.792893
v 0.707107 -3.000000 -0.792893
v 0.382683 -3.024537 -0.576121
v 0.382683 -3.000000 -0.576121
v 0.000000 -3.024537 -0.500000
v 0.000000 -3.000000 -0.500000
v -0.382683 -3.024537 -0.576120
v -0.382683 -3.000000 -0.576120
v -0.707107 -3.024537 -0.792893
v -0.707107 -3.000000 -0.792893
v -0.923880 -3.024537 -1.117316
v -0.923880 -3.000000 -1.117316
v -1.000000 -3.024537 -1.500000
v -1.000000 -3.000000 -1.500000
v -0.923879 -3.024537 -1.882684
v -0.923879 -3.000000 -1.882684
v -0.707107 -3.024537 -2.207107
v -0.707107 -3.000000 -2.207107
v -0.707107 -2.812872 -2.207107
v -0.382683 -2.812872 -2.423880
v -0.460503 -2.833837 -2.611754
v -0.850899 -2.833837 -2.350900
v -0.382683 -3.024537 -2.423880
v -0.382683 -3.000000 -2.423880
v 1.000000 -2.812872 -1.500000
v 0.923880 -2.812872 -1.882683
v 0.923880 -1.790488 -1.882683
v 1.000000 -1.790488 -1.500000
v -1.111754 -3.000014 -1.039497
v -1.203353 -3.000014 -1.500000
v 0.850899 -3.000014 -2.350899
v 1.111753 -3.000014 -1.960503
v 0.000000 -2.812872 -2.500000
v 0.382683 -2.812872 -2.423879
v 0.460503 -2.833837 -2.611754
v 0.000000 -2.833837 -2.703353
v -0.923879 -2.812872 -1.882684
v -1.111753 -2.833837 -1.960504
v -0.460503 -3.000014 -2.611754
v 0.000000 -3.000014 -2.703353
v 0.850899 -3.000014 -0.649101
v 0.460503 -3.000014 -0.388247
v -1.000000 -2.812872 -1.500000
v -1.203353 -2.833837 -1.500000
v -0.923880 -2.812872 -1.117316
v -1.111754 -2.833837 -1.039497
v -0.850899 -3.000014 -0.649101
v 0.460503 -3.000014 -2.611754
v -0.707107 -2.812872 -0.792893
v -0.850899 -2.833837 -0.649101
v -0.850899 -3.000014 -2.350900
v 1.111753 -3.000014 -1.039497
v -0.382683 -2.812872 -0.576120
v -0.460503 -2.833837 -0.388246
v 0.000000 -2.812872 -0.500000
v 0.000000 -2.833837 -0.296647
v 0.707107 -1.790488 -2.207107
v 0.382684 -1.790488 -2.423879
v 0.474915 -1.660184 -2.646546
v 0.877528 -1.660184 -2.377528
v -0.923879 -1.790488 -1.117316
v -1.000000 -1.790488 -1.500000
v 0.923880 -2.812872 -1.117317
v 0.923880 -1.790488 -1.117317
v -0.923879 -1.790488 -1.882684
v 0.707107 -2.812872 -0.792893
v 0.707107 -1.790488 -0.792893
v -0.707106 -1.790488 -2.207107
v 0.382683 -2.812872 -0.576121
v 0.382684 -1.790488 -0.576121
v -0.382683 -1.790488 -2.423880
v 0.000000 -1.790488 -0.500000
v 0.000000 -1.790488 -2.500000
v -0.382683 -1.790488 -0.576120
v 0.707107 -2.812872 -2.207107
v -0.707107 -1.790488 -0.792893
v 1.203353 -3.000014 -1.500000
v 1.203353 -2.833837 -1.500000
v 1.111753 -2.833837 -1.039497
v -0.460503 -3.000014 -0.388246
v 0.850899 -2.833837 -2.350899
v 1.111753 -2.833837 -1.960503
v 0.000000 -3.000014 -0.296647
v 0.460503 -2.833837 -0.388247
v -1.111753 -3.000014 -1.960504
v 0.850899 -2.833837 -0.649101
v 0.707107 -1.191094 -2.207107
v 0.382684 -1.191094 -2.423879
v 0.382684 -0.307123 -2.423878
v 0.707107 -0.307123 -2.207107
v -1.000000 -1.191094 -1.500000
v -0.923879 -1.191094 -1.882684
v -1.146546 -1.321399 -1.974915
v -1.241012 -1.321399 -1.500000
v -0.877528 -1.660184 -2.377528
v -0.474914 -1.660184 -2.646546
v 0.000000 -1.660184 -2.741012
v -0.923879 -1.191094 -1.117316
v -1.146546 -1.321399 -1.025085
v -1.146546 -1.660184 -1.974915
v -0.707107 -1.191094 -0.792893
v -0.877528 -1.321399 -0.622472
v -1.241012 -1.660184 -1.500000
v -0.382683 -1.191094 -0.576120
v -0.474915 -1.321399 -0.353454
v -1.146546 -1.660184 -1.025085
v 0.000000 -1.191094 -0.500000
v 0.000000 -1.321399 -0.258988
v -0.877528 -1.660184 -0.622472
v 0.382684 -1.191094 -0.576121
v 0.474915 -1.321399 -0.353454
v -0.474915 -1.660184 -0.353454
v 0.707107 -1.191094 -0.792893
v 0.877528 -1.321399 -0.622472
v 0.000000 -1.660184 -0.258988
v 0.382684 -0.307124 -0.576121
v 0.707107 -0.307124 -0.792893
v 0.707107 -0.205322 -0.792893
v 0.382684 -0.205322 -0.576120
v -0.382683 -0.307124 -0.576120
v -0.707107 -0.307124 -0.792893
v 0.923880 -1.191094 -1.882683
v 0.923880 -0.307124 -1.882683
v -0.923879 -0.307124 -1.117316
v 1.000000 -1.191094 -1.500000
v 1.000000 -0.307124 -1.500000
v -1.000000 -0.307124 -1.500000
v 0.923880 -1.191094 -1.117317
v 0.923880 -0.307124 -1.117316
v -0.923879 -0.307124 -1.882684
v -0.707106 -1.191094 -2.207107
v -0.707106 -0.307123 -2.207107
v -0.382683 -1.191094 -2.423880
v -0.382683 -0.307123 -2.423879
v 0.000000 -0.307124 -0.500000
v 0.000000 -1.191094 -2.500000
v 0.000000 -0.307123 -2.500000
v -0.923879 0.006160 -1.882684
v -0.707107 0.006160 -2.207107
v -0.844036 -0.000192 -2.344037
v -1.102787 -0.000193 -1.956789
v -0.707106 -0.205322 -2.207107
v -0.382683 -0.205322 -2.423879
v 0.000000 -0.205322 -0.500000
v 0.000000 -0.205322 -2.500000
v 0.382684 -0.205322 -2.423878
v -0.382683 -0.205322 -0.576120
v 0.707107 -0.205322 -2.207107
v -0.707107 -0.205322 -0.792893
v 0.923880 -0.205322 -1.882683
v -0.923879 -0.205322 -1.117316
v 1.000000 -0.205322 -1.500000
v -1.000000 -0.205322 -1.500000
v 0.923880 -0.205322 -1.117316
v -0.923879 -0.205322 -1.882684
v 0.474915 -1.321398 -2.646546
v 0.877528 -1.321399 -2.377528
v 1.146546 -1.660184 -1.974915
v 1.146546 -1.321399 -1.974915
v 1.241012 -1.660184 -1.500000
v 1.241012 -1.321399 -1.500000
v 1.146546 -1.660184 -1.025085
v 1.146546 -1.321399 -1.025085
v 0.877528 -1.660184 -0.622472
v -0.877528 -1.321399 -2.377528
v 0.474915 -1.660184 -0.353454
v -0.474914 -1.321398 -2.646546
v 0.000000 -1.321398 -2.741012
v -0.456789 -0.198969 -2.602786
v -0.000000 -0.198969 -2.693648
v 0.456789 -0.198969 -2.602786
v 0.844036 -0.198969 -2.344036
v -1.000000 0.006160 -1.500000
v -1.193647 -0.000193 -1.500000
v -0.844036 -0.198969 -2.344037
v -0.923880 0.006160 -1.117316
v -1.102787 -0.000193 -1.043211
v -1.102787 -0.198969 -1.956789
v -0.707107 0.006160 -0.792893
v -0.844036 -0.000193 -0.655963
v -1.193647 -0.198969 -1.500000
v -0.382683 0.006160 -0.576120
v -0.456789 -0.000193 -0.397213
v -1.102787 -0.198969 -1.043211
v 0.000000 0.006160 -0.500000
v -0.000000 -0.000193 -0.306352
v -0.844036 -0.198969 -0.655963
v 0.382684 0.006160 -0.576120
v 0.456789 -0.000193 -0.397213
v -0.456789 -0.198969 -0.397213
v -0.382683 0.006160 -2.423879
v 0.707107 0.006160 -0.792893
v 0.923880 0.006160 -1.117316
v 1.000000 0.006160 -1.500000
v 0.923880 0.006160 -1.882683
v 0.707107 0.006160 -2.207107
v 0.382683 0.006160 -2.423878
v 0.000000 0.006160 -2.500000
v 0.456789 -0.198969 -0.397213
v 0.844036 -0.198969 -0.655963
v 0.844036 -0.000193 -0.655963
v -0.456789 -0.000192 -2.602786
v -0.000000 -0.198969 -0.306352
v -0.000000 -0.000192 -2.693648
v 0.456789 -0.000192 -2.602786
v 0.844036 -0.000192 -2.344036
v 1.102787 -0.198969 -1.956789
v 1.102787 -0.000193 -1.956789
v 1.193647 -0.198969 -1.500000
v 1.193647 -0.000193 -1.500000
v 1.102787 -0.198969 -1.043211
v 1.102787 -0.000193 -1.043211
vt 1.000000 0.500000
vt 1.000000 1.000000
vt 0.937500 1.000000
vt 0.937500 0.500000
vt 0.875000 1.000000
vt 0.875000 0.500000
vt 0.812500 1.000000
vt 0.812500 0.500000
vt 0.750000 1.000000
vt 0.750000 0.500000
vt 0.687500 1.000000
vt 0.687500 0.500000
vt 0.625000 1.000000
vt 0.625000 0.500000
vt 0.562500 1.000000
vt 0.562500 0.500000
vt 0.500000 1.000000
vt 0.500000 0.500000
vt 0.437500 1.000000
vt 0.437500 0.500000
vt 0.375000 1.000000
vt 0.375000 0.500000
vt 0.312500 1.000000
vt 0.312500 0.500000
vt 0.250000 1.000000
vt 0.250000 0.500000
vt 0.187500 1.000000
vt 0.187500 0.500000
vt 0.125000 1.000000
vt 0.125000 0.500000
vt 0.125000 1.000000
vt 0.062500 1.000000
vt 0.062500 1.000000
vt 0.125000 1.000000
vt 0.062500 1.000000
vt 0.062500 0.500000
vt 0.000000 1.000000
vt 0.000000 0.500000
vt 0.750000 0.490000
vt 0.841844 0.471731
vt 0.919706 0.419706
vt 0.971731 0.341844
vt 0.990000 0.250000
vt 0.971731 0.158156
vt 0.919706 0.080294
vt 0.841844 0.028269
vt 0.750000 0.010000
vt 0.658156 0.028269
vt 0.580294 0.080294
vt 0.528269 0.158156
vt 0.510000 0.250000
vt 0.528269 0.341844
vt 0.580294 0.419706
vt 0.658156 0.471731
vt 0.750000 1.000000
vt 0.812500 1.000000
vt 0.812500 1.000000
vt 0.750000 1.000000
vt 0.312500 1.000000
vt 0.250000 1.000000
vt 0.875000 1.000000
vt 0.812500 1.000000
vt 1.000000 1.000000
vt 0.937500 1.000000
vt 0.937500 1.000000
vt 1.000000 1.000000
vt 0.187500 1.000000
vt 0.187500 1.000000
vt 0.062500 1.000000
vt 0.000000 1.000000
vt 0.625000 1.000000
vt 0.562500 1.000000
vt 0.250000 1.000000
vt 0.250000 1.000000
vt 0.312500 1.000000
vt 0.312500 1.000000
vt 0.375000 1.000000
vt 0.937500 1.000000
vt 0.375000 1.000000
vt 0.375000 1.000000
vt 0.125000 1.000000
vt 0.687500 1.000000
vt 0.437500 1.000000
vt 0.437500 1.000000
vt 0.500000 1.000000
vt 0.500000 1.000000
vt 0.875000 1.000000
vt 0.937500 1.000000
vt 0.937500 1.000000
vt 0.875000 1.000000
vt 0.312500 1.000000
vt 0.250000 1.000000
vt 0.687500 1.000000
vt 0.687500 1.000000
vt 0.187500 1.000000
vt 0.625000 1.000000
vt 0.625000 1.000000
vt 0.125000 1.000000
vt 0.562500 1.000000
vt 0.562500 1.000000
vt 0.062500 1.000000
vt 0.500000 1.000000
vt 1.000000 1.000000
vt 0.000000 1.000000
vt 0.000000 1.000000
vt 0.437500 1.000000
vt 0.875000 1.000000
vt 0.375000 1.000000
vt 0.750000 1.000000
vt 0.750000 1.000000
vt 0.687500 1.000000
vt 0.437500 1.000000
vt 0.875000 1.000000
vt 0.812500 1.000000
vt 0.500000 1.000000
vt 0.562500 1.000000
vt 1.000000 1.000000
vt 0.187500 1.000000
vt 0.625000 1.000000
vt 0.000000 1.000000
vt 0.875000 1.000000
vt 0.937500 1.000000
vt 0.937500 1.000000
vt 0.875000 1.000000
vt 0.250000 1.000000
vt 0.187500 1.000000
vt 0.187500 1.000000
vt 0.250000 1.000000
vt 0.125000 1.000000
vt 0.062500 1.000000
vt 1.000000 1.000000
vt 0.312500 1.000000
vt 0.312500 1.000000
vt 0.187500 1.000000
vt 0.375000 1.000000
vt 0.375000 1.000000
vt 0.250000 1.000000
vt 0.437500 1.000000
vt 0.437500 1.000000
vt 0.312500 1.000000
vt 0.500000 1.000000
vt 0.500000 1.000000
vt 0.375000 1.000000
vt 0.562500 1.000000
vt 0.562500 1.000000
vt 0.437500 1.000000
vt 0.625000 1.000000
vt 0.625000 1.000000
vt 0.500000 1.000000
vt 0.562500 1.000000
vt 0.625000 1.000000
vt 0.625000 1.000000
vt 0.562500 1.000000
vt 0.437500 1.000000
vt 0.375000 1.000000
vt 0.812500 1.000000
vt 0.812500 1.000000
vt 0.312500 1.000000
vt 0.750000 1.000000
vt 0.750000 1.000000
vt 0.250000 1.000000
vt 0.687500 1.000000
vt 0.687500 1.000000
vt 0.187500 1.000000
vt 0.125000 1.000000
vt 0.125000 1.000000
vt 0.062500 1.000000
vt 0.062500 1.000000
vt 0.500000 1.000000
vt 1.000000 1.000000
vt 1.000000 1.000000
vt 0.000000 1.000000
vt 0.000000 1.000000
vt 0.187500 1.000000
vt 0.125000 1.000000
vt 0.125000 1.000000
vt 0.187500 1.000000
vt 0.125000 1.000000
vt 0.062500 1.000000
vt 0.500000 1.000000
vt 1.000000 1.000000
vt 0.937500 1.000000
vt 0.000000 1.000000
vt 0.437500 1.000000
vt 0.875000 1.000000
vt 0.375000 1.000000
vt 0.812500 1.000000
vt 0.312500 1.000000
vt 0.750000 1.000000
vt 0.250000 1.000000
vt 0.687500 1.000000
vt 0.187500 1.000000
vt 0.937500 1.000000
vt 0.875000 1.000000
vt 0.812500 1.000000
vt 0.812500 1.000000
vt 0.750000 1.000000
vt 0.750000 1.000000
vt 0.687500 1.000000
vt 0.687500 1.000000
vt 0.625000 1.000000
vt 0.125000 1.000000
vt 0.562500 1.000000
vt 0.062500 1.000000
vt 1.000000 1.000000
vt 0.000000 1.000000
vt 0.000000 1.000000
vt 0.062500 1.000000
vt 0.000000 1.000000
vt 0.937500 1.000000
vt 0.875000 1.000000
vt 0.250000 1.000000
vt 0.250000 1.000000
vt 0.125000 1.000000
vt 1.000000 1.000000
vt 0.312500 1.000000
vt 0.312500 1.000000
vt 0.187500 1.000000
vt 0.375000 1.000000
vt 0.375000 1.000000
vt 0.250000 1.000000
vt 0.437500 1.000000
vt 0.437500 1.000000
vt 0.312500 1.000000
vt 0.500000 1.000000
vt 0.500000 1.000000
vt 0.375000 1.000000
vt 0.562500 1.000000
vt 0.562500 1.000000
vt 0.437500 1.000000
vt 0.062500 1.000000
vt 0.625000 1.000000
vt 0.687500 1.000000
vt 0.750000 1.000000
vt 0.812500 1.000000
vt 0.875000 1.000000
vt 0.937500 1.000000
vt 0.000000 1.000000
vt 0.562500 1.000000
vt 0.625000 1.000000
vt 0.625000 1.000000
vt 0.062500 1.000000
vt 0.500000 1.000000
vt 1.000000 1.000000
vt 0.937500 1.000000
vt 0.000000 1.000000
vt 0.875000 1.000000
vt 0.812500 1.000000
vt 0.812500 1.000000
vt 0.750000 1.000000
vt 0.750000 1.000000
vt 0.687500 1.000000
vt 0.687500 1.000000
vt 1.000000 1.000000
vn -0.1951 0.0000 0.9808
vn -0.5556 0.0000 0.8315
vn -0.8315 0.0000 0.5556
vn -0.9808 0.0000 0.1951
vn -0.9808 0.0000 -0.1951
vn -0.8315 0.0000 -0.5556
vn -0.5556 0.0000 -0.8315
vn -0.1951 0.0000 -0.9808
vn 0.1951 0.0000 -0.9808
vn 0.5556 0.0000 -0.8315
vn 0.8315 0.0000 -0.5556
vn 0.9808 0.0000 -0.1951
vn 0.9808 0.0000 0.1951
vn 0.8315 0.0000 0.5556
vn -0.0581 0.9945 -0.0869
vn 0.5556 0.0000 0.8315
vn 0.1951 0.0000 0.9808
vn 0.0000 -1.0000 -0.0000
vn -0.1197 -0.9925 0.0238
vn 0.1015 -0.9925 -0.0678
vn 0.0204 0.9945 -0.1025
vn -0.0869 0.9945 -0.0581
vn -0.0238 -0.9925 -0.1197
vn 0.0678 -0.9925 0.1015
vn -0.1025 0.9945 -0.0204
vn -0.1025 0.9945 0.0204
vn -0.1015 -0.9925 0.0678
vn 0.0678 -0.9925 -0.1015
vn -0.0869 0.9945 0.0581
vn -0.0678 -0.9925 -0.1015
vn 0.1015 -0.9925 0.0678
vn -0.0581 0.9945 0.0869
vn -0.0204 0.9945 0.1025
vn 0.2682 -0.8758 -0.4014
vn 0.0581 0.9945 -0.0869
vn -0.0204 0.9945 -0.1025
vn 0.0238 -0.9925 0.1197
vn 0.0869 0.9945 -0.0581
vn 0.1025 0.9945 -0.0204
vn 0.1197 -0.9925 -0.0238
vn -0.1197 -0.9925 -0.0238
vn 0.1025 0.9945 0.0204
vn -0.0238 -0.9925 0.1197
vn 0.0869 0.9945 0.0581
vn 0.0581 0.9945 0.0869
vn 0.1197 -0.9925 0.0238
vn -0.1015 -0.9925 -0.0678
vn 0.0238 -0.9925 -0.1197
vn 0.0204 0.9945 0.1025
vn -0.0678 -0.9925 0.1015
vn -0.4735 0.8758 -0.0942
vn -0.2682 -0.8758 -0.4014
vn 0.0942 -0.8758 -0.4735
vn -0.4735 0.8758 0.0942
vn -0.4014 -0.8758 -0.2682
vn -0.4014 0.8758 0.2682
vn -0.4735 -0.8758 -0.0942
vn -0.2682 0.8758 0.4014
vn -0.4735 -0.8758 0.0942
vn -0.0942 0.8758 0.4735
vn -0.4014 -0.8758 0.2682
vn 0.0942 0.8758 0.4735
vn -0.2682 -0.8758 0.4014
vn 0.2682 0.8758 0.4014
vn -0.0942 -0.8758 0.4735
vn -0.0278 0.9994 -0.0186
vn -0.0942 -0.8758 -0.4735
vn -0.4014 0.8758 -0.2682
vn 0.4014 -0.8758 -0.2682
vn 0.0942 0.8758 -0.4735
vn -0.2682 0.8758 -0.4014
vn 0.4735 -0.8758 -0.0942
vn 0.2682 0.8758 -0.4014
vn -0.0942 0.8758 -0.4735
vn 0.4735 -0.8758 0.0942
vn 0.4014 0.8758 -0.2682
vn 0.4014 -0.8758 0.2682
vn 0.4735 0.8758 -0.0942
vn 0.2682 -0.8758 0.4014
vn 0.4735 0.8758 0.0942
vn 0.0942 -0.8758 0.4735
vn 0.4014 0.8758 0.2682
vn -0.0065 -0.9994 -0.0328
vn 0.0186 -0.9994 -0.0278
vn -0.0328 0.9994 -0.0065
vn -0.0186 -0.9994 -0.0278
vn 0.0065 -0.9994 -0.0328
vn -0.0328 0.9994 0.0065
vn -0.0278 -0.9994 -0.0186
vn -0.0278 0.9994 0.0186
vn -0.0328 -0.9994 -0.0065
vn -0.0186 0.9994 0.0278
vn -0.0328 -0.9994 0.0065
vn -0.0065 0.9994 0.0328
vn -0.0278 -0.9994 0.0186
vn 0.0065 0.9994 0.0328
vn -0.0186 -0.9994 0.0278
vn 0.0000 1.0000 0.0000
vn 0.0278 -0.9994 -0.0186
vn 0.0065 0.9994 -0.0328
vn -0.0186 0.9994 -0.0278
vn 0.0328 -0.9994 -0.0065
vn 0.0186 0.9994 -0.0278
vn -0.0065 0.9994 -0.0328
vn 0.0328 -0.9994 0.0065
vn 0.0278 0.9994 -0.0186
vn 0.0278 -0.9994 0.0186
vn 0.0328 0.9994 -0.0065
vn 0.0186 -0.9994 0.0278
vn 0.0328 0.9994 0.0065
vn 0.0065 -0.9994 0.0328
vn 0.0278 0.9994 0.0186
vn -0.0065 -0.9994 0.0328
vn 0.0186 0.9994 0.0278
usemtl None.002
s 1
f 1/1/1 2/2/1 3/3/1 4/4/1
f 4/4/2 3/3/2 5/5/2 6/6/2
f 6/6/3 5/5/3 7/7/3 8/8/3
f 8/8/4 7/7/4 9/9/4 10/10/4
f 10/10/5 9/9/5 11/11/5 12/12/5
f 12/12/6 11/11/6 13/13/6 14/14/6
f 14/14/7 13/13/7 15/15/7 16/16/7
f 16/16/8 15/15/8 17/17/8 18/18/8
f 18/18/9 17/17/9 19/19/9 20/20/9
f 20/20/10 19/19/10 21/21/10 22/22/10
f 22/22/11 21/21/11 23/23/11 24/24/11
f 24/24/12 23/23/12 25/25/12 26/26/12
f 26/26/13 25/25/13 27/27/13 28/28/13
f 28/28/14 27/27/14 29/29/14 30/30/14
f 31/31/15 32/32/15 33/33/15 34/34/15
f 30/30/16 29/29/16 35/35/16 36/36/16
f 36/36/17 35/35/17 2/37/17 1/38/17
f 1/39/18 4/40/18 6/41/18 8/42/18 10/43/18 12/44/18 14/45/18 16/46/18 18/47/18 20/48/18 22/49/18 24/50/18 26/51/18 28/52/18 30/53/18 36/54/18
f 37/55/12 38/56/12 39/57/12 40/58/12
f 25/25/19 23/23/19 41/59/19 42/60/19
f 7/7/20 5/5/20 43/61/20 44/62/20
f 45/63/21 46/64/21 47/65/21 48/66/21
f 49/67/22 31/31/22 34/34/22 50/68/22
f 2/37/23 35/35/23 51/69/23 52/70/23
f 15/15/24 13/13/24 53/71/24 54/72/24
f 55/73/25 49/67/25 50/68/25 56/74/25
f 57/75/26 55/73/26 56/74/26 58/76/26
f 23/23/27 21/21/27 59/77/27 41/59/27
f 5/5/28 3/3/28 60/78/28 43/61/28
f 61/79/29 57/75/29 58/76/29 62/80/29
f 35/35/30 29/29/30 63/81/30 51/69/30
f 13/13/31 11/11/31 64/82/31 53/71/31
f 65/83/32 61/79/32 62/80/32 66/84/32
f 67/85/33 65/83/33 66/84/33 68/86/33
f 69/87/34 70/88/34 71/89/34 72/90/34
f 55/73/4 57/75/4 73/91/4 74/92/4
f 75/93/13 37/55/13 40/58/13 76/94/13
f 49/67/5 55/73/5 74/92/5 77/95/5
f 78/96/14 75/93/14 76/94/14 79/97/14
f 31/31/6 49/67/6 77/95/6 80/98/6
f 81/99/16 78/96/16 79/97/16 82/100/16
f 32/32/7 31/31/7 80/98/7 83/101/7
f 67/85/17 81/99/17 82/100/17 84/102/17
f 46/64/9 45/63/9 85/103/9 70/88/9
f 45/104/8 32/32/8 83/101/8 85/105/8
f 65/83/1 67/85/1 84/102/1 86/106/1
f 87/107/10 46/64/10 70/88/10 69/87/10
f 61/79/2 65/83/2 86/106/2 88/108/2
f 38/56/11 87/107/11 69/87/11 39/57/11
f 57/75/3 61/79/3 88/108/3 73/91/3
f 64/82/13 89/109/13 90/110/13 91/111/13
f 59/77/2 92/112/2 66/84/2 62/80/2
f 51/69/7 63/81/7 34/34/7 33/33/7
f 44/62/11 43/61/11 93/113/11 94/114/11
f 95/115/17 54/72/17 96/116/17 68/86/17
f 60/78/9 52/117/9 48/66/9 47/65/9
f 97/118/5 42/60/5 56/74/5 50/68/5
f 53/71/14 64/82/14 91/111/14 98/119/14
f 41/59/3 59/77/3 62/80/3 58/76/3
f 52/70/8 51/69/8 33/33/8 48/120/8
f 89/109/12 44/62/12 94/114/12 90/110/12
f 92/112/1 95/115/1 68/86/1 66/84/1
f 63/81/6 97/118/6 50/68/6 34/34/6
f 43/61/10 60/78/10 47/65/10 93/113/10
f 54/72/16 53/71/16 98/119/16 96/116/16
f 42/60/4 41/59/4 58/76/4 56/74/4
f 46/64/35 87/107/35 93/113/35 47/65/35
f 32/32/36 45/104/36 48/120/36 33/33/36
f 17/17/37 15/15/37 54/72/37 95/115/37
f 87/107/38 38/56/38 94/114/38 93/113/38
f 38/56/39 37/55/39 90/110/39 94/114/39
f 9/9/40 7/7/40 44/62/40 89/109/40
f 27/27/41 25/25/41 42/60/41 97/118/41
f 37/55/42 75/93/42 91/111/42 90/110/42
f 19/19/43 17/17/43 95/115/43 92/112/43
f 75/93/44 78/96/44 98/119/44 91/111/44
f 78/96/45 81/99/45 96/116/45 98/119/45
f 11/11/46 9/9/46 89/109/46 64/82/46
f 29/29/47 27/27/47 97/118/47 63/81/47
f 3/3/48 2/2/48 52/117/48 60/78/48
f 81/99/49 67/85/49 68/86/49 96/116/49
f 21/21/50 19/19/50 92/112/50 59/77/50
f 99/121/10 100/122/10 101/123/10 102/124/10
f 103/125/51 104/126/51 105/127/51 106/128/51
f 83/101/52 80/98/52 107/129/52 108/130/52
f 70/88/53 85/103/53 109/131/53 71/89/53
f 110/132/54 103/125/54 106/128/54 111/133/54
f 80/98/55 77/95/55 112/134/55 107/129/55
f 113/135/56 110/132/56 111/133/56 114/136/56
f 77/95/57 74/92/57 115/137/57 112/134/57
f 116/138/58 113/135/58 114/136/58 117/139/58
f 74/92/59 73/91/59 118/140/59 115/137/59
f 119/141/60 116/138/60 117/139/60 120/142/60
f 73/91/61 88/108/61 121/143/61 118/140/61
f 122/144/62 119/141/62 120/142/62 123/145/62
f 88/108/63 86/106/63 124/146/63 121/143/63
f 125/147/64 122/144/64 123/145/64 126/148/64
f 86/106/65 84/102/65 127/149/65 124/146/65
f 128/150/16 129/151/16 130/152/16 131/153/16
f 113/135/2 116/138/2 132/154/2 133/155/2
f 134/156/11 99/121/11 102/124/11 135/157/11
f 110/132/3 113/135/3 133/155/3 136/158/3
f 137/159/12 134/156/12 135/157/12 138/160/12
f 103/125/4 110/132/4 136/158/4 139/161/4
f 140/162/13 137/159/13 138/160/13 141/163/13
f 104/126/5 103/125/5 139/161/5 142/164/5
f 125/147/14 140/162/14 141/163/14 129/151/14
f 143/165/6 104/126/6 142/164/6 144/166/6
f 122/144/16 125/147/16 129/151/16 128/150/16
f 145/167/7 143/165/7 144/166/7 146/168/7
f 119/141/17 122/144/17 128/150/17 147/169/17
f 100/122/9 148/170/9 149/171/9 101/123/9
f 148/172/8 145/167/8 146/168/8 149/173/8
f 116/138/1 119/141/1 147/169/1 132/154/1
f 150/174/66 151/175/66 152/176/66 153/177/66
f 146/168/7 144/166/7 154/178/7 155/179/7
f 147/169/17 128/150/17 131/153/17 156/180/17
f 101/123/9 149/171/9 157/181/9 158/182/9
f 149/173/8 146/168/8 155/179/8 157/183/8
f 132/154/1 147/169/1 156/180/1 159/184/1
f 102/124/10 101/123/10 158/182/10 160/185/10
f 133/155/2 132/154/2 159/184/2 161/186/2
f 135/157/11 102/124/11 160/185/11 162/187/11
f 136/158/3 133/155/3 161/186/3 163/188/3
f 138/160/12 135/157/12 162/187/12 164/189/12
f 139/161/4 136/158/4 163/188/4 165/190/4
f 141/163/13 138/160/13 164/189/13 166/191/13
f 142/164/5 139/161/5 165/190/5 167/192/5
f 129/151/14 141/163/14 166/191/14 130/152/14
f 144/166/6 142/164/6 167/192/6 154/178/6
f 124/146/1 127/149/1 120/142/1 117/139/1
f 72/90/10 71/89/10 168/193/10 169/194/10
f 121/143/2 124/146/2 117/139/2 114/136/2
f 170/195/11 72/90/11 169/194/11 171/196/11
f 118/140/3 121/143/3 114/136/3 111/133/3
f 172/197/12 170/195/12 171/196/12 173/198/12
f 115/137/4 118/140/4 111/133/4 106/128/4
f 174/199/13 172/197/13 173/198/13 175/200/13
f 112/134/5 115/137/5 106/128/5 105/127/5
f 176/201/14 174/199/14 175/200/14 126/148/14
f 107/129/6 112/134/6 105/127/6 177/202/6
f 178/203/16 176/201/16 126/148/16 123/145/16
f 108/130/7 107/129/7 177/202/7 179/204/7
f 127/149/17 178/203/17 123/145/17 120/142/17
f 71/89/9 109/131/9 180/205/9 168/193/9
f 109/206/8 108/130/8 179/204/8 180/207/8
f 85/105/67 83/101/67 108/130/67 109/206/67
f 104/126/68 143/165/68 177/202/68 105/127/68
f 39/57/69 69/87/69 72/90/69 170/195/69
f 148/170/70 100/122/70 168/193/70 180/205/70
f 143/165/71 145/167/71 179/204/71 177/202/71
f 40/58/72 39/57/72 170/195/72 172/197/72
f 100/122/73 99/121/73 169/194/73 168/193/73
f 145/167/74 148/172/74 180/207/74 179/204/74
f 76/94/75 40/58/75 172/197/75 174/199/75
f 99/121/76 134/156/76 171/196/76 169/194/76
f 79/97/77 76/94/77 174/199/77 176/201/77
f 134/156/78 137/159/78 173/198/78 171/196/78
f 82/100/79 79/97/79 176/201/79 178/203/79
f 137/159/80 140/162/80 175/200/80 173/198/80
f 84/102/81 82/100/81 178/203/81 127/149/81
f 140/162/82 125/147/82 126/148/82 175/200/82
f 157/183/83 155/179/83 181/208/83 182/209/83
f 160/185/84 158/182/84 183/210/84 184/211/84
f 185/212/85 150/174/85 153/177/85 186/213/85
f 155/179/86 154/178/86 187/214/86 181/208/86
f 158/182/87 157/181/87 182/215/87 183/210/87
f 188/216/88 185/212/88 186/213/88 189/217/88
f 154/178/89 167/192/89 190/218/89 187/214/89
f 191/219/90 188/216/90 189/217/90 192/220/90
f 167/192/91 165/190/91 193/221/91 190/218/91
f 194/222/92 191/219/92 192/220/92 195/223/92
f 165/190/93 163/188/93 196/224/93 193/221/93
f 197/225/94 194/222/94 195/223/94 198/226/94
f 163/188/95 161/186/95 199/227/95 196/224/95
f 200/228/96 197/225/96 198/226/96 201/229/96
f 161/186/97 159/184/97 202/230/97 199/227/97
f 203/231/98 151/175/98 150/174/98 185/212/98 188/216/98 191/219/98 194/222/98 197/225/98 200/228/98 204/232/98 205/233/98 206/234/98 207/235/98 208/236/98 209/237/98 210/238/98
f 187/214/6 190/218/6 153/177/6 152/176/6
f 211/239/16 212/240/16 213/241/16 201/229/16
f 181/208/7 187/214/7 152/176/7 214/242/7
f 215/243/17 211/239/17 201/229/17 198/226/17
f 183/210/9 182/215/9 216/244/9 217/245/9
f 182/209/8 181/208/8 214/242/8 216/246/8
f 202/230/1 215/243/1 198/226/1 195/223/1
f 184/211/10 183/210/10 217/245/10 218/247/10
f 199/227/2 202/230/2 195/223/2 192/220/2
f 219/248/11 184/211/11 218/247/11 220/249/11
f 196/224/3 199/227/3 192/220/3 189/217/3
f 221/250/12 219/248/12 220/249/12 222/251/12
f 193/221/4 196/224/4 189/217/4 186/213/4
f 223/252/13 221/250/13 222/251/13 224/253/13
f 190/218/5 193/221/5 186/213/5 153/177/5
f 212/240/14 223/252/14 224/253/14 213/241/14
f 162/187/99 160/185/99 184/211/99 219/248/99
f 210/254/100 209/237/100 217/245/100 216/244/100
f 151/175/101 203/231/101 214/242/101 152/176/101
f 164/189/102 162/187/102 219/248/102 221/250/102
f 209/237/103 208/236/103 218/247/103 217/245/103
f 203/231/104 210/238/104 216/246/104 214/242/104
f 166/191/105 164/189/105 221/250/105 223/252/105
f 208/236/106 207/235/106 220/249/106 218/247/106
f 130/152/107 166/191/107 223/252/107 212/240/107
f 207/235/108 206/234/108 222/251/108 220/249/108
f 131/153/109 130/152/109 212/240/109 211/239/109
f 206/234/110 205/233/110 224/253/110 222/251/110
f 156/180/111 131/153/111 211/239/111 215/243/111
f 205/233/112 204/232/112 213/241/112 224/253/112
f 159/184/113 156/180/113 215/243/113 202/230/113
f 204/232/114 200/228/114 201/229/114 213/241/114
